DoulosSILCipher-R.ufo
<glyph name="exclam" format="2">
  <advance width="682"/>
  <unicode hex="0021"/>
  <outline>
    <contour>
      <point x="451" y="85" type="qcurve"/>
      <point x="451" y="61"/>
      <point x="433" y="20"/>
      <point x="403" y="-12"/>
      <point x="363" y="-30"/>
      <point x="341" y="-30" type="qcurve"/>
      <point x="324" y="-30"/>
      <point x="284" y="-17"/>
      <point x="251" y="11"/>
      <point x="229" y="55"/>
      <point x="229" y="85" type="qcurve"/>
      <point x="229" y="112"/>
      <point x="250" y="152"/>
      <point x="282" y="179"/>
      <point x="322" y="193"/>
      <point x="341" y="193" type="qcurve"/>
      <point x="360" y="193"/>
      <point x="400" y="178"/>
      <point x="431" y="150"/>
      <point x="451" y="110"/>
    </contour>
    <contour>
      <point x="455" y="1238" type="qcurve"/>
      <point x="455" y="1226"/>
      <point x="454" y="1191"/>
      <point x="451" y="1171" type="qcurve"/>
      <point x="361" y="359" type="line"/>
      <point x="321" y="359" type="line"/>
      <point x="235" y="1171" type="line"/>
      <point x="230" y="1206"/>
      <point x="227" y="1236"/>
      <point x="227" y="1247" type="qcurve"/>
      <point x="227" y="1315"/>
      <point x="294" y="1388"/>
      <point x="343" y="1388" type="qcurve"/>
      <point x="362" y="1388"/>
      <point x="401" y="1372"/>
      <point x="434" y="1336"/>
      <point x="455" y="1279"/>
    </contour>
  </outline>
</glyph>
<glyph name="quotedbl" format="2">
  <advance width="835"/>
  <unicode hex="0022"/>
  <outline>
    <contour>
      <point x="335" y="1279" type="qcurve"/>
      <point x="335" y="1260"/>
      <point x="321" y="1169"/>
      <point x="307" y="1098" type="qcurve"/>
      <point x="252" y="805" type="line"/>
      <point x="211" y="805" type="line"/>
      <point x="156" y="1100" type="line"/>
      <point x="144" y="1161"/>
      <point x="134" y="1244"/>
      <point x="134" y="1267" type="qcurve"/>
      <point x="134" y="1335"/>
      <point x="189" y="1388"/>
      <point x="233" y="1388" type="qcurve"/>
      <point x="278" y="1388"/>
      <point x="335" y="1328"/>
    </contour>
    <contour>
      <point x="702" y="1281" type="qcurve"/>
      <point x="702" y="1261"/>
      <point x="694" y="1170"/>
      <point x="680" y="1096" type="qcurve"/>
      <point x="625" y="805" type="line"/>
      <point x="576" y="805" type="line"/>
      <point x="523" y="1096" type="line"/>
      <point x="510" y="1160"/>
      <point x="499" y="1244"/>
      <point x="499" y="1267" type="qcurve"/>
      <point x="499" y="1331"/>
      <point x="552" y="1388"/>
      <point x="601" y="1388" type="qcurve"/>
      <point x="649" y="1388"/>
      <point x="702" y="1325"/>
    </contour>
  </outline>
</glyph>
<glyph name="dollar" format="2">
  <advance width="1025"/>
  <unicode hex="0024"/>
  <outline>
    <contour>
      <point x="922" y="337" type="qcurve"/>
      <point x="922" y="256"/>
      <point x="856" y="124"/>
      <point x="746" y="30"/>
      <point x="603" y="-25"/>
      <point x="526" y="-30" type="qcurve"/>
      <point x="526" y="-156" type="line"/>
      <point x="463" y="-156" type="line"/>
      <point x="463" y="-30" type="line"/>
      <point x="419" y="-28"/>
      <point x="324" y="-13"/>
      <point x="231" y="8"/>
      <point x="144" y="36"/>
      <point x="109" y="51" type="qcurve"/>
      <point x="109" y="335" type="line"/>
      <point x="152" y="335" type="line"/>
      <point x="162" y="193"/>
      <point x="317" y="51"/>
      <point x="463" y="38" type="qcurve"/>
      <point x="463" y="621" type="line"/>
      <point x="379" y="676"/>
      <point x="247" y="769"/>
      <point x="157" y="868"/>
      <point x="109" y="981"/>
      <point x="109" y="1055" type="qcurve"/>
      <point x="109" y="1140"/>
      <point x="181" y="1261"/>
      <point x="289" y="1338"/>
      <point x="412" y="1377"/>
      <point x="463" y="1380" type="qcurve"/>
      <point x="463" y="1472" type="line"/>
      <point x="526" y="1472" type="line"/>
      <point x="526" y="1380" type="line"/>
      <point x="566" y="1378"/>
      <point x="636" y="1367"/>
      <point x="664" y="1362" type="qcurve"/>
      <point x="727" y="1339" type="line"/>
      <point x="776" y="1322"/>
      <point x="857" y="1291" type="qcurve"/>
      <point x="857" y="991" type="line"/>
      <point x="818" y="991" type="line"/>
      <point x="812" y="1061"/>
      <point x="777" y="1174"/>
      <point x="708" y="1256"/>
      <point x="602" y="1305"/>
      <point x="526" y="1313" type="qcurve"/>
      <point x="526" y="805" type="line"/>
      <point x="637" y="725"/>
      <point x="788" y="611"/>
      <point x="881" y="509"/>
      <point x="922" y="405"/>
    </contour>
    <contour>
      <point x="763" y="288" type="qcurve"/>
      <point x="763" y="332"/>
      <point x="732" y="404"/>
      <point x="671" y="470"/>
      <point x="583" y="537"/>
      <point x="526" y="577" type="qcurve"/>
      <point x="526" y="38" type="line"/>
      <point x="554" y="40"/>
      <point x="635" y="68"/>
      <point x="710" y="126"/>
      <point x="763" y="220"/>
    </contour>
    <contour>
      <point x="463" y="1313" type="line"/>
      <point x="439" y="1309"/>
      <point x="370" y="1290"/>
      <point x="308" y="1248"/>
      <point x="264" y="1175"/>
      <point x="264" y="1117" type="qcurve"/>
      <point x="264" y="1065"/>
      <point x="306" y="980"/>
      <point x="367" y="914"/>
      <point x="436" y="865"/>
      <point x="463" y="848" type="qcurve"/>
    </contour>
  </outline>
</glyph>
<glyph name="percent" format="2">
  <advance width="1772"/>
  <unicode hex="0025"/>
  <outline>
    <contour>
      <point x="767" y="1139" type="qcurve"/>
      <point x="767" y="1165"/>
      <point x="754" y="1210"/>
      <point x="749" y="1234" type="qcurve"/>
      <point x="720" y="1242"/>
      <point x="679" y="1266"/>
      <point x="647" y="1288"/>
      <point x="620" y="1303"/>
      <point x="607" y="1303" type="qcurve"/>
      <point x="588" y="1303"/>
      <point x="530" y="1270"/>
      <point x="464" y="1209"/>
      <point x="398" y="1122"/>
      <point x="345" y="1013"/>
      <point x="312" y="886"/>
      <point x="312" y="816" type="qcurve"/>
      <point x="312" y="783"/>
      <point x="324" y="727"/>
      <point x="354" y="687"/>
      <point x="403" y="664"/>
      <point x="440" y="664" type="qcurve"/>
      <point x="486" y="664"/>
      <point x="570" y="706"/>
      <point x="642" y="779"/>
      <point x="702" y="874"/>
      <point x="744" y="979"/>
      <point x="767" y="1089"/>
    </contour>
    <contour>
      <point x="1565" y="497" type="qcurve"/>
      <point x="1565" y="527"/>
      <point x="1547" y="588"/>
      <point x="1511" y="637"/>
      <point x="1458" y="668"/>
      <point x="1423" y="668" type="qcurve"/>
      <point x="1379" y="668"/>
      <point x="1299" y="621"/>
      <point x="1230" y="542"/>
      <point x="1173" y="439"/>
      <point x="1132" y="330"/>
      <point x="1110" y="221"/>
      <point x="1110" y="175" type="qcurve"/>
      <point x="1110" y="146"/>
      <point x="1124" y="95"/>
      <point x="1154" y="56"/>
      <point x="1203" y="34"/>
      <point x="1238" y="34" type="qcurve"/>
      <point x="1286" y="34"/>
      <point x="1372" y="80"/>
      <point x="1445" y="155"/>
      <point x="1503" y="252"/>
      <point x="1543" y="355"/>
      <point x="1565" y="456"/>
    </contour>
    <contour>
      <point x="542" y="-30" type="line"/>
      <point x="444" y="-30" type="line"/>
      <point x="1161" y="1258" type="line"/>
      <point x="1114" y="1238"/>
      <point x="1014" y="1213"/>
      <point x="919" y="1203"/>
      <point x="835" y="1208"/>
      <point x="805" y="1220" type="qcurve"/>
      <point x="805" y="1197"/>
      <point x="820" y="1136"/>
      <point x="820" y="1110" type="qcurve"/>
      <point x="820" y="1040"/>
      <point x="783" y="910"/>
      <point x="720" y="795"/>
      <point x="636" y="700"/>
      <point x="543" y="631"/>
      <point x="445" y="593"/>
      <point x="400" y="593" type="qcurve"/>
      <point x="279" y="593"/>
      <point x="156" y="740"/>
      <point x="156" y="875" type="qcurve"/>
      <point x="156" y="930"/>
      <point x="189" y="1044"/>
      <point x="249" y="1153"/>
      <point x="332" y="1249"/>
      <point x="431" y="1320"/>
      <point x="542" y="1362"/>
      <point x="600" y="1362" type="qcurve"/>
      <point x="642" y="1362"/>
      <point x="697" y="1345"/>
      <point x="739" y="1320"/>
      <point x="776" y="1290"/>
      <point x="821" y="1265"/>
      <point x="883" y="1248"/>
      <point x="929" y="1249" type="qcurve"/>
      <point x="975" y="1250"/>
      <point x="1064" y="1270"/>
      <point x="1143" y="1306"/>
      <point x="1210" y="1359"/>
      <point x="1236" y="1392" type="qcurve"/>
      <point x="1334" y="1392" type="line"/>
    </contour>
    <contour>
      <point x="1618" y="508" type="qcurve"/>
      <point x="1618" y="387"/>
      <point x="1542" y="189"/>
      <point x="1424" y="48"/>
      <point x="1281" y="-30"/>
      <point x="1215" y="-30" type="qcurve"/>
      <point x="1136" y="-30"/>
      <point x="1035" y="15"/>
      <point x="976" y="92"/>
      <point x="954" y="194"/>
      <point x="954" y="252" type="qcurve"/>
      <point x="954" y="308"/>
      <point x="988" y="423"/>
      <point x="1048" y="530"/>
      <point x="1131" y="624"/>
      <point x="1230" y="694"/>
      <point x="1341" y="735"/>
      <point x="1399" y="735" type="qcurve"/>
      <point x="1451" y="735"/>
      <point x="1533" y="695"/>
      <point x="1589" y="630"/>
      <point x="1618" y="549"/>
    </contour>
  </outline>
</glyph>
<glyph name="quotesingle" format="2">
  <advance width="371"/>
  <unicode hex="0027"/>
  <outline>
    <contour>
      <point x="286" y="1281" type="qcurve"/>
      <point x="286" y="1264"/>
      <point x="272" y="1172"/>
      <point x="258" y="1098" type="qcurve"/>
      <point x="205" y="805" type="line"/>
      <point x="160" y="805" type="line"/>
      <point x="107" y="1100" type="line"/>
      <point x="94" y="1163"/>
      <point x="85" y="1245"/>
      <point x="85" y="1267" type="qcurve"/>
      <point x="85" y="1330"/>
      <point x="131" y="1388"/>
      <point x="179" y="1388" type="qcurve"/>
      <point x="207" y="1388"/>
      <point x="248" y="1368"/>
      <point x="274" y="1336"/>
      <point x="286" y="1299"/>
    </contour>
  </outline>
</glyph>
<glyph name="hyphen" format="2">
  <advance width="612"/>
  <unicode hex="002D"/>
  <anchor x="305" y="1870" name="A"/>
  <anchor x="305" y="695" name="C"/>
  <anchor x="305" y="-100" name="L"/>
  <anchor x="305" y="1435" name="U"/>
  <outline>
    <contour>
      <point x="47" y="382" type="line"/>
      <point x="47" y="534" type="line"/>
      <point x="564" y="534" type="line"/>
      <point x="564" y="382" type="line"/>
    </contour>
  </outline>
</glyph>
<glyph name="period" format="2">
  <advance width="612"/>
  <unicode hex="002E"/>
  <anchor x="305" y="1870" name="A"/>
  <anchor x="305" y="715" name="C"/>
  <anchor x="292" y="-100" name="L"/>
  <anchor x="305" y="1455" name="U"/>
  <outline>
    <contour>
      <point x="418" y="101" type="curve" smooth="yes"/>
      <point x="418" y="32"/>
      <point x="366" y="-29"/>
      <point x="292" y="-29" type="curve" smooth="yes"/>
      <point x="216" y="-29"/>
      <point x="168" y="32"/>
      <point x="168" y="101" type="curve" smooth="yes"/>
      <point x="168" y="173"/>
      <point x="219" y="225"/>
      <point x="292" y="225" type="curve" smooth="yes"/>
      <point x="360" y="225"/>
      <point x="418" y="174"/>
    </contour>
  </outline>
</glyph>
<glyph name="two" format="2">
  <advance width="1224"/>
  <unicode hex="0032"/>
  <anchor x="612" y="1870" name="A"/>
  <anchor x="562" y="695" name="C"/>
  <anchor x="612" y="-100" name="L"/>
  <anchor x="612" y="1435" name="U"/>
  <outline>
    <contour>
      <point x="963" y="0" type="line"/>
      <point x="164" y="0" type="line"/>
      <point x="164" y="38" type="line"/>
      <point x="340" y="199"/>
      <point x="589" y="459"/>
      <point x="661" y="564" type="qcurve"/>
      <point x="805" y="770"/>
      <point x="805" y="936" type="qcurve"/>
      <point x="805" y="1023"/>
      <point x="745" y="1137"/>
      <point x="660" y="1205"/>
      <point x="569" y="1232"/>
      <point x="537" y="1232" type="qcurve"/>
      <point x="465" y="1232"/>
      <point x="362" y="1182"/>
      <point x="291" y="1110"/>
      <point x="249" y="1031"/>
      <point x="239" y="1003" type="qcurve"/>
      <point x="204" y="1003" type="line"/>
      <point x="208" y="1033"/>
      <point x="226" y="1114"/>
      <point x="262" y="1199"/>
      <point x="318" y="1281"/>
      <point x="401" y="1346"/>
      <point x="514" y="1386"/>
      <point x="588" y="1386" type="qcurve"/>
      <point x="660" y="1386"/>
      <point x="800" y="1337"/>
      <point x="909" y="1245"/>
      <point x="976" y="1112"/>
      <point x="976" y="1029" type="qcurve"/>
      <point x="976" y="949"/>
      <point x="917" y="792"/>
      <point x="830" y="648"/>
      <point x="729" y="525"/>
      <point x="687" y="479" type="qcurve"/>
      <point x="562" y="343"/>
      <point x="408" y="181"/>
      <point x="377" y="152" type="qcurve"/>
      <point x="732" y="152" type="line"/>
      <point x="809" y="152"/>
      <point x="901" y="161"/>
      <point x="960" y="185"/>
      <point x="999" y="227"/>
      <point x="1022" y="260" type="qcurve"/>
      <point x="1059" y="260" type="line"/>
    </contour>
  </outline>
</glyph>
<glyph name="three" format="2">
  <advance width="1224"/>
  <unicode hex="0033"/>
  <anchor x="612" y="1870" name="A"/>
  <anchor x="612" y="695" name="C"/>
  <anchor x="612" y="-100" name="L"/>
  <anchor x="612" y="1435" name="U"/>
  <outline>
    <contour>
      <point x="997" y="449" type="qcurve"/>
      <point x="997" y="345"/>
      <point x="923" y="171"/>
      <point x="784" y="46"/>
      <point x="585" y="-24"/>
      <point x="461" y="-24" type="qcurve"/>
      <point x="404" y="-24"/>
      <point x="325" y="-12"/>
      <point x="273" y="7"/>
      <point x="243" y="31"/>
      <point x="229" y="56"/>
      <point x="226" y="78"/>
      <point x="226" y="85" type="qcurve"/>
      <point x="226" y="100"/>
      <point x="239" y="125"/>
      <point x="261" y="145"/>
      <point x="289" y="156"/>
      <point x="305" y="156" type="qcurve"/>
      <point x="342" y="156"/>
      <point x="403" y="127"/>
      <point x="467" y="93"/>
      <point x="543" y="64"/>
      <point x="594" y="64" type="qcurve"/>
      <point x="639" y="64"/>
      <point x="729" y="101"/>
      <point x="802" y="170"/>
      <point x="848" y="267"/>
      <point x="848" y="327" type="qcurve"/>
      <point x="848" y="395"/>
      <point x="814" y="497"/>
      <point x="759" y="570"/>
      <point x="688" y="620"/>
      <point x="651" y="635" type="qcurve"/>
      <point x="564" y="671"/>
      <point x="453" y="672" type="qcurve"/>
      <point x="453" y="704" type="line"/>
      <point x="466" y="705"/>
      <point x="521" y="718"/>
      <point x="590" y="747"/>
      <point x="663" y="793"/>
      <point x="723" y="862"/>
      <point x="762" y="957"/>
      <point x="762" y="1019" type="qcurve"/>
      <point x="762" y="1085"/>
      <point x="717" y="1172"/>
      <point x="650" y="1225"/>
      <point x="572" y="1247"/>
      <point x="539" y="1247" type="qcurve"/>
      <point x="383" y="1247"/>
      <point x="279" y="1082" type="qcurve"/>
      <point x="246" y="1098" type="line"/>
      <point x="256" y="1119"/>
      <point x="283" y="1178"/>
      <point x="323" y="1242"/>
      <point x="379" y="1305"/>
      <point x="453" y="1355"/>
      <point x="550" y="1386"/>
      <point x="612" y="1386" type="qcurve"/>
      <point x="677" y="1386"/>
      <point x="775" y="1355"/>
      <point x="845" y="1305"/>
      <point x="890" y="1244"/>
      <point x="917" y="1182"/>
      <point x="927" y="1128"/>
      <point x="927" y="1110" type="qcurve"/>
      <point x="927" y="1037"/>
      <point x="837" y="884"/>
      <point x="744" y="805" type="qcurve"/>
      <point x="777" y="793"/>
      <point x="864" y="743"/>
      <point x="942" y="659"/>
      <point x="997" y="535"/>
    </contour>
  </outline>
</glyph>
<glyph name="four" format="2">
  <advance width="1224"/>
  <unicode hex="0034"/>
  <anchor x="612" y="1870" name="A"/>
  <anchor x="612" y="695" name="C"/>
  <anchor x="612" y="-100" name="L"/>
  <anchor x="612" y="1435" name="U"/>
  <outline>
    <contour>
      <point x="893" y="359" type="line"/>
      <point x="893" y="0" type="line"/>
      <point x="727" y="0" type="line"/>
      <point x="727" y="359" type="line"/>
      <point x="152" y="359" type="line"/>
      <point x="152" y="485" type="line"/>
      <point x="782" y="1386" type="line"/>
      <point x="893" y="1386" type="line"/>
      <point x="893" y="500" type="line"/>
      <point x="1072" y="500" type="line"/>
      <point x="1072" y="359" type="line"/>
    </contour>
    <contour>
      <point x="727" y="1175" type="line"/>
      <point x="250" y="500" type="line"/>
      <point x="727" y="500" type="line"/>
    </contour>
  </outline>
</glyph>
<glyph name="five" format="2">
  <advance width="1224"/>
  <unicode hex="0035"/>
  <anchor x="612" y="1870" name="A"/>
  <anchor x="612" y="695" name="C"/>
  <anchor x="612" y="-100" name="L"/>
  <anchor x="612" y="1435" name="U"/>
  <outline>
    <contour>
      <point x="930" y="1187" type="line"/>
      <point x="522" y="1187" type="line"/>
      <point x="432" y="1005" type="line"/>
      <point x="464" y="1002"/>
      <point x="571" y="977"/>
      <point x="694" y="926"/>
      <point x="819" y="847"/>
      <point x="921" y="734"/>
      <point x="985" y="585"/>
      <point x="985" y="489" type="qcurve"/>
      <point x="985" y="404"/>
      <point x="937" y="262"/>
      <point x="855" y="148"/>
      <point x="748" y="62"/>
      <point x="628" y="5"/>
      <point x="505" y="-24"/>
      <point x="449" y="-24" type="qcurve"/>
      <point x="391" y="-24"/>
      <point x="303" y="-2"/>
      <point x="245" y="34"/>
      <point x="216" y="82"/>
      <point x="216" y="109" type="qcurve"/>
      <point x="216" y="117"/>
      <point x="222" y="141"/>
      <point x="239" y="164"/>
      <point x="270" y="181"/>
      <point x="295" y="181" type="qcurve"/>
      <point x="331" y="181"/>
      <point x="385" y="149"/>
      <point x="442" y="111"/>
      <point x="512" y="79"/>
      <point x="562" y="79" type="qcurve"/>
      <point x="620" y="79"/>
      <point x="726" y="124"/>
      <point x="807" y="205"/>
      <point x="855" y="316"/>
      <point x="855" y="382" type="qcurve"/>
      <point x="855" y="413"/>
      <point x="841" y="489"/>
      <point x="807" y="570"/>
      <point x="749" y="652"/>
      <point x="705" y="688" type="qcurve"/>
      <point x="650" y="734"/>
      <point x="533" y="788"/>
      <point x="418" y="818"/>
      <point x="309" y="829"/>
      <point x="262" y="830" type="qcurve"/>
      <point x="522" y="1356" type="line"/>
      <point x="1007" y="1356" type="line"/>
    </contour>
  </outline>
</glyph>
<glyph name="six" format="2">
  <advance width="1224"/>
  <unicode hex="0036"/>
  <anchor x="612" y="1870" name="A"/>
  <anchor x="612" y="695" name="C"/>
  <anchor x="612" y="-100" name="L"/>
  <anchor x="612" y="1435" name="U"/>
  <outline>
    <contour>
      <point x="1040" y="457" type="qcurve"/>
      <point x="1040" y="367"/>
      <point x="980" y="195"/>
      <point x="867" y="59"/>
      <point x="708" y="-24"/>
      <point x="609" y="-24" type="qcurve"/>
      <point x="515" y="-24"/>
      <point x="358" y="65"/>
      <point x="246" y="217"/>
      <point x="183" y="419"/>
      <point x="183" y="532" type="qcurve"/>
      <point x="183" y="644"/>
      <point x="232" y="835"/>
      <point x="312" y="995"/>
      <point x="412" y="1123"/>
      <point x="463" y="1171" type="qcurve"/>
      <point x="527" y="1231"/>
      <point x="658" y="1314"/>
      <point x="785" y="1364"/>
      <point x="904" y="1386"/>
      <point x="955" y="1386" type="qcurve"/>
      <point x="1012" y="1386" type="line"/>
      <point x="1012" y="1348" type="line"/>
      <point x="894" y="1343"/>
      <point x="706" y="1250"/>
      <point x="630" y="1175" type="qcurve"/>
      <point x="604" y="1149"/>
      <point x="543" y="1073"/>
      <point x="482" y="970"/>
      <point x="427" y="838"/>
      <point x="408" y="756" type="qcurve"/>
      <point x="551" y="857"/>
      <point x="697" y="857" type="qcurve"/>
      <point x="728" y="857"/>
      <point x="802" y="839"/>
      <point x="879" y="800"/>
      <point x="951" y="738"/>
      <point x="1006" y="649"/>
      <point x="1040" y="532"/>
    </contour>
    <contour>
      <point x="861" y="348" type="qcurve"/>
      <point x="861" y="427"/>
      <point x="831" y="579"/>
      <point x="768" y="698"/>
      <point x="669" y="771"/>
      <point x="600" y="771" type="qcurve"/>
      <point x="570" y="771"/>
      <point x="514" y="754"/>
      <point x="461" y="728"/>
      <point x="413" y="698"/>
      <point x="391" y="684" type="qcurve"/>
      <point x="383" y="617"/>
      <point x="372" y="509"/>
      <point x="372" y="467" type="qcurve"/>
      <point x="372" y="421"/>
      <point x="388" y="319"/>
      <point x="419" y="222"/>
      <point x="464" y="134"/>
      <point x="523" y="68"/>
      <point x="596" y="31"/>
      <point x="638" y="32" type="qcurve"/>
      <point x="682" y="34"/>
      <point x="763" y="75"/>
      <point x="825" y="155"/>
      <point x="861" y="272"/>
    </contour>
  </outline>
</glyph>
<glyph name="seven" format="2">
  <advance width="1224"/>
  <unicode hex="0037"/>
  <anchor x="612" y="1870" name="A"/>
  <anchor x="612" y="695" name="C"/>
  <anchor x="612" y="-100" name="L"/>
  <anchor x="612" y="1435" name="U"/>
  <outline>
    <contour>
      <point x="588" y="-30" type="line"/>
      <point x="478" y="-30" type="line"/>
      <point x="884" y="1192" type="line"/>
      <point x="511" y="1192" type="line"/>
      <point x="428" y="1192"/>
      <point x="326" y="1160"/>
      <point x="264" y="1112"/>
      <point x="229" y="1054"/>
      <point x="214" y="1027" type="qcurve"/>
      <point x="184" y="1037" type="line"/>
      <point x="316" y="1356" type="line"/>
      <point x="1040" y="1356" type="line"/>
      <point x="1040" y="1320" type="line"/>
    </contour>
  </outline>
</glyph>
<glyph name="nine" format="2">
  <advance width="1224"/>
  <unicode hex="0039"/>
  <anchor x="612" y="1870" name="A"/>
  <anchor x="612" y="695" name="C"/>
  <anchor x="612" y="-100" name="L"/>
  <anchor x="612" y="1435" name="U"/>
  <outline>
    <contour>
      <point x="1038" y="826" type="qcurve"/>
      <point x="1038" y="491"/>
      <point x="809" y="239" type="qcurve"/>
      <point x="796" y="224"/>
      <point x="745" y="172"/>
      <point x="673" y="112"/>
      <point x="580" y="51"/>
      <point x="469" y="1"/>
      <point x="340" y="-30"/>
      <point x="268" y="-30" type="qcurve"/>
      <point x="211" y="-30" type="line"/>
      <point x="211" y="8" type="line"/>
      <point x="237" y="9"/>
      <point x="323" y="20"/>
      <point x="425" y="54"/>
      <point x="533" y="116"/>
      <point x="581" y="167" type="qcurve"/>
      <point x="656" y="249"/>
      <point x="779" y="458"/>
      <point x="813" y="598" type="qcurve"/>
      <point x="736" y="545"/>
      <point x="595" y="495"/>
      <point x="529" y="495" type="qcurve"/>
      <point x="445" y="495"/>
      <point x="317" y="564"/>
      <point x="230" y="677"/>
      <point x="185" y="822"/>
      <point x="185" y="899" type="qcurve"/>
      <point x="185" y="1006"/>
      <point x="254" y="1185"/>
      <point x="370" y="1314"/>
      <point x="523" y="1386"/>
      <point x="606" y="1386" type="qcurve"/>
      <point x="675" y="1386"/>
      <point x="793" y="1339"/>
      <point x="889" y="1258"/>
      <point x="963" y="1149"/>
      <point x="1012" y="1025"/>
      <point x="1038" y="891"/>
    </contour>
    <contour>
      <point x="849" y="877" type="qcurve"/>
      <point x="849" y="986"/>
      <point x="799" y="1154"/>
      <point x="722" y="1266"/>
      <point x="628" y="1322"/>
      <point x="583" y="1320" type="qcurve"/>
      <point x="538" y="1318"/>
      <point x="458" y="1277"/>
      <point x="397" y="1198"/>
      <point x="362" y="1081"/>
      <point x="362" y="1003" type="qcurve"/>
      <point x="362" y="910"/>
      <point x="398" y="756"/>
      <point x="463" y="646"/>
      <point x="554" y="585"/>
      <point x="610" y="585" type="qcurve"/>
      <point x="640" y="585"/>
      <point x="708" y="601"/>
      <point x="771" y="627"/>
      <point x="820" y="657"/>
      <point x="830" y="670" type="qcurve"/>
      <point x="838" y="735"/>
      <point x="849" y="839"/>
    </contour>
  </outline>
</glyph>
<glyph name="colon" format="2">
  <advance width="572"/>
  <unicode hex="003A"/>
  <outline>
    <contour>
      <point x="398" y="85" type="qcurve"/>
      <point x="398" y="59"/>
      <point x="378" y="16"/>
      <point x="347" y="-14"/>
      <point x="307" y="-30"/>
      <point x="286" y="-30" type="qcurve"/>
      <point x="265" y="-30"/>
      <point x="224" y="-13"/>
      <point x="192" y="17"/>
      <point x="173" y="59"/>
      <point x="173" y="85" type="qcurve"/>
      <point x="173" y="112"/>
      <point x="195" y="154"/>
      <point x="228" y="181"/>
      <point x="268" y="195"/>
      <point x="286" y="195" type="qcurve"/>
      <point x="304" y="195"/>
      <point x="344" y="180"/>
      <point x="377" y="152"/>
      <point x="398" y="111"/>
    </contour>
    <contour>
      <point x="398" y="833" type="qcurve"/>
      <point x="398" y="808"/>
      <point x="379" y="768"/>
      <point x="347" y="739"/>
      <point x="308" y="724"/>
      <point x="288" y="724" type="qcurve"/>
      <point x="265" y="724"/>
      <point x="224" y="741"/>
      <point x="193" y="771"/>
      <point x="175" y="810"/>
      <point x="175" y="833" type="qcurve"/>
      <point x="175" y="857"/>
      <point x="193" y="898"/>
      <point x="224" y="927"/>
      <point x="265" y="944"/>
      <point x="288" y="944" type="qcurve"/>
      <point x="310" y="944"/>
      <point x="350" y="927"/>
      <point x="380" y="898"/>
      <point x="398" y="857"/>
    </contour>
  </outline>
</glyph>
<glyph name="semicolon" format="2">
  <advance width="572"/>
  <unicode hex="003B"/>
  <outline>
    <contour>
      <point x="469" y="-10" type="qcurve"/>
      <point x="469" y="-74"/>
      <point x="420" y="-179"/>
      <point x="338" y="-261"/>
      <point x="230" y="-322"/>
      <point x="171" y="-343" type="qcurve"/>
      <point x="171" y="-297" type="line"/>
      <point x="209" y="-287"/>
      <point x="286" y="-240"/>
      <point x="347" y="-174"/>
      <point x="386" y="-89"/>
      <point x="386" y="-39" type="qcurve"/>
      <point x="386" y="-28"/>
      <point x="378" y="0"/>
      <point x="365" y="0" type="qcurve"/>
      <point x="353" y="0"/>
      <point x="332" y="-9"/>
      <point x="311" y="-21"/>
      <point x="290" y="-30"/>
      <point x="278" y="-30" type="qcurve"/>
      <point x="257" y="-30"/>
      <point x="218" y="-17"/>
      <point x="189" y="11"/>
      <point x="171" y="53"/>
      <point x="171" y="83" type="qcurve"/>
      <point x="171" y="110"/>
      <point x="192" y="153"/>
      <point x="228" y="183"/>
      <point x="275" y="199"/>
      <point x="301" y="199" type="qcurve"/>
      <point x="330" y="199"/>
      <point x="390" y="172"/>
      <point x="438" y="120"/>
      <point x="469" y="42"/>
    </contour>
    <contour>
      <point x="423" y="835" type="qcurve"/>
      <point x="423" y="810"/>
      <point x="404" y="770"/>
      <point x="373" y="741"/>
      <point x="334" y="726"/>
      <point x="314" y="726" type="qcurve"/>
      <point x="291" y="726"/>
      <point x="250" y="743"/>
      <point x="219" y="773"/>
      <point x="201" y="812"/>
      <point x="201" y="835" type="qcurve"/>
      <point x="201" y="859"/>
      <point x="219" y="900"/>
      <point x="250" y="929"/>
      <point x="291" y="946"/>
      <point x="314" y="946" type="qcurve"/>
      <point x="336" y="946"/>
      <point x="375" y="929"/>
      <point x="405" y="900"/>
      <point x="423" y="859"/>
    </contour>
  </outline>
</glyph>
<glyph name="question" format="2">
  <advance width="910"/>
  <unicode hex="003F"/>
  <outline>
    <contour>
      <point x="551" y="85" type="qcurve"/>
      <point x="551" y="58"/>
      <point x="531" y="15"/>
      <point x="500" y="-13"/>
      <point x="461" y="-28"/>
      <point x="442" y="-28" type="qcurve"/>
      <point x="420" y="-28"/>
      <point x="379" y="-13"/>
      <point x="347" y="16"/>
      <point x="327" y="58"/>
      <point x="327" y="85" type="qcurve"/>
      <point x="327" y="109"/>
      <point x="346" y="150"/>
      <point x="378" y="180"/>
      <point x="419" y="197"/>
      <point x="442" y="197" type="qcurve"/>
      <point x="463" y="197"/>
      <point x="502" y="181"/>
      <point x="532" y="151"/>
      <point x="551" y="110"/>
    </contour>
    <contour>
      <point x="828" y="1072" type="qcurve"/>
      <point x="828" y="1015"/>
      <point x="796" y="917"/>
      <point x="749" y="834"/>
      <point x="695" y="767"/>
      <point x="672" y="741" type="qcurve"/>
      <point x="619" y="681"/>
      <point x="540" y="587"/>
      <point x="487" y="494"/>
      <point x="458" y="390"/>
      <point x="455" y="320" type="qcurve"/>
      <point x="412" y="320" type="line"/>
      <point x="415" y="380"/>
      <point x="433" y="490"/>
      <point x="466" y="597"/>
      <point x="515" y="703"/>
      <point x="548" y="758" type="qcurve"/>
      <point x="563" y="784"/>
      <point x="597" y="855"/>
      <point x="625" y="934"/>
      <point x="643" y="1018"/>
      <point x="643" y="1057" type="qcurve"/>
      <point x="643" y="1132"/>
      <point x="600" y="1237"/>
      <point x="532" y="1303"/>
      <point x="449" y="1332"/>
      <point x="410" y="1332" type="qcurve"/>
      <point x="362" y="1332"/>
      <point x="291" y="1308"/>
      <point x="243" y="1269"/>
      <point x="220" y="1222"/>
      <point x="220" y="1200" type="qcurve"/>
      <point x="220" y="1179"/>
      <point x="240" y="1133"/>
      <point x="264" y="1088"/>
      <point x="284" y="1046"/>
      <point x="284" y="1029" type="qcurve"/>
      <point x="284" y="1008"/>
      <point x="269" y="975"/>
      <point x="245" y="953"/>
      <point x="216" y="942"/>
      <point x="203" y="942" type="qcurve"/>
      <point x="192" y="942"/>
      <point x="155" y="955"/>
      <point x="119" y="990"/>
      <point x="92" y="1051"/>
      <point x="92" y="1100" type="qcurve"/>
      <point x="92" y="1156"/>
      <point x="139" y="1260"/>
      <point x="231" y="1340"/>
      <point x="366" y="1388"/>
      <point x="453" y="1388" type="qcurve"/>
      <point x="534" y="1388"/>
      <point x="672" y="1345"/>
      <point x="772" y="1263"/>
      <point x="828" y="1146"/>
    </contour>
  </outline>
</glyph>
<glyph name="E" format="2">
  <advance width="1251"/>
  <unicode hex="0045"/>
  <outline>
    <contour>
      <point x="1088" y="0" type="line"/>
      <point x="43" y="0" type="line"/>
      <point x="43" y="38" type="line"/>
      <point x="90" y="38" type="line"/>
      <point x="99" y="38"/>
      <point x="126" y="41"/>
      <point x="157" y="48"/>
      <point x="187" y="60"/>
      <point x="197" y="69" type="qcurve"/>
      <point x="207" y="78"/>
      <point x="222" y="100"/>
      <point x="232" y="138"/>
      <point x="237" y="196"/>
      <point x="237" y="241" type="qcurve"/>
      <point x="237" y="1121" type="line"/>
      <point x="237" y="1187"/>
      <point x="223" y="1266"/>
      <point x="211" y="1279" type="qcurve"/>
      <point x="175" y="1320"/>
      <point x="90" y="1320" type="qcurve"/>
      <point x="43" y="1320" type="line"/>
      <point x="43" y="1356" type="line"/>
      <point x="1088" y="1356" type="line"/>
      <point x="1104" y="1061" type="line"/>
      <point x="1064" y="1061" type="line"/>
      <point x="1057" y="1090"/>
      <point x="1046" y="1145"/>
      <point x="1027" y="1195"/>
      <point x="997" y="1236"/>
      <point x="944" y="1266"/>
      <point x="863" y="1283"/>
      <point x="803" y="1283" type="qcurve"/>
      <point x="427" y="1283" type="line"/>
      <point x="427" y="747" type="line"/>
      <point x="726" y="747" type="line"/>
      <point x="795" y="747"/>
      <point x="874" y="769"/>
      <point x="916" y="817"/>
      <point x="933" y="891"/>
      <point x="940" y="942" type="qcurve"/>
      <point x="978" y="942" type="line"/>
      <point x="978" y="471" type="line"/>
      <point x="940" y="471" type="line"/>
      <point x="933" y="524"/>
      <point x="915" y="600"/>
      <point x="873" y="649"/>
      <point x="795" y="672"/>
      <point x="726" y="672" type="qcurve"/>
      <point x="427" y="672" type="line"/>
      <point x="427" y="164" type="line"/>
      <point x="427" y="137"/>
      <point x="446" y="96"/>
      <point x="494" y="73"/>
      <point x="542" y="73" type="qcurve"/>
      <point x="771" y="73" type="line"/>
      <point x="826" y="73"/>
      <point x="910" y="82"/>
      <point x="977" y="104"/>
      <point x="1030" y="143"/>
      <point x="1081" y="202"/>
      <point x="1133" y="285"/>
      <point x="1165" y="341" type="qcurve"/>
      <point x="1206" y="341" type="line"/>
    </contour>
  </outline>
</glyph>
<glyph name="L" format="2">
  <advance width="1251"/>
  <unicode hex="004C"/>
  <outline>
    <contour>
      <point x="1092" y="0" type="line"/>
      <point x="38" y="0" type="line"/>
      <point x="38" y="38" type="line"/>
      <point x="82" y="38"/>
      <point x="156" y="48"/>
      <point x="208" y="82"/>
      <point x="237" y="149"/>
      <point x="237" y="207" type="qcurve"/>
      <point x="237" y="1149" type="line"/>
      <point x="237" y="1207"/>
      <point x="208" y="1274"/>
      <point x="156" y="1309"/>
      <point x="82" y="1318"/>
      <point x="38" y="1318" type="qcurve"/>
      <point x="38" y="1356" type="line"/>
      <point x="627" y="1356" type="line"/>
      <point x="627" y="1318" type="line"/>
      <point x="582" y="1318"/>
      <point x="509" y="1309"/>
      <point x="456" y="1274"/>
      <point x="427" y="1207"/>
      <point x="427" y="1149" type="qcurve"/>
      <point x="427" y="256" type="line"/>
      <point x="427" y="198"/>
      <point x="447" y="131"/>
      <point x="489" y="97"/>
      <point x="553" y="87"/>
      <point x="598" y="87" type="qcurve"/>
      <point x="735" y="87" type="line"/>
      <point x="797" y="87"/>
      <point x="886" y="91"/>
      <point x="952" y="104"/>
      <point x="1002" y="127"/>
      <point x="1023" y="146" type="qcurve"/>
      <point x="1049" y="168"/>
      <point x="1088" y="211"/>
      <point x="1123" y="263"/>
      <point x="1156" y="329"/>
      <point x="1175" y="374" type="qcurve"/>
      <point x="1210" y="369" type="line"/>
    </contour>
  </outline>
</glyph>
<glyph name="N" format="2">
  <advance width="1480"/>
  <unicode hex="004E"/>
  <outline>
    <contour>
      <point x="1403" y="1320" type="line"/>
      <point x="1360" y="1320"/>
      <point x="1298" y="1295"/>
      <point x="1281" y="1269" type="qcurve"/>
      <point x="1260" y="1235"/>
      <point x="1260" y="1121" type="qcurve"/>
      <point x="1260" y="-22" type="line"/>
      <point x="1224" y="-22" type="line"/>
      <point x="327" y="1070" type="line"/>
      <point x="327" y="237" type="line"/>
      <point x="327" y="112"/>
      <point x="355" y="79" type="qcurve"/>
      <point x="392" y="38"/>
      <point x="474" y="38" type="qcurve"/>
      <point x="521" y="38" type="line"/>
      <point x="521" y="0" type="line"/>
      <point x="47" y="0" type="line"/>
      <point x="47" y="38" type="line"/>
      <point x="94" y="38" type="line"/>
      <point x="139" y="38"/>
      <point x="200" y="62"/>
      <point x="217" y="90" type="qcurve"/>
      <point x="229" y="106"/>
      <point x="241" y="177"/>
      <point x="241" y="237" type="qcurve"/>
      <point x="241" y="1179" type="line"/>
      <point x="231" y="1190"/>
      <point x="202" y="1237"/>
      <point x="151" y="1284"/>
      <point x="72" y="1320"/>
      <point x="12" y="1320" type="qcurve"/>
      <point x="12" y="1356" type="line"/>
      <point x="343" y="1356" type="line"/>
      <point x="1171" y="339" type="line"/>
      <point x="1171" y="1121" type="line"/>
      <point x="1171" y="1250"/>
      <point x="1143" y="1277" type="qcurve"/>
      <point x="1106" y="1320"/>
      <point x="1025" y="1320" type="qcurve"/>
      <point x="980" y="1320" type="line"/>
      <point x="980" y="1356" type="line"/>
      <point x="1450" y="1356" type="line"/>
      <point x="1450" y="1320" type="line"/>
    </contour>
  </outline>
</glyph>
<glyph name="grave" format="2">
  <advance width="702"/>
  <unicode hex="0060"/>
  <outline>
    <contour>
      <point x="384" y="1042" type="line"/>
      <point x="89" y="1230" type="line"/>
      <point x="76" y="1238"/>
      <point x="45" y="1257"/>
      <point x="18" y="1280"/>
      <point x="0" y="1305"/>
      <point x="0" y="1318" type="qcurve"/>
      <point x="0" y="1354"/>
      <point x="34" y="1395"/>
      <point x="64" y="1395" type="qcurve"/>
      <point x="90" y="1395"/>
      <point x="155" y="1357"/>
      <point x="183" y="1328" type="qcurve"/>
      <point x="467" y="1042" type="line"/>
    </contour>
  </outline>
</glyph>
<glyph name="l" format="2">
  <advance width="570"/>
  <unicode hex="006C"/>
  <outline>
    <contour>
      <point x="77" y="0" type="line"/>
      <point x="77" y="38" type="line"/>
      <point x="123" y="38"/>
      <point x="167" y="48"/>
      <point x="183" y="69" type="qcurve"/>
      <point x="189" y="77"/>
      <point x="199" y="98"/>
      <point x="207" y="130"/>
      <point x="211" y="175"/>
      <point x="211" y="207" type="qcurve"/>
      <point x="211" y="1038" type="line"/>
      <point x="211" y="1116"/>
      <point x="208" y="1206"/>
      <point x="201" y="1254"/>
      <point x="191" y="1272"/>
      <point x="183" y="1279" type="qcurve"/>
      <point x="174" y="1285"/>
      <point x="154" y="1292"/>
      <point x="142" y="1292" type="qcurve"/>
      <point x="130" y="1292"/>
      <point x="98" y="1285"/>
      <point x="77" y="1277" type="qcurve"/>
      <point x="59" y="1313" type="line"/>
      <point x="335" y="1423" type="line"/>
      <point x="378" y="1423" type="line"/>
      <point x="378" y="207" type="line"/>
      <point x="378" y="177"/>
      <point x="381" y="134"/>
      <point x="387" y="103"/>
      <point x="397" y="82"/>
      <point x="404" y="73" type="qcurve"/>
      <point x="411" y="64"/>
      <point x="429" y="51"/>
      <point x="456" y="42"/>
      <point x="497" y="38"/>
      <point x="526" y="38" type="qcurve"/>
      <point x="526" y="0" type="line"/>
    </contour>
  </outline>
</glyph>
<glyph name="t" format="2">
  <advance width="570"/>
  <unicode hex="0074"/>
  <outline>
    <contour>
      <point x="572" y="167" type="line"/>
      <point x="556" y="116"/>
      <point x="502" y="42"/>
      <point x="440" y="-6"/>
      <point x="373" y="-30"/>
      <point x="343" y="-30" type="qcurve"/>
      <point x="310" y="-30"/>
      <point x="246" y="-12"/>
      <point x="194" y="41"/>
      <point x="162" y="136"/>
      <point x="162" y="213" type="qcurve"/>
      <point x="162" y="848" type="line"/>
      <point x="15" y="848" type="line"/>
      <point x="15" y="879" type="line"/>
      <point x="56" y="894"/>
      <point x="147" y="969"/>
      <point x="186" y="1015" type="qcurve"/>
      <point x="200" y="1032"/>
      <point x="222" y="1062"/>
      <point x="248" y="1105"/>
      <point x="278" y="1169"/>
      <point x="299" y="1218" type="qcurve"/>
      <point x="329" y="1218" type="line"/>
      <point x="329" y="916" type="line"/>
      <point x="544" y="916" type="line"/>
      <point x="544" y="848" type="line"/>
      <point x="329" y="848" type="line"/>
      <point x="329" y="237" type="line"/>
      <point x="329" y="192"/>
      <point x="343" y="134"/>
      <point x="368" y="100"/>
      <point x="401" y="86"/>
      <point x="420" y="85" type="qcurve"/>
      <point x="457" y="83"/>
      <point x="514" y="128"/>
      <point x="532" y="167" type="qcurve"/>
    </contour>
  </outline>
</glyph>
<glyph name="v" format="2">
  <advance width="1025"/>
  <unicode hex="0076"/>
  <outline>
    <contour>
      <point x="1008" y="879" type="line"/>
      <point x="981" y="877"/>
      <point x="946" y="868"/>
      <point x="933" y="859" type="qcurve"/>
      <point x="916" y="842"/>
      <point x="886" y="794"/>
      <point x="871" y="758" type="qcurve"/>
      <point x="546" y="-30" type="line"/>
      <point x="504" y="-30" type="line"/>
      <point x="175" y="747" type="line"/>
      <point x="165" y="772"/>
      <point x="145" y="808"/>
      <point x="123" y="834"/>
      <point x="99" y="854"/>
      <point x="85" y="863" type="qcurve"/>
      <point x="76" y="868"/>
      <point x="42" y="874"/>
      <point x="15" y="879" type="qcurve"/>
      <point x="15" y="916" type="line"/>
      <point x="449" y="916" type="line"/>
      <point x="449" y="879" type="line"/>
      <point x="420" y="879" type="line"/>
      <point x="401" y="879"/>
      <point x="369" y="872"/>
      <point x="361" y="861" type="qcurve"/>
      <point x="341" y="840"/>
      <point x="338" y="776"/>
      <point x="361" y="726" type="qcurve"/>
      <point x="574" y="220" type="line"/>
      <point x="788" y="747" type="line"/>
      <point x="806" y="789"/>
      <point x="816" y="839"/>
      <point x="805" y="856" type="qcurve"/>
      <point x="802" y="860"/>
      <point x="791" y="868"/>
      <point x="770" y="875"/>
      <point x="735" y="879"/>
      <point x="707" y="879" type="qcurve"/>
      <point x="707" y="916" type="line"/>
      <point x="1008" y="916" type="line"/>
    </contour>
  </outline>
</glyph>
<glyph name="z" format="2">
  <advance width="910"/>
  <unicode hex="007A"/>
  <outline>
    <contour>
      <point x="262" y="67" type="line"/>
      <point x="598" y="67" type="line"/>
      <point x="701" y="67"/>
      <point x="737" y="85" type="qcurve"/>
      <point x="754" y="93"/>
      <point x="780" y="109"/>
      <point x="801" y="146"/>
      <point x="819" y="217"/>
      <point x="826" y="280" type="qcurve"/>
      <point x="861" y="280" type="line"/>
      <point x="850" y="0" type="line"/>
      <point x="41" y="0" type="line"/>
      <point x="41" y="38" type="line"/>
      <point x="651" y="848" type="line"/>
      <point x="348" y="848" type="line"/>
      <point x="301" y="848"/>
      <point x="238" y="839"/>
      <point x="220" y="833" type="qcurve"/>
      <point x="191" y="820"/>
      <point x="149" y="744"/>
      <point x="141" y="662" type="qcurve"/>
      <point x="102" y="662" type="line"/>
      <point x="109" y="916" type="line"/>
      <point x="877" y="916" type="line"/>
      <point x="877" y="879" type="line"/>
    </contour>
  </outline>
</glyph>
<glyph name="bar" format="2">
  <advance width="612"/>
  <unicode hex="007C"/>
  <outline>
    <contour>
      <point x="255" y="-440" type="line"/>
      <point x="255" y="1450" type="line"/>
      <point x="357" y="1450" type="line"/>
      <point x="357" y="-440" type="line"/>
    </contour>
  </outline>
</glyph>
<glyph name="braceright" format="2">
  <advance width="980"/>
  <unicode hex="007D"/>
  <outline>
    <contour>
      <point x="761" y="465" type="line"/>
      <point x="725" y="460"/>
      <point x="644" y="427"/>
      <point x="576" y="371"/>
      <point x="532" y="294"/>
      <point x="532" y="246" type="qcurve"/>
      <point x="532" y="213"/>
      <point x="546" y="140"/>
      <point x="563" y="63"/>
      <point x="577" y="-17"/>
      <point x="577" y="-57" type="qcurve"/>
      <point x="577" y="-132"/>
      <point x="515" y="-266"/>
      <point x="411" y="-369"/>
      <point x="277" y="-435"/>
      <point x="205" y="-442" type="qcurve"/>
      <point x="205" y="-406" type="line"/>
      <point x="254" y="-393"/>
      <point x="336" y="-349"/>
      <point x="395" y="-283"/>
      <point x="427" y="-196"/>
      <point x="427" y="-141" type="qcurve"/>
      <point x="427" y="-106"/>
      <point x="414" y="-38"/>
      <point x="397" y="29"/>
      <point x="384" y="97"/>
      <point x="384" y="132" type="qcurve"/>
      <point x="384" y="199"/>
      <point x="425" y="313"/>
      <point x="498" y="403"/>
      <point x="598" y="470"/>
      <point x="658" y="491" type="qcurve"/>
      <point x="599" y="512"/>
      <point x="498" y="579"/>
      <point x="425" y="668"/>
      <point x="384" y="779"/>
      <point x="384" y="846" type="qcurve"/>
      <point x="384" y="882"/>
      <point x="397" y="951"/>
      <point x="414" y="1019"/>
      <point x="427" y="1088"/>
      <point x="427" y="1123" type="qcurve"/>
      <point x="427" y="1178"/>
      <point x="395" y="1265"/>
      <point x="336" y="1330"/>
      <point x="254" y="1375"/>
      <point x="205" y="1388" type="qcurve"/>
      <point x="205" y="1423" type="line"/>
      <point x="275" y="1415"/>
      <point x="408" y="1352"/>
      <point x="513" y="1253"/>
      <point x="577" y="1125"/>
      <point x="577" y="1053" type="qcurve"/>
      <point x="577" y="1011"/>
      <point x="563" y="926"/>
      <point x="546" y="843"/>
      <point x="532" y="766"/>
      <point x="532" y="731" type="qcurve"/>
      <point x="532" y="684"/>
      <point x="577" y="608"/>
      <point x="645" y="554"/>
      <point x="725" y="521"/>
      <point x="761" y="517" type="qcurve"/>
    </contour>
  </outline>
</glyph>
<glyph name="asciitilde" format="2">
  <advance width="1115"/>
  <unicode hex="007E"/>
  <outline>
    <contour>
      <point x="1076" y="630" type="line"/>
      <point x="1055" y="590"/>
      <point x="999" y="512"/>
      <point x="928" y="450"/>
      <point x="844" y="412"/>
      <point x="794" y="412" type="qcurve"/>
      <point x="735" y="412"/>
      <point x="611" y="458"/>
      <point x="487" y="514"/>
      <point x="368" y="560"/>
      <point x="314" y="560" type="qcurve"/>
      <point x="272" y="560"/>
      <point x="207" y="524"/>
      <point x="155" y="468"/>
      <point x="113" y="402"/>
      <point x="94" y="371" type="qcurve"/>
      <point x="39" y="444" type="line"/>
      <point x="63" y="487"/>
      <point x="116" y="571"/>
      <point x="184" y="638"/>
      <point x="268" y="680"/>
      <point x="323" y="680" type="qcurve"/>
      <point x="358" y="680"/>
      <point x="442" y="657"/>
      <point x="531" y="624"/>
      <point x="621" y="584"/>
      <point x="704" y="551"/>
      <point x="777" y="528"/>
      <point x="805" y="528" type="qcurve"/>
      <point x="840" y="528"/>
      <point x="905" y="561"/>
      <point x="960" y="613"/>
      <point x="1004" y="676"/>
      <point x="1019" y="705" type="qcurve"/>
    </contour>
  </outline>
</glyph>
<glyph name="sterling" format="2">
  <advance width="1025"/>
  <unicode hex="00A3"/>
  <outline>
    <contour>
      <point x="299" y="171" type="qcurve"/>
      <point x="289" y="179"/>
      <point x="245" y="199"/>
      <point x="213" y="199" type="qcurve"/>
      <point x="165" y="199"/>
      <point x="118" y="150"/>
      <point x="118" y="113" type="qcurve"/>
      <point x="118" y="71"/>
      <point x="159" y="36"/>
      <point x="186" y="36" type="qcurve"/>
      <point x="226" y="36"/>
      <point x="283" y="109"/>
    </contour>
    <contour>
      <point x="978" y="303" type="line"/>
      <point x="971" y="246"/>
      <point x="929" y="129"/>
      <point x="858" y="35"/>
      <point x="756" y="-24"/>
      <point x="690" y="-24" type="qcurve"/>
      <point x="643" y="-24"/>
      <point x="569" y="-3"/>
      <point x="497" y="39"/>
      <point x="418" y="99"/>
      <point x="365" y="138" type="qcurve"/>
      <point x="355" y="118"/>
      <point x="322" y="63"/>
      <point x="276" y="12"/>
      <point x="215" y="-24"/>
      <point x="177" y="-24" type="qcurve"/>
      <point x="145" y="-24"/>
      <point x="101" y="-1"/>
      <point x="73" y="36"/>
      <point x="61" y="82"/>
      <point x="61" y="105" type="qcurve"/>
      <point x="61" y="153"/>
      <point x="96" y="213"/>
      <point x="147" y="248"/>
      <point x="203" y="260"/>
      <point x="224" y="260" type="qcurve"/>
      <point x="256" y="260"/>
      <point x="296" y="255"/>
      <point x="310" y="252" type="qcurve"/>
      <point x="318" y="330"/>
      <point x="302" y="539"/>
      <point x="292" y="660" type="qcurve"/>
      <point x="98" y="660" type="line"/>
      <point x="98" y="755" type="line"/>
      <point x="292" y="755" type="line"/>
      <point x="287" y="831"/>
      <point x="278" y="928"/>
      <point x="278" y="954" type="qcurve"/>
      <point x="278" y="1065"/>
      <point x="347" y="1228"/>
      <point x="455" y="1335"/>
      <point x="587" y="1386"/>
      <point x="651" y="1386" type="qcurve"/>
      <point x="709" y="1386"/>
      <point x="802" y="1351"/>
      <point x="868" y="1293"/>
      <point x="903" y="1219"/>
      <point x="903" y="1181" type="qcurve"/>
      <point x="903" y="1166"/>
      <point x="890" y="1136"/>
      <point x="868" y="1113"/>
      <point x="841" y="1098"/>
      <point x="826" y="1098" type="qcurve"/>
      <point x="794" y="1098"/>
      <point x="747" y="1153"/>
      <point x="747" y="1215" type="qcurve"/>
      <point x="747" y="1237"/>
      <point x="733" y="1279"/>
      <point x="703" y="1311"/>
      <point x="657" y="1330"/>
      <point x="625" y="1330" type="qcurve"/>
      <point x="586" y="1330"/>
      <point x="520" y="1302"/>
      <point x="471" y="1237"/>
      <point x="444" y="1129"/>
      <point x="444" y="1049" type="qcurve"/>
      <point x="444" y="1016"/>
      <point x="450" y="922"/>
      <point x="457" y="832"/>
      <point x="464" y="763"/>
      <point x="465" y="755" type="qcurve"/>
      <point x="724" y="755" type="line"/>
      <point x="724" y="660" type="line"/>
      <point x="465" y="660" type="line"/>
      <point x="465" y="642"/>
      <point x="468" y="562"/>
      <point x="459" y="449"/>
      <point x="433" y="310"/>
      <point x="404" y="235" type="qcurve"/>
      <point x="453" y="219"/>
      <point x="540" y="189"/>
      <point x="619" y="166"/>
      <point x="693" y="152"/>
      <point x="729" y="152" type="qcurve"/>
      <point x="789" y="152"/>
      <point x="866" y="186"/>
      <point x="912" y="236"/>
      <point x="934" y="292"/>
      <point x="940" y="314" type="qcurve"/>
    </contour>
  </outline>
</glyph>
<glyph name="yen" format="2">
  <advance width="1025"/>
  <unicode hex="00A5"/>
  <outline>
    <contour>
      <point x="598" y="353" type="line"/>
      <point x="598" y="244" type="line"/>
      <point x="598" y="187"/>
      <point x="604" y="104"/>
      <point x="623" y="81" type="qcurve"/>
      <point x="641" y="60"/>
      <point x="704" y="41"/>
      <point x="728" y="41" type="qcurve"/>
      <point x="769" y="41" type="line"/>
      <point x="769" y="0" type="line"/>
      <point x="252" y="0" type="line"/>
      <point x="252" y="41" type="line"/>
      <point x="286" y="41" type="line"/>
      <point x="320" y="41"/>
      <point x="383" y="57"/>
      <point x="406" y="83" type="qcurve"/>
      <point x="414" y="92"/>
      <point x="422" y="125"/>
      <point x="425" y="168"/>
      <point x="425" y="193" type="qcurve"/>
      <point x="425" y="353" type="line"/>
      <point x="19" y="353" type="line"/>
      <point x="19" y="425" type="line"/>
      <point x="425" y="425" type="line"/>
      <point x="425" y="570" type="line"/>
      <point x="412" y="605" type="line"/>
      <point x="19" y="605" type="line"/>
      <point x="19" y="678" type="line"/>
      <point x="378" y="678" type="line"/>
      <point x="166" y="1175" type="line"/>
      <point x="147" y="1218"/>
      <point x="112" y="1275"/>
      <point x="92" y="1289" type="qcurve"/>
      <point x="75" y="1304"/>
      <point x="30" y="1318"/>
      <point x="2" y="1320" type="qcurve"/>
      <point x="2" y="1356" type="line"/>
      <point x="446" y="1356" type="line"/>
      <point x="446" y="1320" type="line"/>
      <point x="410" y="1318"/>
      <point x="367" y="1309"/>
      <point x="346" y="1295" type="qcurve"/>
      <point x="329" y="1284"/>
      <point x="321" y="1260"/>
      <point x="326" y="1235"/>
      <point x="338" y="1210"/>
      <point x="343" y="1198" type="qcurve"/>
      <point x="556" y="678" type="line"/>
      <point x="769" y="1183" type="line"/>
      <point x="774" y="1195"/>
      <point x="785" y="1227"/>
      <point x="790" y="1260"/>
      <point x="783" y="1289"/>
      <point x="769" y="1299" type="qcurve"/>
      <point x="751" y="1311"/>
      <point x="707" y="1318"/>
      <point x="678" y="1320" type="qcurve"/>
      <point x="678" y="1356" type="line"/>
      <point x="1025" y="1356" type="line"/>
      <point x="1025" y="1320" type="line"/>
      <point x="994" y="1320"/>
      <point x="951" y="1309"/>
      <point x="936" y="1295" type="qcurve"/>
      <point x="916" y="1278"/>
      <point x="874" y="1214"/>
      <point x="852" y="1165" type="qcurve"/>
      <point x="634" y="678" type="line"/>
      <point x="1005" y="678" type="line"/>
      <point x="1005" y="605" type="line"/>
      <point x="605" y="605" type="line"/>
      <point x="598" y="587" type="line"/>
      <point x="598" y="425" type="line"/>
      <point x="1005" y="425" type="line"/>
      <point x="1005" y="353" type="line"/>
    </contour>
  </outline>
</glyph>
<glyph name="dieresis" format="2">
  <advance width="613"/>
  <unicode hex="00A8"/>
  <outline>
    <contour>
      <point x="203" y="1228" type="qcurve"/>
      <point x="203" y="1207"/>
      <point x="187" y="1170"/>
      <point x="158" y="1142"/>
      <point x="121" y="1125"/>
      <point x="100" y="1125" type="qcurve"/>
      <point x="80" y="1125"/>
      <point x="44" y="1142"/>
      <point x="16" y="1171"/>
      <point x="0" y="1208"/>
      <point x="0" y="1228" type="qcurve"/>
      <point x="0" y="1247"/>
      <point x="17" y="1284"/>
      <point x="45" y="1312"/>
      <point x="81" y="1330"/>
      <point x="100" y="1330" type="qcurve"/>
      <point x="121" y="1330"/>
      <point x="158" y="1314"/>
      <point x="187" y="1286"/>
      <point x="203" y="1249"/>
    </contour>
    <contour>
      <point x="613" y="1228" type="qcurve"/>
      <point x="613" y="1207"/>
      <point x="597" y="1170"/>
      <point x="568" y="1142"/>
      <point x="531" y="1125"/>
      <point x="510" y="1125" type="qcurve"/>
      <point x="489" y="1125"/>
      <point x="452" y="1142"/>
      <point x="424" y="1171"/>
      <point x="408" y="1208"/>
      <point x="408" y="1228" type="qcurve"/>
      <point x="408" y="1247"/>
      <point x="426" y="1284"/>
      <point x="454" y="1312"/>
      <point x="491" y="1330"/>
      <point x="510" y="1330" type="qcurve"/>
      <point x="531" y="1330"/>
      <point x="568" y="1314"/>
      <point x="597" y="1286"/>
      <point x="613" y="1249"/>
    </contour>
  </outline>
</glyph>
<glyph name="copyright" format="2">
  <advance width="1557"/>
  <unicode hex="00A9"/>
  <outline>
    <contour>
      <point x="1166" y="429" type="line"/>
      <point x="1097" y="329"/>
      <point x="909" y="227"/>
      <point x="782" y="227" type="qcurve"/>
      <point x="688" y="227"/>
      <point x="520" y="292"/>
      <point x="394" y="409"/>
      <point x="320" y="573"/>
      <point x="320" y="672" type="qcurve"/>
      <point x="320" y="783"/>
      <point x="403" y="956"/>
      <point x="541" y="1074"/>
      <point x="721" y="1136"/>
      <point x="818" y="1136" type="qcurve"/>
      <point x="866" y="1136"/>
      <point x="936" y="1122"/>
      <point x="988" y="1104"/>
      <point x="1025" y="1090"/>
      <point x="1040" y="1090" type="qcurve"/>
      <point x="1054" y="1090"/>
      <point x="1071" y="1099"/>
      <point x="1081" y="1113"/>
      <point x="1087" y="1129"/>
      <point x="1090" y="1136" type="qcurve"/>
      <point x="1130" y="1136" type="line"/>
      <point x="1149" y="856" type="line"/>
      <point x="1112" y="856" type="line"/>
      <point x="1102" y="885"/>
      <point x="1064" y="965"/>
      <point x="995" y="1039"/>
      <point x="887" y="1090"/>
      <point x="808" y="1090" type="qcurve"/>
      <point x="732" y="1090"/>
      <point x="612" y="1035"/>
      <point x="529" y="933"/>
      <point x="485" y="790"/>
      <point x="485" y="702" type="qcurve"/>
      <point x="485" y="597"/>
      <point x="533" y="442"/>
      <point x="621" y="340"/>
      <point x="743" y="290"/>
      <point x="818" y="290" type="qcurve"/>
      <point x="1015" y="290"/>
      <point x="1130" y="451" type="qcurve"/>
    </contour>
    <contour>
      <point x="1427" y="678" type="qcurve"/>
      <point x="1427" y="769"/>
      <point x="1381" y="936"/>
      <point x="1296" y="1080"/>
      <point x="1178" y="1197"/>
      <point x="1034" y="1281"/>
      <point x="868" y="1326"/>
      <point x="779" y="1326" type="qcurve"/>
      <point x="699" y="1326"/>
      <point x="542" y="1286"/>
      <point x="398" y="1208"/>
      <point x="274" y="1096"/>
      <point x="184" y="952"/>
      <point x="132" y="778"/>
      <point x="132" y="678" type="qcurve"/>
      <point x="132" y="585"/>
      <point x="179" y="417"/>
      <point x="265" y="273"/>
      <point x="384" y="157"/>
      <point x="528" y="76"/>
      <point x="691" y="32"/>
      <point x="779" y="32" type="qcurve"/>
      <point x="865" y="32"/>
      <point x="1028" y="75"/>
      <point x="1172" y="156"/>
      <point x="1292" y="271"/>
      <point x="1379" y="415"/>
      <point x="1427" y="584"/>
    </contour>
    <contour>
      <point x="1490" y="678" type="qcurve"/>
      <point x="1490" y="528"/>
      <point x="1378" y="269"/>
      <point x="1185" y="77"/>
      <point x="926" y="-32"/>
      <point x="779" y="-32" type="qcurve"/>
      <point x="632" y="-32"/>
      <point x="374" y="76"/>
      <point x="181" y="266"/>
      <point x="69" y="526"/>
      <point x="69" y="678" type="qcurve"/>
      <point x="69" y="789"/>
      <point x="125" y="980"/>
      <point x="224" y="1138"/>
      <point x="360" y="1260"/>
      <point x="517" y="1344"/>
      <point x="691" y="1388"/>
      <point x="779" y="1388" type="qcurve"/>
      <point x="879" y="1388"/>
      <point x="1062" y="1338"/>
      <point x="1220" y="1247"/>
      <point x="1349" y="1118"/>
      <point x="1440" y="960"/>
      <point x="1490" y="777"/>
    </contour>
  </outline>
</glyph>
<glyph name="ordfeminine" format="2">
  <advance width="653"/>
  <unicode hex="00AA"/>
  <outline>
    <contour>
      <point x="418" y="1136" type="line"/>
      <point x="334" y="1108"/>
      <point x="237" y="1062"/>
      <point x="187" y="1022"/>
      <point x="173" y="983"/>
      <point x="173" y="963" type="qcurve"/>
      <point x="173" y="922"/>
      <point x="232" y="865"/>
      <point x="274" y="863" type="qcurve"/>
      <point x="301" y="861"/>
      <point x="373" y="895"/>
      <point x="418" y="925" type="qcurve"/>
    </contour>
    <contour>
      <point x="59" y="654" type="line"/>
      <point x="59" y="698" type="line"/>
      <point x="639" y="698" type="line"/>
      <point x="639" y="654" type="line"/>
    </contour>
    <contour>
      <point x="651" y="885" type="line"/>
      <point x="571" y="796"/>
      <point x="495" y="796" type="qcurve"/>
      <point x="479" y="796"/>
      <point x="451" y="804"/>
      <point x="430" y="825"/>
      <point x="418" y="859"/>
      <point x="418" y="885" type="qcurve"/>
      <point x="374" y="857"/>
      <point x="317" y="822"/>
      <point x="274" y="803"/>
      <point x="235" y="796"/>
      <point x="209" y="796" type="qcurve"/>
      <point x="174" y="796"/>
      <point x="116" y="816"/>
      <point x="74" y="853"/>
      <point x="51" y="904"/>
      <point x="51" y="936" type="qcurve"/>
      <point x="51" y="966"/>
      <point x="78" y="1022"/>
      <point x="157" y="1078"/>
      <point x="301" y="1137"/>
      <point x="418" y="1171" type="qcurve"/>
      <point x="418" y="1192" type="line"/>
      <point x="418" y="1272"/>
      <point x="357" y="1337"/>
      <point x="294" y="1337" type="qcurve"/>
      <point x="249" y="1337"/>
      <point x="198" y="1298"/>
      <point x="195" y="1269" type="qcurve"/>
      <point x="197" y="1234" type="line"/>
      <point x="199" y="1207"/>
      <point x="164" y="1177"/>
      <point x="138" y="1177" type="qcurve"/>
      <point x="108" y="1177"/>
      <point x="77" y="1207"/>
      <point x="77" y="1234" type="qcurve"/>
      <point x="77" y="1266"/>
      <point x="117" y="1317"/>
      <point x="184" y="1352"/>
      <point x="271" y="1371"/>
      <point x="318" y="1371" type="qcurve"/>
      <point x="389" y="1371"/>
      <point x="476" y="1345"/>
      <point x="523" y="1297"/>
      <point x="538" y="1228"/>
      <point x="538" y="1185" type="qcurve"/>
      <point x="538" y="997" type="line"/>
      <point x="538" y="959"/>
      <point x="539" y="909"/>
      <point x="542" y="901" type="qcurve"/>
      <point x="544" y="884"/>
      <point x="558" y="871"/>
      <point x="574" y="871" type="qcurve"/>
      <point x="580" y="871"/>
      <point x="591" y="874"/>
      <point x="607" y="884"/>
      <point x="632" y="903"/>
      <point x="651" y="920" type="qcurve"/>
    </contour>
  </outline>
</glyph>
<glyph name="registered" format="2">
  <advance width="1557"/>
  <unicode hex="00AE"/>
  <outline>
    <contour>
      <point x="1490" y="678" type="qcurve"/>
      <point x="1490" y="528"/>
      <point x="1378" y="269"/>
      <point x="1185" y="77"/>
      <point x="926" y="-32"/>
      <point x="779" y="-32" type="qcurve"/>
      <point x="632" y="-32"/>
      <point x="374" y="76"/>
      <point x="181" y="266"/>
      <point x="69" y="526"/>
      <point x="69" y="678" type="qcurve"/>
      <point x="69" y="789"/>
      <point x="125" y="980"/>
      <point x="224" y="1138"/>
      <point x="360" y="1260"/>
      <point x="517" y="1344"/>
      <point x="691" y="1388"/>
      <point x="779" y="1388" type="qcurve"/>
      <point x="879" y="1388"/>
      <point x="1062" y="1338"/>
      <point x="1220" y="1247"/>
      <point x="1349" y="1118"/>
      <point x="1440" y="960"/>
      <point x="1490" y="777"/>
    </contour>
    <contour>
      <point x="1427" y="678" type="qcurve"/>
      <point x="1427" y="769"/>
      <point x="1381" y="936"/>
      <point x="1296" y="1080"/>
      <point x="1178" y="1197"/>
      <point x="1034" y="1281"/>
      <point x="868" y="1326"/>
      <point x="779" y="1326" type="qcurve"/>
      <point x="699" y="1326"/>
      <point x="542" y="1286"/>
      <point x="398" y="1208"/>
      <point x="274" y="1096"/>
      <point x="184" y="952"/>
      <point x="132" y="778"/>
      <point x="132" y="678" type="qcurve"/>
      <point x="132" y="585"/>
      <point x="179" y="417"/>
      <point x="265" y="273"/>
      <point x="384" y="157"/>
      <point x="528" y="76"/>
      <point x="691" y="32"/>
      <point x="779" y="32" type="qcurve"/>
      <point x="865" y="32"/>
      <point x="1028" y="75"/>
      <point x="1172" y="156"/>
      <point x="1292" y="271"/>
      <point x="1379" y="415"/>
      <point x="1427" y="584"/>
    </contour>
    <contour>
      <point x="993" y="250" type="line"/>
      <point x="700" y="654" type="line"/>
      <point x="623" y="654" type="line"/>
      <point x="623" y="345" type="line"/>
      <point x="623" y="328"/>
      <point x="642" y="305"/>
      <point x="653" y="297" type="qcurve"/>
      <point x="663" y="290"/>
      <point x="709" y="284"/>
      <point x="741" y="284" type="qcurve"/>
      <point x="741" y="250" type="line"/>
      <point x="374" y="250" type="line"/>
      <point x="374" y="284" type="line"/>
      <point x="386" y="284"/>
      <point x="411" y="285"/>
      <point x="434" y="290"/>
      <point x="454" y="300"/>
      <point x="461" y="310" type="qcurve"/>
      <point x="473" y="324"/>
      <point x="477" y="382"/>
      <point x="477" y="420" type="qcurve"/>
      <point x="477" y="1002" type="line"/>
      <point x="477" y="1025"/>
      <point x="475" y="1031" type="qcurve"/>
      <point x="472" y="1041"/>
      <point x="460" y="1059"/>
      <point x="449" y="1066" type="qcurve"/>
      <point x="432" y="1078"/>
      <point x="386" y="1078" type="qcurve"/>
      <point x="386" y="1115" type="line"/>
      <point x="773" y="1115" type="line"/>
      <point x="844" y="1115"/>
      <point x="955" y="1079"/>
      <point x="1031" y="1018"/>
      <point x="1070" y="937"/>
      <point x="1070" y="891" type="qcurve"/>
      <point x="1070" y="835"/>
      <point x="1023" y="757"/>
      <point x="956" y="705"/>
      <point x="880" y="675"/>
      <point x="850" y="668" type="qcurve"/>
      <point x="1057" y="371" type="line"/>
      <point x="1077" y="341"/>
      <point x="1109" y="308"/>
      <point x="1125" y="297" type="qcurve"/>
      <point x="1144" y="287"/>
      <point x="1179" y="284" type="qcurve"/>
      <point x="1179" y="250" type="line"/>
    </contour>
    <contour>
      <point x="910" y="879" type="qcurve"/>
      <point x="910" y="917"/>
      <point x="882" y="986"/>
      <point x="829" y="1039"/>
      <point x="754" y="1070"/>
      <point x="707" y="1070" type="qcurve"/>
      <point x="668" y="1070"/>
      <point x="623" y="1057" type="qcurve"/>
      <point x="623" y="698" type="line"/>
      <point x="644" y="698"/>
      <point x="704" y="700"/>
      <point x="768" y="711"/>
      <point x="830" y="733"/>
      <point x="879" y="774"/>
      <point x="910" y="835"/>
    </contour>
  </outline>
</glyph>
<glyph name="twosuperior" format="2">
  <advance width="737"/>
  <unicode hex="00B2"/>
  <outline>
    <contour>
      <point x="607" y="806" type="line"/>
      <point x="32" y="806" type="line"/>
      <point x="32" y="828" type="line"/>
      <point x="158" y="926"/>
      <point x="338" y="1082"/>
      <point x="391" y="1145" type="qcurve"/>
      <point x="441" y="1206"/>
      <point x="493" y="1317"/>
      <point x="493" y="1368" type="qcurve"/>
      <point x="493" y="1420"/>
      <point x="450" y="1489"/>
      <point x="389" y="1530"/>
      <point x="322" y="1546"/>
      <point x="299" y="1546" type="qcurve"/>
      <point x="248" y="1546"/>
      <point x="175" y="1515"/>
      <point x="124" y="1472"/>
      <point x="94" y="1424"/>
      <point x="87" y="1407" type="qcurve"/>
      <point x="61" y="1407" type="line"/>
      <point x="65" y="1435"/>
      <point x="92" y="1514"/>
      <point x="153" y="1587"/>
      <point x="256" y="1638"/>
      <point x="337" y="1638" type="qcurve"/>
      <point x="389" y="1638"/>
      <point x="490" y="1608"/>
      <point x="569" y="1553"/>
      <point x="617" y="1473"/>
      <point x="617" y="1423" type="qcurve"/>
      <point x="617" y="1375"/>
      <point x="574" y="1280"/>
      <point x="511" y="1195"/>
      <point x="438" y="1121"/>
      <point x="408" y="1094" type="qcurve"/>
      <point x="319" y="1012"/>
      <point x="208" y="914"/>
      <point x="186" y="897" type="qcurve"/>
      <point x="442" y="897" type="line"/>
      <point x="497" y="897"/>
      <point x="563" y="902"/>
      <point x="605" y="917"/>
      <point x="634" y="941"/>
      <point x="651" y="961" type="qcurve"/>
      <point x="676" y="961" type="line"/>
    </contour>
  </outline>
</glyph>
<glyph name="threesuperior" format="2">
  <advance width="737"/>
  <unicode hex="00B3"/>
  <outline>
    <contour>
      <point x="615" y="1076" type="qcurve"/>
      <point x="615" y="1013"/>
      <point x="561" y="909"/>
      <point x="461" y="834"/>
      <point x="318" y="792"/>
      <point x="229" y="792" type="qcurve"/>
      <point x="168" y="792"/>
      <point x="101" y="807"/>
      <point x="68" y="828"/>
      <point x="61" y="850"/>
      <point x="61" y="857" type="qcurve"/>
      <point x="61" y="875"/>
      <point x="95" y="899"/>
      <point x="118" y="899" type="qcurve"/>
      <point x="145" y="899"/>
      <point x="189" y="882"/>
      <point x="235" y="861"/>
      <point x="288" y="844"/>
      <point x="325" y="844" type="qcurve"/>
      <point x="358" y="844"/>
      <point x="423" y="867"/>
      <point x="475" y="908"/>
      <point x="508" y="967"/>
      <point x="508" y="1003" type="qcurve"/>
      <point x="508" y="1043"/>
      <point x="484" y="1104"/>
      <point x="444" y="1148"/>
      <point x="393" y="1178"/>
      <point x="366" y="1187" type="qcurve"/>
      <point x="304" y="1209"/>
      <point x="224" y="1210" type="qcurve"/>
      <point x="224" y="1228" type="line"/>
      <point x="233" y="1229"/>
      <point x="273" y="1237"/>
      <point x="323" y="1254"/>
      <point x="376" y="1282"/>
      <point x="420" y="1323"/>
      <point x="448" y="1380"/>
      <point x="448" y="1418" type="qcurve"/>
      <point x="448" y="1457"/>
      <point x="416" y="1510"/>
      <point x="367" y="1542"/>
      <point x="310" y="1555"/>
      <point x="286" y="1555" type="qcurve"/>
      <point x="172" y="1555"/>
      <point x="98" y="1454" type="qcurve"/>
      <point x="75" y="1465" type="line"/>
      <point x="85" y="1484"/>
      <point x="120" y="1543"/>
      <point x="181" y="1598"/>
      <point x="273" y="1638"/>
      <point x="339" y="1638" type="qcurve"/>
      <point x="410" y="1638"/>
      <point x="499" y="1598"/>
      <point x="548" y="1544"/>
      <point x="566" y="1488"/>
      <point x="566" y="1472" type="qcurve"/>
      <point x="566" y="1382"/>
      <point x="434" y="1289" type="qcurve"/>
      <point x="458" y="1281"/>
      <point x="520" y="1252"/>
      <point x="576" y="1201"/>
      <point x="615" y="1127"/>
    </contour>
  </outline>
</glyph>
<glyph name="paragraph" format="2">
  <advance width="929"/>
  <unicode hex="00B6"/>
  <outline>
    <contour>
      <point x="800" y="1301" type="line"/>
      <point x="800" y="-444" type="line"/>
      <point x="726" y="-444" type="line"/>
      <point x="726" y="1301" type="line"/>
      <point x="540" y="1301" type="line"/>
      <point x="540" y="-444" type="line"/>
      <point x="467" y="-444" type="line"/>
      <point x="467" y="603" type="line"/>
      <point x="409" y="604"/>
      <point x="294" y="618"/>
      <point x="187" y="650"/>
      <point x="95" y="704"/>
      <point x="26" y="787"/>
      <point x="-13" y="903"/>
      <point x="-13" y="982" type="qcurve"/>
      <point x="-13" y="1090"/>
      <point x="67" y="1234"/>
      <point x="196" y="1320"/>
      <point x="357" y="1356"/>
      <point x="438" y="1356" type="qcurve"/>
      <point x="933" y="1356" type="line"/>
      <point x="933" y="1301" type="line"/>
    </contour>
  </outline>
</glyph>
<glyph name="ordmasculine" format="2">
  <advance width="751"/>
  <unicode hex="00BA"/>
  <outline>
    <contour>
      <point x="560" y="1044" type="qcurve"/>
      <point x="560" y="1105"/>
      <point x="531" y="1211"/>
      <point x="478" y="1289"/>
      <point x="402" y="1334"/>
      <point x="355" y="1334" type="qcurve"/>
      <point x="327" y="1334"/>
      <point x="269" y="1314"/>
      <point x="222" y="1265"/>
      <point x="192" y="1185"/>
      <point x="192" y="1125" type="qcurve"/>
      <point x="192" y="1066"/>
      <point x="222" y="960"/>
      <point x="276" y="879"/>
      <point x="353" y="832"/>
      <point x="400" y="832" type="qcurve"/>
      <point x="436" y="832"/>
      <point x="495" y="854"/>
      <point x="537" y="904"/>
      <point x="560" y="985"/>
    </contour>
    <contour>
      <point x="69" y="654" type="line"/>
      <point x="69" y="698" type="line"/>
      <point x="684" y="698" type="line"/>
      <point x="684" y="654" type="line"/>
    </contour>
    <contour>
      <point x="694" y="1092" type="qcurve"/>
      <point x="694" y="1039"/>
      <point x="653" y="930"/>
      <point x="572" y="843"/>
      <point x="451" y="788"/>
      <point x="371" y="788" type="qcurve"/>
      <point x="302" y="788"/>
      <point x="186" y="835"/>
      <point x="103" y="914"/>
      <point x="57" y="1018"/>
      <point x="57" y="1076" type="qcurve"/>
      <point x="57" y="1131"/>
      <point x="101" y="1238"/>
      <point x="183" y="1320"/>
      <point x="301" y="1371"/>
      <point x="376" y="1371" type="qcurve"/>
      <point x="447" y="1371"/>
      <point x="564" y="1327"/>
      <point x="648" y="1252"/>
      <point x="694" y="1150"/>
    </contour>
  </outline>
</glyph>
<glyph name="onehalf" format="2">
  <advance width="1518"/>
  <unicode hex="00BD"/>
  <outline>
    <contour>
      <point x="333" y="-15" type="line"/>
      <point x="235" y="-15" type="line"/>
      <point x="1098" y="1382" type="line"/>
      <point x="1194" y="1382" type="line"/>
    </contour>
    <contour>
      <point x="1322" y="-8" type="line"/>
      <point x="837" y="-8" type="line"/>
      <point x="837" y="15" type="line"/>
      <point x="945" y="114"/>
      <point x="1094" y="270"/>
      <point x="1139" y="333" type="qcurve"/>
      <point x="1182" y="396"/>
      <point x="1226" y="508"/>
      <point x="1226" y="560" type="qcurve"/>
      <point x="1226" y="612"/>
      <point x="1190" y="682"/>
      <point x="1139" y="722"/>
      <point x="1083" y="739"/>
      <point x="1064" y="739" type="qcurve"/>
      <point x="1020" y="739"/>
      <point x="958" y="709"/>
      <point x="914" y="666"/>
      <point x="889" y="618"/>
      <point x="883" y="601" type="qcurve"/>
      <point x="863" y="601" type="line"/>
      <point x="866" y="628"/>
      <point x="888" y="707"/>
      <point x="940" y="780"/>
      <point x="1028" y="832"/>
      <point x="1096" y="832" type="qcurve"/>
      <point x="1140" y="832"/>
      <point x="1224" y="802"/>
      <point x="1290" y="747"/>
      <point x="1330" y="666"/>
      <point x="1330" y="615" type="qcurve"/>
      <point x="1330" y="567"/>
      <point x="1295" y="472"/>
      <point x="1242" y="385"/>
      <point x="1181" y="310"/>
      <point x="1155" y="282" type="qcurve"/>
      <point x="1080" y="200"/>
      <point x="987" y="102"/>
      <point x="968" y="85" type="qcurve"/>
      <point x="1183" y="85" type="line"/>
      <point x="1229" y="85"/>
      <point x="1285" y="90"/>
      <point x="1320" y="104"/>
      <point x="1344" y="130"/>
      <point x="1358" y="150" type="qcurve"/>
      <point x="1382" y="150" type="line"/>
    </contour>
    <contour>
      <point x="150" y="525" type="line"/>
      <point x="150" y="548" type="line"/>
      <point x="188" y="548"/>
      <point x="231" y="556"/>
      <point x="252" y="582"/>
      <point x="256" y="630"/>
      <point x="256" y="670" type="qcurve"/>
      <point x="256" y="1187" type="line"/>
      <point x="256" y="1221"/>
      <point x="238" y="1262"/>
      <point x="191" y="1267"/>
      <point x="144" y="1245" type="qcurve"/>
      <point x="136" y="1267" type="line"/>
      <point x="335" y="1364" type="line"/>
      <point x="357" y="1364" type="line"/>
      <point x="357" y="670" type="line"/>
      <point x="357" y="630"/>
      <point x="360" y="582"/>
      <point x="380" y="556"/>
      <point x="422" y="548"/>
      <point x="461" y="548" type="qcurve"/>
      <point x="461" y="525" type="line"/>
    </contour>
  </outline>
</glyph>
<glyph name="questiondown" format="2">
  <advance width="910"/>
  <unicode hex="00BF"/>
  <outline>
    <contour>
      <point x="812" y="-154" type="qcurve"/>
      <point x="812" y="-210"/>
      <point x="765" y="-314"/>
      <point x="673" y="-394"/>
      <point x="538" y="-442"/>
      <point x="451" y="-442" type="qcurve"/>
      <point x="370" y="-442"/>
      <point x="233" y="-399"/>
      <point x="133" y="-317"/>
      <point x="77" y="-200"/>
      <point x="77" y="-126" type="qcurve"/>
      <point x="77" y="-69"/>
      <point x="108" y="29"/>
      <point x="155" y="112"/>
      <point x="210" y="179"/>
      <point x="233" y="205" type="qcurve"/>
      <point x="286" y="265"/>
      <point x="365" y="359"/>
      <point x="418" y="452"/>
      <point x="446" y="557"/>
      <point x="449" y="627" type="qcurve"/>
      <point x="493" y="627" type="line"/>
      <point x="490" y="567"/>
      <point x="472" y="456"/>
      <point x="439" y="349"/>
      <point x="390" y="243"/>
      <point x="357" y="188" type="qcurve"/>
      <point x="342" y="162"/>
      <point x="308" y="91"/>
      <point x="280" y="12"/>
      <point x="262" y="-72"/>
      <point x="262" y="-111" type="qcurve"/>
      <point x="262" y="-186"/>
      <point x="306" y="-291"/>
      <point x="373" y="-357"/>
      <point x="456" y="-386"/>
      <point x="495" y="-386" type="qcurve"/>
      <point x="543" y="-386"/>
      <point x="614" y="-362"/>
      <point x="661" y="-323"/>
      <point x="684" y="-277"/>
      <point x="684" y="-254" type="qcurve"/>
      <point x="684" y="-233"/>
      <point x="664" y="-187"/>
      <point x="641" y="-142"/>
      <point x="621" y="-100"/>
      <point x="621" y="-83" type="qcurve"/>
      <point x="621" y="-62"/>
      <point x="636" y="-29"/>
      <point x="660" y="-7"/>
      <point x="688" y="4"/>
      <point x="702" y="4" type="qcurve"/>
      <point x="712" y="4"/>
      <point x="749" y="-9"/>
      <point x="785" y="-44"/>
      <point x="812" y="-105"/>
    </contour>
    <contour>
      <point x="577" y="861" type="qcurve"/>
      <point x="577" y="837"/>
      <point x="558" y="796"/>
      <point x="527" y="766"/>
      <point x="485" y="749"/>
      <point x="463" y="749" type="qcurve"/>
      <point x="442" y="749"/>
      <point x="403" y="765"/>
      <point x="372" y="795"/>
      <point x="353" y="836"/>
      <point x="353" y="861" type="qcurve"/>
      <point x="353" y="888"/>
      <point x="373" y="931"/>
      <point x="405" y="959"/>
      <point x="444" y="974"/>
      <point x="463" y="974" type="qcurve"/>
      <point x="485" y="974"/>
      <point x="526" y="959"/>
      <point x="558" y="930"/>
      <point x="577" y="888"/>
    </contour>
  </outline>
</glyph>
<glyph name="Agrave" format="2">
  <advance width="1472"/>
  <unicode hex="00C0"/>
  <outline>
    <component base="A"/>
    <contour>
      <point x="829" y="1477" type="line"/>
      <point x="534" y="1665" type="line"/>
      <point x="521" y="1673"/>
      <point x="490" y="1692"/>
      <point x="463" y="1715"/>
      <point x="445" y="1740"/>
      <point x="445" y="1753" type="qcurve"/>
      <point x="445" y="1789"/>
      <point x="479" y="1830"/>
      <point x="509" y="1830" type="qcurve"/>
      <point x="535" y="1830"/>
      <point x="600" y="1792"/>
      <point x="628" y="1763" type="qcurve"/>
      <point x="912" y="1477" type="line"/>
    </contour>
  </outline>
</glyph>
<glyph name="AE" format="2">
  <advance width="1823"/>
  <unicode hex="00C6"/>
  <outline>
    <contour>
      <point x="1657" y="0" type="line"/>
      <point x="639" y="0" type="line"/>
      <point x="639" y="38" type="line"/>
      <point x="688" y="38" type="line"/>
      <point x="772" y="38"/>
      <point x="812" y="87" type="qcurve"/>
      <point x="835" y="116"/>
      <point x="835" y="241" type="qcurve"/>
      <point x="835" y="525" type="line"/>
      <point x="440" y="525" type="line"/>
      <point x="316" y="292" type="line"/>
      <point x="288" y="240"/>
      <point x="253" y="166"/>
      <point x="241" y="114"/>
      <point x="254" y="79"/>
      <point x="274" y="67" type="qcurve"/>
      <point x="306" y="45"/>
      <point x="402" y="38" type="qcurve"/>
      <point x="402" y="0" type="line"/>
      <point x="-24" y="0" type="line"/>
      <point x="-24" y="38" type="line"/>
      <point x="-1" y="38"/>
      <point x="37" y="46"/>
      <point x="51" y="55" type="qcurve"/>
      <point x="66" y="64"/>
      <point x="98" y="95"/>
      <point x="137" y="146"/>
      <point x="184" y="221"/>
      <point x="213" y="274" type="qcurve"/>
      <point x="627" y="1044" type="line"/>
      <point x="665" y="1116"/>
      <point x="704" y="1214"/>
      <point x="704" y="1238" type="qcurve"/>
      <point x="704" y="1255"/>
      <point x="690" y="1283"/>
      <point x="651" y="1304"/>
      <point x="583" y="1317"/>
      <point x="530" y="1320" type="qcurve"/>
      <point x="530" y="1356" type="line"/>
      <point x="1642" y="1356" type="line"/>
      <point x="1657" y="1061" type="line"/>
      <point x="1625" y="1061" type="line"/>
      <point x="1610" y="1130"/>
      <point x="1581" y="1217"/>
      <point x="1527" y="1265"/>
      <point x="1436" y="1283"/>
      <point x="1360" y="1283" type="qcurve"/>
      <point x="1027" y="1283" type="line"/>
      <point x="1027" y="747" type="line"/>
      <point x="1285" y="747" type="line"/>
      <point x="1343" y="747"/>
      <point x="1423" y="767"/>
      <point x="1472" y="814"/>
      <point x="1497" y="888"/>
      <point x="1502" y="942" type="qcurve"/>
      <point x="1537" y="942" type="line"/>
      <point x="1537" y="474" type="line"/>
      <point x="1502" y="474" type="line"/>
      <point x="1494" y="533"/>
      <point x="1473" y="610"/>
      <point x="1427" y="655"/>
      <point x="1349" y="672"/>
      <point x="1285" y="672" type="qcurve"/>
      <point x="1027" y="672" type="line"/>
      <point x="1027" y="153" type="line"/>
      <point x="1027" y="125"/>
      <point x="1035" y="115" type="qcurve"/>
      <point x="1039" y="108"/>
      <point x="1052" y="93"/>
      <point x="1075" y="81"/>
      <point x="1113" y="73"/>
      <point x="1143" y="73" type="qcurve"/>
      <point x="1324" y="73" type="line"/>
      <point x="1409" y="73"/>
      <point x="1531" y="104"/>
      <point x="1622" y="169"/>
      <point x="1693" y="271"/>
      <point x="1728" y="343" type="qcurve"/>
      <point x="1764" y="343" type="line"/>
    </contour>
    <contour>
      <point x="835" y="1283" type="line"/>
      <point x="477" y="600" type="line"/>
      <point x="835" y="600" type="line"/>
    </contour>
  </outline>
</glyph>
<glyph name="Ccedilla" format="2">
  <advance width="1368"/>
  <unicode hex="00C7"/>
  <outline>
    <contour>
      <point x="899" y="-270" type="qcurve"/>
      <point x="899" y="-311"/>
      <point x="853" y="-375"/>
      <point x="779" y="-419"/>
      <point x="684" y="-442"/>
      <point x="636" y="-442" type="qcurve"/>
      <point x="594" y="-442"/>
      <point x="508" y="-423"/>
      <point x="470" y="-410" type="qcurve"/>
      <point x="500" y="-345" type="line"/>
      <point x="513" y="-350"/>
      <point x="546" y="-360"/>
      <point x="581" y="-367"/>
      <point x="613" y="-371"/>
      <point x="626" y="-371" type="qcurve"/>
      <point x="683" y="-371"/>
      <point x="746" y="-327"/>
      <point x="746" y="-284" type="qcurve"/>
      <point x="746" y="-249"/>
      <point x="705" y="-208"/>
      <point x="671" y="-205" type="qcurve"/>
      <point x="647" y="-203"/>
      <point x="599" y="-209"/>
      <point x="579" y="-215" type="qcurve"/>
      <point x="562" y="-203" type="line"/>
      <point x="637" y="-26" type="line"/>
      <point x="586" y="-20"/>
      <point x="540" y="-6" type="qcurve"/>
      <point x="451" y="19"/>
      <point x="304" y="110"/>
      <point x="191" y="238"/>
      <point x="113" y="391"/>
      <point x="73" y="566"/>
      <point x="73" y="658" type="qcurve"/>
      <point x="73" y="806"/>
      <point x="172" y="1071"/>
      <point x="353" y="1271"/>
      <point x="609" y="1388"/>
      <point x="765" y="1388" type="qcurve"/>
      <point x="842" y="1388"/>
      <point x="959" y="1358"/>
      <point x="1044" y="1323"/>
      <point x="1100" y="1293"/>
      <point x="1115" y="1293" type="qcurve"/>
      <point x="1142" y="1293"/>
      <point x="1187" y="1340"/>
      <point x="1198" y="1388" type="qcurve"/>
      <point x="1234" y="1388" type="line"/>
      <point x="1266" y="927" type="line"/>
      <point x="1234" y="927" type="line"/>
      <point x="1203" y="1031"/>
      <point x="1113" y="1179"/>
      <point x="998" y="1273"/>
      <point x="860" y="1317"/>
      <point x="781" y="1317" type="qcurve"/>
      <point x="676" y="1317"/>
      <point x="500" y="1238"/>
      <point x="373" y="1074"/>
      <point x="301" y="826"/>
      <point x="301" y="656" type="qcurve"/>
      <point x="301" y="511"/>
      <point x="374" y="287"/>
      <point x="508" y="135"/>
      <point x="695" y="57"/>
      <point x="810" y="57" type="qcurve"/>
      <point x="877" y="57"/>
      <point x="991" y="82"/>
      <point x="1099" y="145"/>
      <point x="1206" y="254"/>
      <point x="1266" y="339" type="qcurve"/>
      <point x="1295" y="318" type="line"/>
      <point x="1245" y="229"/>
      <point x="1129" y="98"/>
      <point x="991" y="11"/>
      <point x="829" y="-32"/>
      <point x="733" y="-32" type="qcurve"/>
      <point x="721" y="-32"/>
      <point x="709" y="-31" type="qcurve"/>
      <point x="669" y="-134" type="line"/>
      <point x="696" y="-128"/>
      <point x="728" y="-128" type="qcurve"/>
      <point x="761" y="-128"/>
      <point x="823" y="-145"/>
      <point x="870" y="-179"/>
      <point x="899" y="-233"/>
    </contour>
  </outline>
</glyph>
<glyph name="Ecircumflex" format="2">
  <advance width="1251"/>
  <unicode hex="00CA"/>
  <outline>
    <component base="E"/>
    <contour>
      <point x="875" y="1477" type="line"/>
      <point x="624" y="1691" type="line"/>
      <point x="374" y="1477" type="line"/>
      <point x="303" y="1477" type="line"/>
      <point x="561" y="1821" type="line"/>
      <point x="689" y="1821" type="line"/>
      <point x="946" y="1477" type="line"/>
    </contour>
  </outline>
</glyph>
<glyph name="Iacute" format="2">
  <advance width="682"/>
  <unicode hex="00CD"/>
  <outline>
    <component base="I"/>
    <contour>
      <point x="628" y="1765" type="qcurve"/>
      <point x="628" y="1736"/>
      <point x="577" y="1686"/>
      <point x="545" y="1665" type="qcurve"/>
      <point x="249" y="1477" type="line"/>
      <point x="167" y="1477" type="line"/>
      <point x="451" y="1763" type="line"/>
      <point x="477" y="1790"/>
      <point x="542" y="1830"/>
      <point x="575" y="1830" type="qcurve"/>
      <point x="583" y="1830"/>
      <point x="601" y="1818"/>
      <point x="617" y="1798"/>
      <point x="628" y="1775"/>
    </contour>
  </outline>
</glyph>
<glyph name="Idieresis" format="2">
  <advance width="682"/>
  <unicode hex="00CF"/>
  <outline>
    <component base="I"/>
    <contour>
      <point x="238" y="1663" type="qcurve"/>
      <point x="238" y="1642"/>
      <point x="222" y="1605"/>
      <point x="193" y="1577"/>
      <point x="156" y="1560"/>
      <point x="135" y="1560" type="qcurve"/>
      <point x="115" y="1560"/>
      <point x="79" y="1577"/>
      <point x="51" y="1606"/>
      <point x="35" y="1643"/>
      <point x="35" y="1663" type="qcurve"/>
      <point x="35" y="1682"/>
      <point x="52" y="1719"/>
      <point x="80" y="1747"/>
      <point x="116" y="1765"/>
      <point x="135" y="1765" type="qcurve"/>
      <point x="156" y="1765"/>
      <point x="193" y="1749"/>
      <point x="222" y="1721"/>
      <point x="238" y="1684"/>
    </contour>
    <contour>
      <point x="648" y="1663" type="qcurve"/>
      <point x="648" y="1642"/>
      <point x="632" y="1605"/>
      <point x="603" y="1577"/>
      <point x="566" y="1560"/>
      <point x="545" y="1560" type="qcurve"/>
      <point x="524" y="1560"/>
      <point x="487" y="1577"/>
      <point x="459" y="1606"/>
      <point x="443" y="1643"/>
      <point x="443" y="1663" type="qcurve"/>
      <point x="443" y="1682"/>
      <point x="461" y="1719"/>
      <point x="489" y="1747"/>
      <point x="526" y="1765"/>
      <point x="545" y="1765" type="qcurve"/>
      <point x="566" y="1765"/>
      <point x="603" y="1749"/>
      <point x="632" y="1721"/>
      <point x="648" y="1684"/>
    </contour>
  </outline>
</glyph>
<glyph name="Ocircumflex" format="2">
  <advance width="1480"/>
  <unicode hex="00D4"/>
  <outline>
    <component base="O"/>
    <contour>
      <point x="986" y="1477" type="line"/>
      <point x="735" y="1691" type="line"/>
      <point x="485" y="1477" type="line"/>
      <point x="414" y="1477" type="line"/>
      <point x="672" y="1821" type="line"/>
      <point x="800" y="1821" type="line"/>
      <point x="1057" y="1477" type="line"/>
    </contour>
  </outline>
</glyph>
<glyph name="Odieresis" format="2">
  <advance width="1480"/>
  <unicode hex="00D6"/>
  <outline>
    <component base="O"/>
    <contour>
      <point x="632" y="1663" type="qcurve"/>
      <point x="632" y="1642"/>
      <point x="616" y="1605"/>
      <point x="587" y="1577"/>
      <point x="550" y="1560"/>
      <point x="529" y="1560" type="qcurve"/>
      <point x="509" y="1560"/>
      <point x="473" y="1577"/>
      <point x="445" y="1606"/>
      <point x="429" y="1643"/>
      <point x="429" y="1663" type="qcurve"/>
      <point x="429" y="1682"/>
      <point x="446" y="1719"/>
      <point x="474" y="1747"/>
      <point x="510" y="1765"/>
      <point x="529" y="1765" type="qcurve"/>
      <point x="550" y="1765"/>
      <point x="587" y="1749"/>
      <point x="616" y="1721"/>
      <point x="632" y="1684"/>
    </contour>
    <contour>
      <point x="1042" y="1663" type="qcurve"/>
      <point x="1042" y="1642"/>
      <point x="1026" y="1605"/>
      <point x="997" y="1577"/>
      <point x="960" y="1560"/>
      <point x="939" y="1560" type="qcurve"/>
      <point x="918" y="1560"/>
      <point x="881" y="1577"/>
      <point x="853" y="1606"/>
      <point x="837" y="1643"/>
      <point x="837" y="1663" type="qcurve"/>
      <point x="837" y="1682"/>
      <point x="855" y="1719"/>
      <point x="883" y="1747"/>
      <point x="920" y="1765"/>
      <point x="939" y="1765" type="qcurve"/>
      <point x="960" y="1765"/>
      <point x="997" y="1749"/>
      <point x="1026" y="1721"/>
      <point x="1042" y="1684"/>
    </contour>
  </outline>
</glyph>
<glyph name="Oslash" format="2">
  <advance width="1480"/>
  <unicode hex="00D8"/>
  <outline>
    <contour>
      <point x="731" y="39" type="qcurve"/>
      <point x="828" y="39"/>
      <point x="990" y="113"/>
      <point x="1107" y="266"/>
      <point x="1172" y="500"/>
      <point x="1173" y="660" type="qcurve"/>
      <point x="1174" y="718"/>
      <point x="1168" y="824"/>
      <point x="1152" y="923"/>
      <point x="1125" y="1019"/>
      <point x="1105" y="1068" type="qcurve"/>
      <point x="413" y="215" type="line"/>
      <point x="469" y="130"/>
      <point x="628" y="40"/>
    </contour>
    <contour>
      <point x="729" y="1317" type="qcurve"/>
      <point x="627" y="1317"/>
      <point x="468" y="1230"/>
      <point x="358" y="1067"/>
      <point x="301" y="834"/>
      <point x="301" y="688" type="qcurve"/>
      <point x="301" y="576"/>
      <point x="334" y="383"/>
      <point x="375" y="287" type="qcurve"/>
      <point x="1067" y="1139" type="line"/>
      <point x="1010" y="1227"/>
      <point x="843" y="1316"/>
    </contour>
    <contour>
      <point x="751" y="1388" type="qcurve"/>
      <point x="865" y="1388"/>
      <point x="1067" y="1313"/>
      <point x="1151" y="1242" type="qcurve"/>
      <point x="1279" y="1399" type="line"/>
      <point x="1339" y="1356" type="line"/>
      <point x="1205" y="1191" type="line"/>
      <point x="1295" y="1097"/>
      <point x="1399" y="840"/>
      <point x="1399" y="686" type="qcurve"/>
      <point x="1399" y="583"/>
      <point x="1353" y="397"/>
      <point x="1268" y="238"/>
      <point x="1148" y="109"/>
      <point x="1000" y="17"/>
      <point x="828" y="-32"/>
      <point x="733" y="-32" type="qcurve"/>
      <point x="620" y="-32"/>
      <point x="413" y="38"/>
      <point x="326" y="107" type="qcurve"/>
      <point x="201" y="-47" type="line"/>
      <point x="141" y="0" type="line"/>
      <point x="270" y="158" type="line"/>
      <point x="176" y="254"/>
      <point x="71" y="518"/>
      <point x="71" y="682" type="qcurve"/>
      <point x="71" y="834"/>
      <point x="175" y="1093"/>
      <point x="358" y="1282"/>
      <point x="606" y="1388"/>
    </contour>
  </outline>
</glyph>
<glyph name="Uacute" format="2">
  <advance width="1480"/>
  <unicode hex="00DA"/>
  <outline>
    <component base="U"/>
    <contour>
      <point x="1031" y="1765" type="qcurve"/>
      <point x="1031" y="1736"/>
      <point x="980" y="1686"/>
      <point x="948" y="1665" type="qcurve"/>
      <point x="652" y="1477" type="line"/>
      <point x="570" y="1477" type="line"/>
      <point x="854" y="1763" type="line"/>
      <point x="880" y="1790"/>
      <point x="945" y="1830"/>
      <point x="978" y="1830" type="qcurve"/>
      <point x="986" y="1830"/>
      <point x="1004" y="1818"/>
      <point x="1020" y="1798"/>
      <point x="1031" y="1775"/>
    </contour>
  </outline>
</glyph>
<glyph name="Ucircumflex" format="2">
  <advance width="1480"/>
  <unicode hex="00DB"/>
  <outline>
    <component base="U"/>
    <contour>
      <point x="995" y="1477" type="line"/>
      <point x="744" y="1691" type="line"/>
      <point x="494" y="1477" type="line"/>
      <point x="423" y="1477" type="line"/>
      <point x="681" y="1821" type="line"/>
      <point x="809" y="1821" type="line"/>
      <point x="1066" y="1477" type="line"/>
    </contour>
  </outline>
</glyph>
<glyph name="Udieresis" format="2">
  <advance width="1480"/>
  <unicode hex="00DC"/>
  <outline>
    <component base="U"/>
    <contour>
      <point x="641" y="1663" type="qcurve"/>
      <point x="641" y="1642"/>
      <point x="625" y="1605"/>
      <point x="596" y="1577"/>
      <point x="559" y="1560"/>
      <point x="538" y="1560" type="qcurve"/>
      <point x="518" y="1560"/>
      <point x="482" y="1577"/>
      <point x="454" y="1606"/>
      <point x="438" y="1643"/>
      <point x="438" y="1663" type="qcurve"/>
      <point x="438" y="1682"/>
      <point x="455" y="1719"/>
      <point x="483" y="1747"/>
      <point x="519" y="1765"/>
      <point x="538" y="1765" type="qcurve"/>
      <point x="559" y="1765"/>
      <point x="596" y="1749"/>
      <point x="625" y="1721"/>
      <point x="641" y="1684"/>
    </contour>
    <contour>
      <point x="1051" y="1663" type="qcurve"/>
      <point x="1051" y="1642"/>
      <point x="1035" y="1605"/>
      <point x="1006" y="1577"/>
      <point x="969" y="1560"/>
      <point x="948" y="1560" type="qcurve"/>
      <point x="927" y="1560"/>
      <point x="890" y="1577"/>
      <point x="862" y="1606"/>
      <point x="846" y="1643"/>
      <point x="846" y="1663" type="qcurve"/>
      <point x="846" y="1682"/>
      <point x="864" y="1719"/>
      <point x="892" y="1747"/>
      <point x="929" y="1765"/>
      <point x="948" y="1765" type="qcurve"/>
      <point x="969" y="1765"/>
      <point x="1006" y="1749"/>
      <point x="1035" y="1721"/>
      <point x="1051" y="1684"/>
    </contour>
  </outline>
</glyph>
<glyph name="Yacute" format="2">
  <advance width="1480"/>
  <unicode hex="00DD"/>
  <outline>
    <component base="Y"/>
    <contour>
      <point x="1020" y="1765" type="qcurve"/>
      <point x="1020" y="1736"/>
      <point x="969" y="1686"/>
      <point x="937" y="1665" type="qcurve"/>
      <point x="641" y="1477" type="line"/>
      <point x="559" y="1477" type="line"/>
      <point x="843" y="1763" type="line"/>
      <point x="869" y="1790"/>
      <point x="934" y="1830"/>
      <point x="967" y="1830" type="qcurve"/>
      <point x="975" y="1830"/>
      <point x="993" y="1818"/>
      <point x="1009" y="1798"/>
      <point x="1020" y="1775"/>
    </contour>
  </outline>
</glyph>
<glyph name="adieresis" format="2">
  <advance width="910"/>
  <unicode hex="00E4"/>
  <outline>
    <component base="a"/>
    <contour>
      <point x="342" y="1228" type="qcurve"/>
      <point x="342" y="1207"/>
      <point x="326" y="1170"/>
      <point x="297" y="1142"/>
      <point x="260" y="1125"/>
      <point x="239" y="1125" type="qcurve"/>
      <point x="219" y="1125"/>
      <point x="183" y="1142"/>
      <point x="155" y="1171"/>
      <point x="139" y="1208"/>
      <point x="139" y="1228" type="qcurve"/>
      <point x="139" y="1247"/>
      <point x="156" y="1284"/>
      <point x="184" y="1312"/>
      <point x="220" y="1330"/>
      <point x="239" y="1330" type="qcurve"/>
      <point x="260" y="1330"/>
      <point x="297" y="1314"/>
      <point x="326" y="1286"/>
      <point x="342" y="1249"/>
    </contour>
    <contour>
      <point x="752" y="1228" type="qcurve"/>
      <point x="752" y="1207"/>
      <point x="736" y="1170"/>
      <point x="707" y="1142"/>
      <point x="670" y="1125"/>
      <point x="649" y="1125" type="qcurve"/>
      <point x="628" y="1125"/>
      <point x="591" y="1142"/>
      <point x="563" y="1171"/>
      <point x="547" y="1208"/>
      <point x="547" y="1228" type="qcurve"/>
      <point x="547" y="1247"/>
      <point x="565" y="1284"/>
      <point x="593" y="1312"/>
      <point x="630" y="1330"/>
      <point x="649" y="1330" type="qcurve"/>
      <point x="670" y="1330"/>
      <point x="707" y="1314"/>
      <point x="736" y="1286"/>
      <point x="752" y="1249"/>
    </contour>
  </outline>
</glyph>
<glyph name="ecircumflex" format="2">
  <advance width="910"/>
  <unicode hex="00EA"/>
  <outline>
    <component base="e"/>
    <contour>
      <point x="736" y="1042" type="line"/>
      <point x="485" y="1256" type="line"/>
      <point x="235" y="1042" type="line"/>
      <point x="164" y="1042" type="line"/>
      <point x="422" y="1386" type="line"/>
      <point x="550" y="1386" type="line"/>
      <point x="807" y="1042" type="line"/>
    </contour>
  </outline>
</glyph>
<glyph name="edieresis" format="2">
  <advance width="910"/>
  <unicode hex="00EB"/>
  <outline>
    <component base="e"/>
    <contour>
      <point x="382" y="1228" type="qcurve"/>
      <point x="382" y="1207"/>
      <point x="366" y="1170"/>
      <point x="337" y="1142"/>
      <point x="300" y="1125"/>
      <point x="279" y="1125" type="qcurve"/>
      <point x="259" y="1125"/>
      <point x="223" y="1142"/>
      <point x="195" y="1171"/>
      <point x="179" y="1208"/>
      <point x="179" y="1228" type="qcurve"/>
      <point x="179" y="1247"/>
      <point x="196" y="1284"/>
      <point x="224" y="1312"/>
      <point x="260" y="1330"/>
      <point x="279" y="1330" type="qcurve"/>
      <point x="300" y="1330"/>
      <point x="337" y="1314"/>
      <point x="366" y="1286"/>
      <point x="382" y="1249"/>
    </contour>
    <contour>
      <point x="792" y="1228" type="qcurve"/>
      <point x="792" y="1207"/>
      <point x="776" y="1170"/>
      <point x="747" y="1142"/>
      <point x="710" y="1125"/>
      <point x="689" y="1125" type="qcurve"/>
      <point x="668" y="1125"/>
      <point x="631" y="1142"/>
      <point x="603" y="1171"/>
      <point x="587" y="1208"/>
      <point x="587" y="1228" type="qcurve"/>
      <point x="587" y="1247"/>
      <point x="605" y="1284"/>
      <point x="633" y="1312"/>
      <point x="670" y="1330"/>
      <point x="689" y="1330" type="qcurve"/>
      <point x="710" y="1330"/>
      <point x="747" y="1314"/>
      <point x="776" y="1286"/>
      <point x="792" y="1249"/>
    </contour>
  </outline>
</glyph>
<glyph name="igrave" format="2">
  <advance width="570"/>
  <unicode hex="00EC"/>
  <outline>
    <component base="dotlessi"/>
    <contour>
      <point x="388" y="1042" type="line"/>
      <point x="93" y="1230" type="line"/>
      <point x="80" y="1238"/>
      <point x="49" y="1257"/>
      <point x="22" y="1280"/>
      <point x="4" y="1305"/>
      <point x="4" y="1318" type="qcurve"/>
      <point x="4" y="1354"/>
      <point x="38" y="1395"/>
      <point x="68" y="1395" type="qcurve"/>
      <point x="94" y="1395"/>
      <point x="159" y="1357"/>
      <point x="187" y="1328" type="qcurve"/>
      <point x="471" y="1042" type="line"/>
    </contour>
  </outline>
</glyph>
<glyph name="iacute" format="2">
  <advance width="570"/>
  <unicode hex="00ED"/>
  <outline>
    <component base="dotlessi"/>
    <contour>
      <point x="581" y="1330" type="qcurve"/>
      <point x="581" y="1301"/>
      <point x="530" y="1251"/>
      <point x="498" y="1230" type="qcurve"/>
      <point x="202" y="1042" type="line"/>
      <point x="120" y="1042" type="line"/>
      <point x="404" y="1328" type="line"/>
      <point x="430" y="1355"/>
      <point x="495" y="1395"/>
      <point x="528" y="1395" type="qcurve"/>
      <point x="536" y="1395"/>
      <point x="554" y="1383"/>
      <point x="570" y="1363"/>
      <point x="581" y="1340"/>
    </contour>
  </outline>
</glyph>
<glyph name="eth" format="2">
  <advance width="1005"/>
  <unicode hex="00F0"/>
  <outline>
    <contour>
      <point x="765" y="376" type="qcurve"/>
      <point x="765" y="490"/>
      <point x="724" y="674"/>
      <point x="649" y="805"/>
      <point x="543" y="875"/>
      <point x="479" y="875" type="qcurve"/>
      <point x="435" y="875"/>
      <point x="354" y="840"/>
      <point x="291" y="757"/>
      <point x="253" y="621"/>
      <point x="252" y="519" type="qcurve"/>
      <point x="251" y="420"/>
      <point x="293" y="246"/>
      <point x="371" y="117"/>
      <point x="481" y="43"/>
      <point x="548" y="43" type="qcurve"/>
      <point x="594" y="43"/>
      <point x="674" y="81"/>
      <point x="732" y="161"/>
      <point x="765" y="287"/>
    </contour>
    <contour>
      <point x="950" y="474" type="qcurve"/>
      <point x="950" y="379"/>
      <point x="889" y="197"/>
      <point x="774" y="56"/>
      <point x="606" y="-30"/>
      <point x="500" y="-30" type="qcurve"/>
      <point x="409" y="-30"/>
      <point x="251" y="42"/>
      <point x="134" y="168"/>
      <point x="67" y="341"/>
      <point x="67" y="442" type="qcurve"/>
      <point x="67" y="538"/>
      <point x="130" y="716"/>
      <point x="242" y="852"/>
      <point x="397" y="934"/>
      <point x="489" y="934" type="qcurve"/>
      <point x="510" y="934"/>
      <point x="546" y="932"/>
      <point x="584" y="922"/>
      <point x="628" y="898"/>
      <point x="658" y="877" type="qcurve"/>
      <point x="618" y="958"/>
      <point x="526" y="1105"/>
      <point x="469" y="1171" type="qcurve"/>
      <point x="220" y="1035" type="line"/>
      <point x="193" y="1090" type="line"/>
      <point x="425" y="1222" type="line"/>
      <point x="393" y="1255"/>
      <point x="348" y="1297"/>
      <point x="308" y="1330"/>
      <point x="267" y="1360"/>
      <point x="239" y="1380" type="qcurve"/>
      <point x="264" y="1423" type="line"/>
      <point x="325" y="1394"/>
      <point x="446" y="1317"/>
      <point x="512" y="1269" type="qcurve"/>
      <point x="761" y="1407" type="line"/>
      <point x="796" y="1352" type="line"/>
      <point x="566" y="1222" type="line"/>
      <point x="658" y="1140"/>
      <point x="801" y="957"/>
      <point x="899" y="765"/>
      <point x="950" y="569"/>
    </contour>
  </outline>
</glyph>
<glyph name="ocircumflex" format="2">
  <advance width="1025"/>
  <unicode hex="00F4"/>
  <outline>
    <component base="o"/>
    <contour>
      <point x="762" y="1042" type="line"/>
      <point x="511" y="1256" type="line"/>
      <point x="261" y="1042" type="line"/>
      <point x="190" y="1042" type="line"/>
      <point x="448" y="1386" type="line"/>
      <point x="576" y="1386" type="line"/>
      <point x="833" y="1042" type="line"/>
    </contour>
  </outline>
</glyph>
<glyph name="odieresis" format="2">
  <advance width="1025"/>
  <unicode hex="00F6"/>
  <outline>
    <component base="o"/>
    <contour>
      <point x="408" y="1228" type="qcurve"/>
      <point x="408" y="1207"/>
      <point x="392" y="1170"/>
      <point x="363" y="1142"/>
      <point x="326" y="1125"/>
      <point x="305" y="1125" type="qcurve"/>
      <point x="285" y="1125"/>
      <point x="249" y="1142"/>
      <point x="221" y="1171"/>
      <point x="205" y="1208"/>
      <point x="205" y="1228" type="qcurve"/>
      <point x="205" y="1247"/>
      <point x="222" y="1284"/>
      <point x="250" y="1312"/>
      <point x="286" y="1330"/>
      <point x="305" y="1330" type="qcurve"/>
      <point x="326" y="1330"/>
      <point x="363" y="1314"/>
      <point x="392" y="1286"/>
      <point x="408" y="1249"/>
    </contour>
    <contour>
      <point x="818" y="1228" type="qcurve"/>
      <point x="818" y="1207"/>
      <point x="802" y="1170"/>
      <point x="773" y="1142"/>
      <point x="736" y="1125"/>
      <point x="715" y="1125" type="qcurve"/>
      <point x="694" y="1125"/>
      <point x="657" y="1142"/>
      <point x="629" y="1171"/>
      <point x="613" y="1208"/>
      <point x="613" y="1228" type="qcurve"/>
      <point x="613" y="1247"/>
      <point x="631" y="1284"/>
      <point x="659" y="1312"/>
      <point x="696" y="1330"/>
      <point x="715" y="1330" type="qcurve"/>
      <point x="736" y="1330"/>
      <point x="773" y="1314"/>
      <point x="802" y="1286"/>
      <point x="818" y="1249"/>
    </contour>
  </outline>
</glyph>
<glyph name="divide" format="2">
  <advance width="1971"/>
  <unicode hex="00F7"/>
  <outline>
    <contour>
      <point x="1104" y="274" type="qcurve"/>
      <point x="1104" y="250"/>
      <point x="1085" y="207"/>
      <point x="1053" y="176"/>
      <point x="1010" y="158"/>
      <point x="985" y="158" type="qcurve"/>
      <point x="961" y="158"/>
      <point x="918" y="176"/>
      <point x="886" y="207"/>
      <point x="867" y="250"/>
      <point x="867" y="274" type="qcurve"/>
      <point x="867" y="299"/>
      <point x="886" y="343"/>
      <point x="918" y="375"/>
      <point x="961" y="393"/>
      <point x="985" y="393" type="qcurve"/>
      <point x="1010" y="393"/>
      <point x="1053" y="375"/>
      <point x="1085" y="343"/>
      <point x="1104" y="299"/>
    </contour>
    <contour>
      <point x="395" y="530" type="line"/>
      <point x="395" y="653" type="line"/>
      <point x="1576" y="653" type="line"/>
      <point x="1576" y="530" type="line"/>
    </contour>
    <contour>
      <point x="1104" y="909" type="qcurve"/>
      <point x="1104" y="883"/>
      <point x="1085" y="840"/>
      <point x="1053" y="808"/>
      <point x="1010" y="790"/>
      <point x="985" y="790" type="qcurve"/>
      <point x="961" y="790"/>
      <point x="918" y="808"/>
      <point x="886" y="840"/>
      <point x="867" y="883"/>
      <point x="867" y="909" type="qcurve"/>
      <point x="867" y="933"/>
      <point x="886" y="976"/>
      <point x="918" y="1008"/>
      <point x="961" y="1027"/>
      <point x="985" y="1027" type="qcurve"/>
      <point x="1010" y="1027"/>
      <point x="1053" y="1008"/>
      <point x="1085" y="976"/>
      <point x="1104" y="933"/>
    </contour>
  </outline>
</glyph>
<glyph name="ugrave" format="2">
  <advance width="1025"/>
  <unicode hex="00F9"/>
  <outline>
    <component base="u"/>
    <contour>
      <point x="607" y="1042" type="line"/>
      <point x="312" y="1230" type="line"/>
      <point x="299" y="1238"/>
      <point x="268" y="1257"/>
      <point x="241" y="1280"/>
      <point x="223" y="1305"/>
      <point x="223" y="1318" type="qcurve"/>
      <point x="223" y="1354"/>
      <point x="257" y="1395"/>
      <point x="287" y="1395" type="qcurve"/>
      <point x="313" y="1395"/>
      <point x="378" y="1357"/>
      <point x="406" y="1328" type="qcurve"/>
      <point x="690" y="1042" type="line"/>
    </contour>
  </outline>
</glyph>
<glyph name="udieresis" format="2">
  <advance width="1025"/>
  <unicode hex="00FC"/>
  <outline>
    <component base="u"/>
    <contour>
      <point x="410" y="1228" type="qcurve"/>
      <point x="410" y="1207"/>
      <point x="394" y="1170"/>
      <point x="365" y="1142"/>
      <point x="328" y="1125"/>
      <point x="307" y="1125" type="qcurve"/>
      <point x="287" y="1125"/>
      <point x="251" y="1142"/>
      <point x="223" y="1171"/>
      <point x="207" y="1208"/>
      <point x="207" y="1228" type="qcurve"/>
      <point x="207" y="1247"/>
      <point x="224" y="1284"/>
      <point x="252" y="1312"/>
      <point x="288" y="1330"/>
      <point x="307" y="1330" type="qcurve"/>
      <point x="328" y="1330"/>
      <point x="365" y="1314"/>
      <point x="394" y="1286"/>
      <point x="410" y="1249"/>
    </contour>
    <contour>
      <point x="820" y="1228" type="qcurve"/>
      <point x="820" y="1207"/>
      <point x="804" y="1170"/>
      <point x="775" y="1142"/>
      <point x="738" y="1125"/>
      <point x="717" y="1125" type="qcurve"/>
      <point x="696" y="1125"/>
      <point x="659" y="1142"/>
      <point x="631" y="1171"/>
      <point x="615" y="1208"/>
      <point x="615" y="1228" type="qcurve"/>
      <point x="615" y="1247"/>
      <point x="633" y="1284"/>
      <point x="661" y="1312"/>
      <point x="698" y="1330"/>
      <point x="717" y="1330" type="qcurve"/>
      <point x="738" y="1330"/>
      <point x="775" y="1314"/>
      <point x="804" y="1286"/>
      <point x="820" y="1249"/>
    </contour>
  </outline>
</glyph>
<glyph name="yacute" format="2">
  <advance width="1025"/>
  <unicode hex="00FD"/>
  <outline>
    <component base="y"/>
    <contour>
      <point x="837" y="1330" type="qcurve"/>
      <point x="837" y="1301"/>
      <point x="786" y="1251"/>
      <point x="754" y="1230" type="qcurve"/>
      <point x="458" y="1042" type="line"/>
      <point x="376" y="1042" type="line"/>
      <point x="660" y="1328" type="line"/>
      <point x="686" y="1355"/>
      <point x="751" y="1395"/>
      <point x="784" y="1395" type="qcurve"/>
      <point x="792" y="1395"/>
      <point x="810" y="1383"/>
      <point x="826" y="1363"/>
      <point x="837" y="1340"/>
    </contour>
  </outline>
</glyph>
<glyph name="thorn" format="2">
  <advance width="1005"/>
  <unicode hex="00FE"/>
  <outline>
    <contour>
      <point x="777" y="398" type="qcurve"/>
      <point x="777" y="485"/>
      <point x="743" y="632"/>
      <point x="679" y="740"/>
      <point x="588" y="800"/>
      <point x="532" y="800" type="qcurve"/>
      <point x="511" y="800"/>
      <point x="474" y="795"/>
      <point x="429" y="770"/>
      <point x="366" y="715"/>
      <point x="318" y="666" type="qcurve"/>
      <point x="318" y="323" type="line"/>
      <point x="318" y="216"/>
      <point x="327" y="177" type="qcurve"/>
      <point x="334" y="151"/>
      <point x="366" y="99"/>
      <point x="418" y="59"/>
      <point x="488" y="33"/>
      <point x="532" y="32" type="qcurve"/>
      <point x="588" y="31"/>
      <point x="679" y="82"/>
      <point x="743" y="177"/>
      <point x="777" y="313"/>
    </contour>
    <contour>
      <point x="956" y="493" type="qcurve"/>
      <point x="956" y="385"/>
      <point x="896" y="196"/>
      <point x="786" y="54"/>
      <point x="631" y="-29"/>
      <point x="536" y="-30" type="qcurve"/>
      <point x="506" y="-30"/>
      <point x="454" y="-26"/>
      <point x="404" y="-9"/>
      <point x="350" y="24"/>
      <point x="318" y="53" type="qcurve"/>
      <point x="318" y="-224" type="line"/>
      <point x="318" y="-278"/>
      <point x="326" y="-345"/>
      <point x="357" y="-383"/>
      <point x="420" y="-397"/>
      <point x="474" y="-400" type="qcurve"/>
      <point x="474" y="-438" type="line"/>
      <point x="-8" y="-438" type="line"/>
      <point x="-8" y="-400" type="line"/>
      <point x="45" y="-397"/>
      <point x="109" y="-387"/>
      <point x="142" y="-351"/>
      <point x="152" y="-282"/>
      <point x="152" y="-220" type="qcurve"/>
      <point x="152" y="1130" type="line"/>
      <point x="152" y="1175"/>
      <point x="149" y="1229"/>
      <point x="142" y="1259"/>
      <point x="128" y="1273"/>
      <point x="118" y="1279" type="qcurve"/>
      <point x="103" y="1290"/>
      <point x="56" y="1295"/>
      <point x="10" y="1277" type="qcurve"/>
      <point x="-2" y="1311" type="line"/>
      <point x="280" y="1423" type="line"/>
      <point x="318" y="1423" type="line"/>
      <point x="318" y="726" type="line"/>
      <point x="353" y="786"/>
      <point x="423" y="869"/>
      <point x="495" y="920"/>
      <point x="571" y="942"/>
      <point x="613" y="942" type="qcurve"/>
      <point x="689" y="942"/>
      <point x="815" y="873"/>
      <point x="906" y="752"/>
      <point x="956" y="588"/>
    </contour>
  </outline>
</glyph>
<glyph name="OE" format="2">
  <advance width="1823"/>
  <unicode hex="0152"/>
  <outline>
    <contour>
      <point x="912" y="1042" type="line"/>
      <point x="912" y="1108"/>
      <point x="904" y="1192"/>
      <point x="893" y="1215" type="qcurve"/>
      <point x="854" y="1305"/>
      <point x="713" y="1305" type="qcurve"/>
      <point x="611" y="1305"/>
      <point x="458" y="1215"/>
      <point x="356" y="1048"/>
      <point x="305" y="813"/>
      <point x="305" y="668" type="qcurve"/>
      <point x="305" y="593"/>
      <point x="323" y="443"/>
      <point x="363" y="307"/>
      <point x="426" y="190"/>
      <point x="516" y="104"/>
      <point x="634" y="55"/>
      <point x="709" y="55" type="qcurve"/>
      <point x="859" y="55"/>
      <point x="895" y="152" type="qcurve"/>
      <point x="912" y="196"/>
      <point x="912" y="341" type="qcurve"/>
    </contour>
    <contour>
      <point x="1655" y="0" type="line"/>
      <point x="1001" y="0" type="line"/>
      <point x="997" y="0"/>
      <point x="956" y="-2"/>
      <point x="896" y="-6"/>
      <point x="825" y="-9"/>
      <point x="758" y="-13"/>
      <point x="703" y="-15"/>
      <point x="688" y="-15" type="qcurve"/>
      <point x="552" y="-15"/>
      <point x="326" y="92"/>
      <point x="164" y="279"/>
      <point x="75" y="531"/>
      <point x="75" y="676" type="qcurve"/>
      <point x="75" y="820"/>
      <point x="160" y="1073"/>
      <point x="322" y="1261"/>
      <point x="558" y="1369"/>
      <point x="709" y="1369" type="qcurve"/>
      <point x="722" y="1369"/>
      <point x="817" y="1365"/>
      <point x="905" y="1362" type="qcurve"/>
      <point x="973" y="1359"/>
      <point x="1107" y="1356"/>
      <point x="1171" y="1356" type="qcurve"/>
      <point x="1644" y="1356" type="line"/>
      <point x="1655" y="1061" type="line"/>
      <point x="1625" y="1061" type="line"/>
      <point x="1612" y="1119"/>
      <point x="1599" y="1193"/>
      <point x="1583" y="1210" type="qcurve"/>
      <point x="1574" y="1220"/>
      <point x="1558" y="1245"/>
      <point x="1516" y="1267"/>
      <point x="1435" y="1283"/>
      <point x="1362" y="1283" type="qcurve"/>
      <point x="1106" y="1283" type="line"/>
      <point x="1106" y="749" type="line"/>
      <point x="1287" y="749" type="line"/>
      <point x="1345" y="749"/>
      <point x="1427" y="771"/>
      <point x="1450" y="796" type="qcurve"/>
      <point x="1476" y="819"/>
      <point x="1497" y="891"/>
      <point x="1497" y="942" type="qcurve"/>
      <point x="1537" y="942" type="line"/>
      <point x="1537" y="471" type="line"/>
      <point x="1497" y="471" type="line"/>
      <point x="1490" y="593"/>
      <point x="1446" y="632" type="qcurve"/>
      <point x="1406" y="672"/>
      <point x="1287" y="672" type="qcurve"/>
      <point x="1106" y="672" type="line"/>
      <point x="1106" y="224" type="line"/>
      <point x="1106" y="173"/>
      <point x="1114" y="114"/>
      <point x="1140" y="84"/>
      <point x="1186" y="75"/>
      <point x="1224" y="75" type="qcurve"/>
      <point x="1330" y="75" type="line"/>
      <point x="1375" y="75"/>
      <point x="1449" y="80"/>
      <point x="1513" y="95"/>
      <point x="1569" y="124"/>
      <point x="1595" y="148" type="qcurve"/>
      <point x="1632" y="183"/>
      <point x="1698" y="278"/>
      <point x="1725" y="341" type="qcurve"/>
      <point x="1764" y="341" type="line"/>
    </contour>
  </outline>
</glyph>
<glyph name="Zcaron" format="2">
  <advance width="1251"/>
  <unicode hex="017D"/>
  <outline>
    <component base="Z"/>
    <contour>
      <point x="676" y="1477" type="line"/>
      <point x="548" y="1477" type="line"/>
      <point x="290" y="1821" type="line"/>
      <point x="361" y="1821" type="line"/>
      <point x="611" y="1610" type="line"/>
      <point x="862" y="1821" type="line"/>
      <point x="933" y="1821" type="line"/>
    </contour>
  </outline>
</glyph>
<glyph name="zcaron" format="2">
  <advance width="910"/>
  <unicode hex="017E"/>
  <outline>
    <component base="z"/>
    <contour>
      <point x="524" y="1042" type="line"/>
      <point x="396" y="1042" type="line"/>
      <point x="138" y="1386" type="line"/>
      <point x="209" y="1386" type="line"/>
      <point x="459" y="1175" type="line"/>
      <point x="710" y="1386" type="line"/>
      <point x="781" y="1386" type="line"/>
    </contour>
  </outline>
</glyph>
<glyph name="uni02B9" format="2">
  <advance width="612"/>
  <unicode hex="02B9"/>
  <anchor x="313" y="1870" name="A"/>
  <anchor x="313" y="-100" name="L"/>
  <anchor x="313" y="1435" name="U"/>
  <outline>
    <contour>
      <point x="508" y="1244" type="line"/>
      <point x="514" y="1253"/>
      <point x="526" y="1280"/>
      <point x="526" y="1297" type="qcurve"/>
      <point x="526" y="1328"/>
      <point x="481" y="1378"/>
      <point x="429" y="1378" type="qcurve"/>
      <point x="402" y="1378"/>
      <point x="359" y="1358"/>
      <point x="344" y="1346" type="qcurve"/>
      <point x="326" y="1332"/>
      <point x="313" y="1314" type="qcurve"/>
      <point x="80" y="825" type="line"/>
      <point x="198" y="825" type="line"/>
    </contour>
  </outline>
</glyph>
<glyph name="ring" format="2">
  <advance width="382"/>
  <unicode hex="02DA"/>
  <outline>
    <contour>
      <point x="314" y="1234" type="qcurve"/>
      <point x="314" y="1261"/>
      <point x="293" y="1306"/>
      <point x="259" y="1338"/>
      <point x="216" y="1356"/>
      <point x="193" y="1356" type="qcurve"/>
      <point x="168" y="1356"/>
      <point x="123" y="1338"/>
      <point x="89" y="1306"/>
      <point x="69" y="1261"/>
      <point x="69" y="1234" type="qcurve"/>
      <point x="69" y="1205"/>
      <point x="90" y="1160"/>
      <point x="125" y="1128"/>
      <point x="169" y="1112"/>
      <point x="193" y="1112" type="qcurve"/>
      <point x="218" y="1112"/>
      <point x="262" y="1132"/>
      <point x="295" y="1165"/>
      <point x="314" y="1209"/>
    </contour>
    <contour>
      <point x="382" y="1234" type="qcurve"/>
      <point x="382" y="1191"/>
      <point x="350" y="1120"/>
      <point x="297" y="1070"/>
      <point x="229" y="1042"/>
      <point x="193" y="1042" type="qcurve"/>
      <point x="157" y="1042"/>
      <point x="88" y="1070"/>
      <point x="34" y="1120"/>
      <point x="0" y="1191"/>
      <point x="0" y="1234" type="qcurve"/>
      <point x="0" y="1277"/>
      <point x="31" y="1347"/>
      <point x="84" y="1397"/>
      <point x="154" y="1425"/>
      <point x="193" y="1425" type="qcurve"/>
      <point x="229" y="1425"/>
      <point x="297" y="1398"/>
      <point x="350" y="1349"/>
      <point x="382" y="1278"/>
    </contour>
  </outline>
</glyph>
<glyph name="uni0323" format="2">
  <unicode hex="0323"/>
  <anchor x="-512" y="-500" name="L"/>
  <anchor x="-512" y="-100" name="_L"/>
  <outline>
    <contour>
      <point x="-410" y="-288" type="qcurve"/>
      <point x="-410" y="-309"/>
      <point x="-426" y="-346"/>
      <point x="-455" y="-374"/>
      <point x="-492" y="-391"/>
      <point x="-513" y="-391" type="qcurve"/>
      <point x="-533" y="-391"/>
      <point x="-569" y="-374"/>
      <point x="-597" y="-345"/>
      <point x="-613" y="-308"/>
      <point x="-613" y="-288" type="qcurve"/>
      <point x="-613" y="-269"/>
      <point x="-596" y="-232"/>
      <point x="-568" y="-204"/>
      <point x="-532" y="-186"/>
      <point x="-513" y="-186" type="qcurve"/>
      <point x="-492" y="-186"/>
      <point x="-455" y="-202"/>
      <point x="-426" y="-230"/>
      <point x="-410" y="-267"/>
    </contour>
  </outline>
</glyph>
<glyph name="uni0338" format="2">
  <unicode hex="0338"/>
  <anchor x="-528" y="517" name="_C"/>
  <outline>
    <contour>
      <point x="-77" y="1210" type="line"/>
      <point x="-134" y="1243" type="line"/>
      <point x="-918" y="-229" type="line"/>
      <point x="-860" y="-261" type="line"/>
    </contour>
  </outline>
</glyph>
<glyph name="uni2010" format="2">
  <advance width="808"/>
  <unicode hex="2010"/>
  <anchor x="404" y="1870" name="A"/>
  <anchor x="404" y="-100" name="L"/>
  <anchor x="404" y="1435" name="U"/>
  <outline>
    <contour>
      <point x="100" y="382" type="line"/>
      <point x="100" y="534" type="line"/>
      <point x="708" y="534" type="line"/>
      <point x="708" y="382" type="line"/>
    </contour>
  </outline>
</glyph>
<glyph name="endash" format="2">
  <advance width="985"/>
  <unicode hex="2013"/>
  <anchor x="492" y="1870" name="A"/>
  <anchor x="492" y="-100" name="L"/>
  <anchor x="536" y="767" name="U"/>
  <outline>
    <contour>
      <point x="-43" y="382" type="line"/>
      <point x="-43" y="534" type="line"/>
      <point x="1015" y="534" type="line"/>
      <point x="1015" y="382" type="line"/>
    </contour>
  </outline>
</glyph>
<glyph name="emdash" format="2">
  <advance width="1971"/>
  <unicode hex="2014"/>
  <anchor x="985" y="1870" name="A"/>
  <anchor x="985" y="-100" name="L"/>
  <anchor x="985" y="1435" name="U"/>
  <outline>
    <contour>
      <point x="0" y="382" type="line"/>
      <point x="0" y="534" type="line"/>
      <point x="1971" y="534" type="line"/>
      <point x="1971" y="382" type="line"/>
    </contour>
  </outline>
</glyph>
<glyph name="quotesinglbase" format="2">
  <advance width="682"/>
  <unicode hex="201A"/>
  <outline>
    <contour>
      <point x="499" y="0" type="qcurve"/>
      <point x="499" y="-52"/>
      <point x="471" y="-137"/>
      <point x="426" y="-203"/>
      <point x="370" y="-254"/>
      <point x="312" y="-290"/>
      <point x="258" y="-314"/>
      <point x="239" y="-320" type="qcurve"/>
      <point x="239" y="-276" type="line"/>
      <point x="266" y="-261"/>
      <point x="324" y="-222"/>
      <point x="374" y="-173"/>
      <point x="406" y="-110"/>
      <point x="406" y="-69" type="qcurve"/>
      <point x="406" y="-50"/>
      <point x="397" y="-26"/>
      <point x="385" y="-12"/>
      <point x="372" y="-8"/>
      <point x="369" y="-8" type="qcurve"/>
      <point x="355" y="-8"/>
      <point x="314" y="-24"/>
      <point x="294" y="-24" type="qcurve"/>
      <point x="277" y="-24"/>
      <point x="241" y="-10"/>
      <point x="212" y="18"/>
      <point x="193" y="57"/>
      <point x="193" y="83" type="qcurve"/>
      <point x="193" y="113"/>
      <point x="219" y="156"/>
      <point x="258" y="185"/>
      <point x="304" y="199"/>
      <point x="325" y="199" type="qcurve"/>
      <point x="355" y="199"/>
      <point x="417" y="171"/>
      <point x="467" y="119"/>
      <point x="499" y="46"/>
    </contour>
  </outline>
</glyph>
<glyph name="quotedblleft" format="2">
  <advance width="1042"/>
  <unicode hex="201C"/>
  <outline>
    <contour>
      <point x="372" y="989" type="qcurve"/>
      <point x="372" y="959"/>
      <point x="346" y="916"/>
      <point x="307" y="887"/>
      <point x="261" y="873"/>
      <point x="241" y="873" type="qcurve"/>
      <point x="211" y="873"/>
      <point x="149" y="901"/>
      <point x="99" y="953"/>
      <point x="67" y="1026"/>
      <point x="67" y="1072" type="qcurve"/>
      <point x="67" y="1124"/>
      <point x="95" y="1209"/>
      <point x="140" y="1275"/>
      <point x="196" y="1326"/>
      <point x="254" y="1362"/>
      <point x="308" y="1385"/>
      <point x="327" y="1392" type="qcurve"/>
      <point x="327" y="1348" type="line"/>
      <point x="300" y="1333"/>
      <point x="242" y="1294"/>
      <point x="192" y="1245"/>
      <point x="160" y="1181"/>
      <point x="160" y="1141" type="qcurve"/>
      <point x="160" y="1122"/>
      <point x="169" y="1098"/>
      <point x="181" y="1085"/>
      <point x="194" y="1080"/>
      <point x="197" y="1080" type="qcurve"/>
      <point x="211" y="1080"/>
      <point x="252" y="1096"/>
      <point x="272" y="1096" type="qcurve"/>
      <point x="289" y="1096"/>
      <point x="325" y="1082"/>
      <point x="354" y="1054"/>
      <point x="372" y="1014"/>
    </contour>
    <contour>
      <point x="852" y="987" type="qcurve"/>
      <point x="852" y="958"/>
      <point x="826" y="914"/>
      <point x="787" y="885"/>
      <point x="741" y="871"/>
      <point x="720" y="871" type="qcurve"/>
      <point x="690" y="871"/>
      <point x="628" y="899"/>
      <point x="578" y="951"/>
      <point x="546" y="1024"/>
      <point x="546" y="1070" type="qcurve"/>
      <point x="546" y="1122"/>
      <point x="574" y="1207"/>
      <point x="619" y="1273"/>
      <point x="675" y="1324"/>
      <point x="733" y="1360"/>
      <point x="787" y="1383"/>
      <point x="806" y="1390" type="qcurve"/>
      <point x="806" y="1346" type="line"/>
      <point x="779" y="1331"/>
      <point x="721" y="1292"/>
      <point x="671" y="1243"/>
      <point x="639" y="1179"/>
      <point x="639" y="1139" type="qcurve"/>
      <point x="639" y="1120"/>
      <point x="648" y="1096"/>
      <point x="660" y="1083"/>
      <point x="672" y="1078"/>
      <point x="676" y="1078" type="qcurve"/>
      <point x="690" y="1078"/>
      <point x="732" y="1094"/>
      <point x="751" y="1094" type="qcurve"/>
      <point x="768" y="1094"/>
      <point x="804" y="1080"/>
      <point x="833" y="1052"/>
      <point x="852" y="1012"/>
    </contour>
  </outline>
</glyph>
<glyph name="daggerdbl" format="2">
  <advance width="1025"/>
  <unicode hex="2021"/>
  <outline>
    <contour>
      <point x="885" y="-13" type="qcurve"/>
      <point x="885" y="-38"/>
      <point x="870" y="-73"/>
      <point x="844" y="-96"/>
      <point x="810" y="-107"/>
      <point x="792" y="-107" type="qcurve"/>
      <point x="773" y="-107"/>
      <point x="711" y="-86"/>
      <point x="666" y="-69" type="qcurve"/>
      <point x="642" y="-58"/>
      <point x="579" y="-39"/>
      <point x="530" y="-38" type="qcurve"/>
      <point x="530" y="-54"/>
      <point x="538" y="-93"/>
      <point x="549" y="-131"/>
      <point x="561" y="-164"/>
      <point x="566" y="-173" type="qcurve"/>
      <point x="590" y="-228"/>
      <point x="615" y="-308"/>
      <point x="615" y="-337" type="qcurve"/>
      <point x="615" y="-361"/>
      <point x="598" y="-401"/>
      <point x="569" y="-429"/>
      <point x="532" y="-444"/>
      <point x="512" y="-444" type="qcurve"/>
      <point x="496" y="-444"/>
      <point x="461" y="-429"/>
      <point x="431" y="-401"/>
      <point x="412" y="-361"/>
      <point x="412" y="-335" type="qcurve"/>
      <point x="412" y="-304"/>
      <point x="443" y="-214"/>
      <point x="459" y="-169" type="qcurve"/>
      <point x="482" y="-107"/>
      <point x="491" y="-38" type="qcurve"/>
      <point x="436" y="-38"/>
      <point x="370" y="-61"/>
      <point x="345" y="-73" type="qcurve"/>
      <point x="307" y="-89"/>
      <point x="252" y="-107"/>
      <point x="233" y="-107" type="qcurve"/>
      <point x="217" y="-107"/>
      <point x="184" y="-98"/>
      <point x="158" y="-77"/>
      <point x="141" y="-43"/>
      <point x="141" y="-17" type="qcurve"/>
      <point x="141" y="8"/>
      <point x="159" y="42"/>
      <point x="188" y="63"/>
      <point x="222" y="73"/>
      <point x="239" y="73" type="qcurve"/>
      <point x="256" y="73"/>
      <point x="312" y="58"/>
      <point x="351" y="41" type="qcurve"/>
      <point x="363" y="36"/>
      <point x="387" y="25"/>
      <point x="419" y="15"/>
      <point x="461" y="8"/>
      <point x="491" y="8" type="qcurve"/>
      <point x="485" y="37"/>
      <point x="472" y="81"/>
      <point x="463" y="100" type="qcurve"/>
      <point x="445" y="130"/>
      <point x="395" y="169" type="qcurve"/>
      <point x="405" y="185"/>
      <point x="439" y="239"/>
      <point x="470" y="319"/>
      <point x="493" y="427"/>
      <point x="493" y="497" type="qcurve"/>
      <point x="493" y="569"/>
      <point x="471" y="674"/>
      <point x="440" y="748"/>
      <point x="406" y="795"/>
      <point x="395" y="808" type="qcurve"/>
      <point x="418" y="825"/>
      <point x="451" y="859"/>
      <point x="459" y="875" type="qcurve"/>
      <point x="470" y="890"/>
      <point x="483" y="943"/>
      <point x="491" y="978" type="qcurve"/>
      <point x="480" y="977"/>
      <point x="458" y="976"/>
      <point x="426" y="968"/>
      <point x="380" y="952"/>
      <point x="345" y="936" type="qcurve"/>
      <point x="312" y="921"/>
      <point x="252" y="910"/>
      <point x="227" y="910" type="qcurve"/>
      <point x="194" y="910"/>
      <point x="140" y="951"/>
      <point x="140" y="997" type="qcurve"/>
      <point x="140" y="1038"/>
      <point x="189" y="1084"/>
      <point x="224" y="1084" type="qcurve"/>
      <point x="248" y="1084"/>
      <point x="313" y="1066"/>
      <point x="357" y="1049" type="qcurve"/>
      <point x="387" y="1036"/>
      <point x="430" y="1023"/>
      <point x="460" y="1017"/>
      <point x="481" y="1016"/>
      <point x="491" y="1015" type="qcurve"/>
      <point x="491" y="1025"/>
      <point x="486" y="1058"/>
      <point x="476" y="1098"/>
      <point x="462" y="1143"/>
      <point x="453" y="1165" type="qcurve"/>
      <point x="448" y="1178"/>
      <point x="433" y="1214"/>
      <point x="420" y="1255"/>
      <point x="410" y="1295"/>
      <point x="410" y="1313" type="qcurve"/>
      <point x="410" y="1333"/>
      <point x="423" y="1372"/>
      <point x="449" y="1404"/>
      <point x="487" y="1423"/>
      <point x="512" y="1423" type="qcurve"/>
      <point x="539" y="1423"/>
      <point x="577" y="1402"/>
      <point x="599" y="1369"/>
      <point x="609" y="1329"/>
      <point x="609" y="1309" type="qcurve"/>
      <point x="609" y="1288"/>
      <point x="601" y="1252"/>
      <point x="588" y="1218"/>
      <point x="573" y="1184"/>
      <point x="566" y="1166" type="qcurve"/>
      <point x="536" y="1095"/>
      <point x="530" y="1015" type="qcurve"/>
      <point x="553" y="1017"/>
      <point x="624" y="1029"/>
      <point x="664" y="1049" type="qcurve"/>
      <point x="690" y="1060"/>
      <point x="756" y="1084"/>
      <point x="796" y="1084" type="qcurve"/>
      <point x="832" y="1084"/>
      <point x="885" y="1042"/>
      <point x="885" y="995" type="qcurve"/>
      <point x="885" y="972"/>
      <point x="869" y="940"/>
      <point x="842" y="919"/>
      <point x="808" y="909"/>
      <point x="790" y="909" type="qcurve"/>
      <point x="776" y="909"/>
      <point x="742" y="915"/>
      <point x="708" y="924"/>
      <point x="677" y="935"/>
      <point x="666" y="940" type="qcurve"/>
      <point x="634" y="955"/>
      <point x="592" y="969"/>
      <point x="563" y="975"/>
      <point x="541" y="976"/>
      <point x="530" y="978" type="qcurve"/>
      <point x="533" y="944"/>
      <point x="547" y="897"/>
      <point x="558" y="879" type="qcurve"/>
      <point x="573" y="846"/>
      <point x="625" y="808" type="qcurve"/>
      <point x="612" y="789"/>
      <point x="579" y="737"/>
      <point x="550" y="661"/>
      <point x="530" y="555"/>
      <point x="530" y="483" type="qcurve"/>
      <point x="530" y="416"/>
      <point x="549" y="316"/>
      <point x="577" y="241"/>
      <point x="611" y="188"/>
      <point x="625" y="169" type="qcurve"/>
      <point x="601" y="150"/>
      <point x="567" y="113"/>
      <point x="558" y="96" type="qcurve"/>
      <point x="549" y="80"/>
      <point x="535" y="38"/>
      <point x="530" y="6" type="qcurve"/>
      <point x="565" y="8"/>
      <point x="632" y="26"/>
      <point x="658" y="39" type="qcurve"/>
      <point x="701" y="56"/>
      <point x="766" y="73"/>
      <point x="792" y="73" type="qcurve"/>
      <point x="810" y="73"/>
      <point x="843" y="61"/>
      <point x="869" y="39"/>
      <point x="885" y="7"/>
    </contour>
  </outline>
</glyph>
<glyph name="ellipsis" format="2">
  <advance width="2054"/>
  <unicode hex="2026"/>
  <outline>
    <contour>
      <point x="453" y="85" type="qcurve"/>
      <point x="453" y="62"/>
      <point x="437" y="20"/>
      <point x="408" y="-11"/>
      <point x="367" y="-30"/>
      <point x="343" y="-30" type="qcurve"/>
      <point x="317" y="-30"/>
      <point x="276" y="-11"/>
      <point x="248" y="20"/>
      <point x="233" y="62"/>
      <point x="233" y="85" type="qcurve"/>
      <point x="233" y="133"/>
      <point x="295" y="195"/>
      <point x="343" y="195" type="qcurve"/>
      <point x="365" y="195"/>
      <point x="405" y="179"/>
      <point x="435" y="150"/>
      <point x="453" y="109"/>
    </contour>
    <contour>
      <point x="1136" y="85" type="qcurve"/>
      <point x="1136" y="62"/>
      <point x="1120" y="20"/>
      <point x="1090" y="-11"/>
      <point x="1049" y="-30"/>
      <point x="1025" y="-30" type="qcurve"/>
      <point x="999" y="-30"/>
      <point x="958" y="-11"/>
      <point x="929" y="20"/>
      <point x="914" y="62"/>
      <point x="914" y="85" type="qcurve"/>
      <point x="914" y="109"/>
      <point x="931" y="149"/>
      <point x="960" y="178"/>
      <point x="1001" y="195"/>
      <point x="1025" y="195" type="qcurve"/>
      <point x="1047" y="195"/>
      <point x="1087" y="179"/>
      <point x="1118" y="150"/>
      <point x="1136" y="109"/>
    </contour>
    <contour>
      <point x="1821" y="85" type="qcurve"/>
      <point x="1821" y="62"/>
      <point x="1805" y="20"/>
      <point x="1776" y="-11"/>
      <point x="1735" y="-30"/>
      <point x="1711" y="-30" type="qcurve"/>
      <point x="1685" y="-30"/>
      <point x="1644" y="-11"/>
      <point x="1615" y="20"/>
      <point x="1600" y="62"/>
      <point x="1600" y="85" type="qcurve"/>
      <point x="1600" y="133"/>
      <point x="1663" y="195"/>
      <point x="1711" y="195" type="qcurve"/>
      <point x="1733" y="195"/>
      <point x="1773" y="179"/>
      <point x="1803" y="150"/>
      <point x="1821" y="109"/>
    </contour>
  </outline>
</glyph>
<glyph name="uni2070" format="2">
  <advance width="737"/>
  <unicode hex="2070"/>
  <anchor x="369" y="750" name="L"/>
  <anchor x="369" y="1625" name="U"/>
  <outline>
    <contour>
      <point x="686" y="1220" type="qcurve"/>
      <point x="686" y="1317"/>
      <point x="634" y="1472"/>
      <point x="547" y="1580"/>
      <point x="433" y="1638"/>
      <point x="371" y="1638" type="qcurve"/>
      <point x="308" y="1638"/>
      <point x="192" y="1576"/>
      <point x="104" y="1464"/>
      <point x="51" y="1305"/>
      <point x="51" y="1208" type="qcurve"/>
      <point x="51" y="1129"/>
      <point x="95" y="979"/>
      <point x="177" y="863"/>
      <point x="293" y="792"/>
      <point x="365" y="792" type="qcurve"/>
      <point x="443" y="792"/>
      <point x="563" y="864"/>
      <point x="644" y="984"/>
      <point x="686" y="1138"/>
    </contour>
    <contour>
      <point x="544" y="1247" type="qcurve"/>
      <point x="544" y="1129"/>
      <point x="518" y="969"/>
      <point x="471" y="872"/>
      <point x="406" y="830"/>
      <point x="367" y="830" type="qcurve"/>
      <point x="288" y="830"/>
      <point x="193" y="1012"/>
      <point x="193" y="1194" type="qcurve"/>
      <point x="193" y="1316"/>
      <point x="226" y="1473"/>
      <point x="277" y="1564"/>
      <point x="341" y="1599"/>
      <point x="371" y="1599" type="qcurve"/>
      <point x="413" y="1599"/>
      <point x="478" y="1550"/>
      <point x="521" y="1459"/>
      <point x="544" y="1329"/>
    </contour>
  </outline>
</glyph>
<glyph name="uni2080" format="2">
  <advance width="737"/>
  <unicode hex="2080"/>
  <outline>
    <contour>
      <point x="686" y="-10" type="qcurve"/>
      <point x="686" y="87"/>
      <point x="634" y="242"/>
      <point x="547" y="350"/>
      <point x="433" y="408"/>
      <point x="371" y="408" type="qcurve"/>
      <point x="308" y="408"/>
      <point x="192" y="346"/>
      <point x="104" y="234"/>
      <point x="51" y="75"/>
      <point x="51" y="-22" type="qcurve"/>
      <point x="51" y="-101"/>
      <point x="95" y="-251"/>
      <point x="177" y="-367"/>
      <point x="293" y="-438"/>
      <point x="365" y="-438" type="qcurve"/>
      <point x="443" y="-438"/>
      <point x="563" y="-366"/>
      <point x="644" y="-246"/>
      <point x="686" y="-92"/>
    </contour>
    <contour>
      <point x="544" y="17" type="qcurve"/>
      <point x="544" y="-101"/>
      <point x="518" y="-261"/>
      <point x="471" y="-358"/>
      <point x="406" y="-400"/>
      <point x="367" y="-400" type="qcurve"/>
      <point x="288" y="-400"/>
      <point x="193" y="-218"/>
      <point x="193" y="-36" type="qcurve"/>
      <point x="193" y="87"/>
      <point x="226" y="244"/>
      <point x="277" y="335"/>
      <point x="341" y="369"/>
      <point x="371" y="369" type="qcurve"/>
      <point x="414" y="369"/>
      <point x="478" y="320"/>
      <point x="522" y="229"/>
      <point x="544" y="99"/>
    </contour>
  </outline>
</glyph>
<glyph name="uni2081" format="2">
  <advance width="737"/>
  <unicode hex="2081"/>
  <outline>
    <contour>
      <point x="558" y="-423" type="line"/>
      <point x="558" y="-402" type="line"/>
      <point x="512" y="-402"/>
      <point x="463" y="-393"/>
      <point x="440" y="-367"/>
      <point x="436" y="-319"/>
      <point x="436" y="-280" type="qcurve"/>
      <point x="436" y="408" type="line"/>
      <point x="410" y="408" type="line"/>
      <point x="173" y="312" type="line"/>
      <point x="183" y="292" type="line"/>
      <point x="237" y="312"/>
      <point x="292" y="307"/>
      <point x="315" y="268"/>
      <point x="316" y="201"/>
      <point x="316" y="160" type="qcurve"/>
      <point x="316" y="-280" type="line"/>
      <point x="316" y="-318"/>
      <point x="311" y="-366"/>
      <point x="287" y="-393"/>
      <point x="236" y="-402"/>
      <point x="190" y="-402" type="qcurve"/>
      <point x="190" y="-423" type="line"/>
    </contour>
  </outline>
</glyph>
<glyph name="uni2083" format="2">
  <advance width="737"/>
  <unicode hex="2083"/>
  <outline>
    <contour>
      <point x="615" y="-154" type="qcurve"/>
      <point x="615" y="-102"/>
      <point x="576" y="-28"/>
      <point x="520" y="22"/>
      <point x="458" y="51"/>
      <point x="434" y="59" type="qcurve"/>
      <point x="501" y="107"/>
      <point x="566" y="200"/>
      <point x="566" y="243" type="qcurve"/>
      <point x="566" y="259"/>
      <point x="548" y="315"/>
      <point x="499" y="369"/>
      <point x="410" y="408"/>
      <point x="339" y="408" type="qcurve"/>
      <point x="273" y="408"/>
      <point x="181" y="368"/>
      <point x="120" y="313"/>
      <point x="85" y="254"/>
      <point x="75" y="235" type="qcurve"/>
      <point x="98" y="224" type="line"/>
      <point x="172" y="325"/>
      <point x="286" y="325" type="qcurve"/>
      <point x="309" y="325"/>
      <point x="366" y="311"/>
      <point x="415" y="280"/>
      <point x="448" y="227"/>
      <point x="448" y="188" type="qcurve"/>
      <point x="448" y="150"/>
      <point x="420" y="94"/>
      <point x="377" y="52"/>
      <point x="324" y="24"/>
      <point x="274" y="7"/>
      <point x="233" y="-1"/>
      <point x="224" y="-2" type="qcurve"/>
      <point x="224" y="-19" type="line"/>
      <point x="304" y="-20"/>
      <point x="366" y="-42" type="qcurve"/>
      <point x="393" y="-51"/>
      <point x="444" y="-81"/>
      <point x="484" y="-126"/>
      <point x="508" y="-187"/>
      <point x="508" y="-227" type="qcurve"/>
      <point x="508" y="-263"/>
      <point x="475" y="-322"/>
      <point x="422" y="-363"/>
      <point x="357" y="-386"/>
      <point x="325" y="-386" type="qcurve"/>
      <point x="288" y="-386"/>
      <point x="235" y="-369"/>
      <point x="189" y="-348"/>
      <point x="145" y="-331"/>
      <point x="118" y="-331" type="qcurve"/>
      <point x="96" y="-331"/>
      <point x="61" y="-354"/>
      <point x="61" y="-372" type="qcurve"/>
      <point x="61" y="-379"/>
      <point x="67" y="-402"/>
      <point x="100" y="-423"/>
      <point x="167" y="-438"/>
      <point x="229" y="-438" type="qcurve"/>
      <point x="318" y="-438"/>
      <point x="461" y="-396"/>
      <point x="561" y="-321"/>
      <point x="615" y="-217"/>
    </contour>
  </outline>
</glyph>
<glyph name="uni2087" format="2">
  <advance width="737"/>
  <unicode hex="2087"/>
  <outline>
    <contour>
      <point x="670" y="369" type="line"/>
      <point x="670" y="391" type="line"/>
      <point x="148" y="391" type="line"/>
      <point x="53" y="199" type="line"/>
      <point x="75" y="193" type="line"/>
      <point x="86" y="209"/>
      <point x="111" y="245"/>
      <point x="156" y="273"/>
      <point x="230" y="292"/>
      <point x="290" y="292" type="qcurve"/>
      <point x="558" y="292" type="line"/>
      <point x="264" y="-442" type="line"/>
      <point x="345" y="-442" type="line"/>
    </contour>
  </outline>
</glyph>
<glyph name="uni2088" format="2">
  <advance width="737"/>
  <unicode hex="2088"/>
  <outline>
    <contour>
      <point x="653" y="-231" type="qcurve"/>
      <point x="653" y="-186"/>
      <point x="607" y="-110"/>
      <point x="539" y="-45"/>
      <point x="461" y="7"/>
      <point x="429" y="28" type="qcurve"/>
      <point x="460" y="44"/>
      <point x="531" y="84"/>
      <point x="591" y="134"/>
      <point x="630" y="195"/>
      <point x="630" y="231" type="qcurve"/>
      <point x="630" y="249"/>
      <point x="608" y="308"/>
      <point x="550" y="366"/>
      <point x="448" y="408"/>
      <point x="369" y="408" type="qcurve"/>
      <point x="316" y="408"/>
      <point x="218" y="381"/>
      <point x="144" y="330"/>
      <point x="100" y="258"/>
      <point x="100" y="213" type="qcurve"/>
      <point x="100" y="172"/>
      <point x="136" y="107"/>
      <point x="190" y="53"/>
      <point x="255" y="7"/>
      <point x="284" y="-13" type="qcurve"/>
      <point x="257" y="-29"/>
      <point x="188" y="-74"/>
      <point x="128" y="-132"/>
      <point x="87" y="-200"/>
      <point x="87" y="-239" type="qcurve"/>
      <point x="87" y="-274"/>
      <point x="124" y="-344"/>
      <point x="195" y="-402"/>
      <point x="300" y="-438"/>
      <point x="369" y="-438" type="qcurve"/>
      <point x="453" y="-438"/>
      <point x="563" y="-394"/>
      <point x="627" y="-329"/>
      <point x="653" y="-258"/>
    </contour>
    <contour>
      <point x="528" y="239" type="qcurve"/>
      <point x="528" y="204"/>
      <point x="507" y="153"/>
      <point x="472" y="111"/>
      <point x="424" y="73"/>
      <point x="397" y="51" type="qcurve"/>
      <point x="351" y="81"/>
      <point x="279" y="130"/>
      <point x="230" y="175"/>
      <point x="205" y="224"/>
      <point x="205" y="254" type="qcurve"/>
      <point x="205" y="282"/>
      <point x="232" y="326"/>
      <point x="277" y="356"/>
      <point x="338" y="372"/>
      <point x="371" y="372" type="qcurve"/>
      <point x="400" y="372"/>
      <point x="457" y="359"/>
      <point x="501" y="328"/>
      <point x="528" y="277"/>
    </contour>
    <contour>
      <point x="550" y="-280" type="qcurve"/>
      <point x="550" y="-310"/>
      <point x="523" y="-357"/>
      <point x="477" y="-388"/>
      <point x="414" y="-404"/>
      <point x="378" y="-404" type="qcurve"/>
      <point x="340" y="-404"/>
      <point x="275" y="-382"/>
      <point x="227" y="-340"/>
      <point x="199" y="-278"/>
      <point x="199" y="-237" type="qcurve"/>
      <point x="199" y="-196"/>
      <point x="225" y="-131"/>
      <point x="262" y="-81"/>
      <point x="303" y="-47"/>
      <point x="318" y="-36" type="qcurve"/>
      <point x="351" y="-59"/>
      <point x="432" y="-112"/>
      <point x="502" y="-172"/>
      <point x="550" y="-241"/>
    </contour>
  </outline>
</glyph>
<glyph name="uni2089" format="2">
  <advance width="737"/>
  <unicode hex="2089"/>
  <outline>
    <contour>
      <point x="674" y="71" type="qcurve"/>
      <point x="674" y="129"/>
      <point x="633" y="249"/>
      <point x="553" y="347"/>
      <point x="438" y="408"/>
      <point x="363" y="408" type="qcurve"/>
      <point x="303" y="408"/>
      <point x="193" y="365"/>
      <point x="109" y="288"/>
      <point x="59" y="180"/>
      <point x="59" y="116" type="qcurve"/>
      <point x="59" y="70"/>
      <point x="91" y="-17"/>
      <point x="154" y="-85"/>
      <point x="247" y="-126"/>
      <point x="307" y="-126" type="qcurve"/>
      <point x="355" y="-126"/>
      <point x="458" y="-97"/>
      <point x="512" y="-65" type="qcurve"/>
      <point x="487" y="-148"/>
      <point x="400" y="-274"/>
      <point x="345" y="-323" type="qcurve"/>
      <point x="310" y="-354"/>
      <point x="231" y="-392"/>
      <point x="158" y="-412"/>
      <point x="95" y="-419"/>
      <point x="77" y="-420" type="qcurve"/>
      <point x="77" y="-442" type="line"/>
      <point x="118" y="-442" type="line"/>
      <point x="196" y="-442"/>
      <point x="327" y="-402"/>
      <point x="427" y="-348"/>
      <point x="493" y="-294"/>
      <point x="508" y="-280" type="qcurve"/>
      <point x="590" y="-204"/>
      <point x="674" y="-31"/>
    </contour>
    <contour>
      <point x="538" y="102" type="qcurve"/>
      <point x="538" y="79"/>
      <point x="528" y="17"/>
      <point x="523" y="-22" type="qcurve"/>
      <point x="516" y="-30"/>
      <point x="481" y="-48"/>
      <point x="437" y="-63"/>
      <point x="388" y="-73"/>
      <point x="367" y="-73" type="qcurve"/>
      <point x="326" y="-73"/>
      <point x="260" y="-37"/>
      <point x="213" y="29"/>
      <point x="188" y="121"/>
      <point x="188" y="177" type="qcurve"/>
      <point x="188" y="223"/>
      <point x="213" y="294"/>
      <point x="255" y="342"/>
      <point x="312" y="367"/>
      <point x="345" y="369" type="qcurve"/>
      <point x="376" y="370"/>
      <point x="445" y="336"/>
      <point x="501" y="269"/>
      <point x="538" y="168"/>
    </contour>
  </outline>
</glyph>
<glyph name="Euro" format="2">
  <advance width="1025"/>
  <unicode hex="20AC"/>
  <outline>
    <contour>
      <point x="232" y="571" type="line"/>
      <point x="240" y="446"/>
      <point x="300" y="254"/>
      <point x="397" y="124"/>
      <point x="527" y="57"/>
      <point x="606" y="57" type="qcurve"/>
      <point x="655" y="57"/>
      <point x="739" y="82"/>
      <point x="819" y="145"/>
      <point x="898" y="254"/>
      <point x="943" y="339" type="qcurve"/>
      <point x="964" y="318" type="line"/>
      <point x="889" y="140"/>
      <point x="690" y="-32"/>
      <point x="549" y="-32" type="qcurve"/>
      <point x="443" y="-32"/>
      <point x="272" y="63"/>
      <point x="148" y="227"/>
      <point x="74" y="446"/>
      <point x="64" y="571" type="qcurve"/>
      <point x="-59" y="571" type="line"/>
      <point x="-39" y="655" type="line"/>
      <point x="61" y="655" type="line"/>
      <point x="61" y="692" type="line"/>
      <point x="61" y="710"/>
      <point x="63" y="727" type="qcurve"/>
      <point x="-59" y="727" type="line"/>
      <point x="-39" y="812" type="line"/>
      <point x="72" y="812" type="line"/>
      <point x="89" y="933"/>
      <point x="174" y="1144"/>
      <point x="303" y="1299"/>
      <point x="472" y="1388"/>
      <point x="572" y="1388" type="qcurve"/>
      <point x="629" y="1388"/>
      <point x="715" y="1358"/>
      <point x="778" y="1323"/>
      <point x="819" y="1293"/>
      <point x="831" y="1293" type="qcurve"/>
      <point x="851" y="1293"/>
      <point x="884" y="1340"/>
      <point x="892" y="1388" type="qcurve"/>
      <point x="919" y="1388" type="line"/>
      <point x="943" y="927" type="line"/>
      <point x="919" y="927" type="line"/>
      <point x="896" y="1031"/>
      <point x="829" y="1179"/>
      <point x="744" y="1273"/>
      <point x="643" y="1317"/>
      <point x="585" y="1317" type="qcurve"/>
      <point x="517" y="1317"/>
      <point x="400" y="1256"/>
      <point x="309" y="1131"/>
      <point x="249" y="941"/>
      <point x="237" y="812" type="qcurve"/>
      <point x="778" y="812" type="line"/>
      <point x="758" y="727" type="line"/>
      <point x="231" y="727" type="line"/>
      <point x="230" y="710"/>
      <point x="230" y="692" type="qcurve"/>
      <point x="230" y="655" type="line"/>
      <point x="741" y="655" type="line"/>
      <point x="722" y="571" type="line"/>
    </contour>
  </outline>
</glyph>
<glyph name="uni20E5" format="2">
  <unicode hex="20E5"/>
  <anchor x="-530" y="517" name="_C"/>
  <outline>
    <contour>
      <point x="-918" y="1209" type="line"/>
      <point x="-861" y="1242" type="line"/>
      <point x="-77" y="-230" type="line"/>
      <point x="-135" y="-262" type="line"/>
    </contour>
  </outline>
</glyph>
<glyph name="trademark" format="2">
  <advance width="2009"/>
  <unicode hex="2122"/>
  <outline>
    <contour>
      <point x="767" y="1157" type="line"/>
      <point x="764" y="1190"/>
      <point x="742" y="1242"/>
      <point x="698" y="1278"/>
      <point x="627" y="1297"/>
      <point x="574" y="1297" type="qcurve"/>
      <point x="499" y="1297" type="line"/>
      <point x="499" y="717" type="line"/>
      <point x="499" y="679"/>
      <point x="504" y="629"/>
      <point x="525" y="599"/>
      <point x="568" y="586"/>
      <point x="605" y="585" type="qcurve"/>
      <point x="605" y="550" type="line"/>
      <point x="229" y="550" type="line"/>
      <point x="229" y="585" type="line"/>
      <point x="261" y="591"/>
      <point x="300" y="598"/>
      <point x="322" y="622"/>
      <point x="329" y="670"/>
      <point x="329" y="717" type="qcurve"/>
      <point x="329" y="1297" type="line"/>
      <point x="254" y="1297" type="line"/>
      <point x="209" y="1297"/>
      <point x="145" y="1284"/>
      <point x="101" y="1252"/>
      <point x="73" y="1198"/>
      <point x="64" y="1157" type="qcurve"/>
      <point x="32" y="1157" type="line"/>
      <point x="45" y="1356" type="line"/>
      <point x="786" y="1356" type="line"/>
      <point x="803" y="1157" type="line"/>
    </contour>
    <contour>
      <point x="1576" y="550" type="line"/>
      <point x="1576" y="585" type="line"/>
      <point x="1613" y="585"/>
      <point x="1659" y="595"/>
      <point x="1685" y="623"/>
      <point x="1695" y="674"/>
      <point x="1695" y="715" type="qcurve"/>
      <point x="1695" y="1210" type="line"/>
      <point x="1388" y="550" type="line"/>
      <point x="1356" y="550" type="line"/>
      <point x="1046" y="1198" type="line"/>
      <point x="1046" y="717" type="line"/>
      <point x="1046" y="676"/>
      <point x="1053" y="625"/>
      <point x="1079" y="596"/>
      <point x="1131" y="585"/>
      <point x="1177" y="585" type="qcurve"/>
      <point x="1177" y="550" type="line"/>
      <point x="871" y="550" type="line"/>
      <point x="871" y="585" type="line"/>
      <point x="912" y="585"/>
      <point x="957" y="599"/>
      <point x="979" y="630"/>
      <point x="984" y="680"/>
      <point x="984" y="717" type="qcurve"/>
      <point x="984" y="1183" type="line"/>
      <point x="984" y="1222"/>
      <point x="980" y="1275"/>
      <point x="958" y="1306"/>
      <point x="913" y="1320"/>
      <point x="871" y="1320" type="qcurve"/>
      <point x="871" y="1356" type="line"/>
      <point x="1157" y="1356" type="line"/>
      <point x="1431" y="784" type="line"/>
      <point x="1695" y="1356" type="line"/>
      <point x="1975" y="1356" type="line"/>
      <point x="1975" y="1320" type="line"/>
      <point x="1933" y="1322"/>
      <point x="1887" y="1304"/>
      <point x="1866" y="1267"/>
      <point x="1862" y="1216"/>
      <point x="1862" y="1185" type="qcurve"/>
      <point x="1862" y="717" type="line"/>
      <point x="1862" y="676"/>
      <point x="1871" y="624"/>
      <point x="1896" y="595"/>
      <point x="1940" y="585"/>
      <point x="1975" y="585" type="qcurve"/>
      <point x="1975" y="550" type="line"/>
    </contour>
  </outline>
</glyph>
<glyph name="Omega" format="2">
  <advance width="1506"/>
  <unicode hex="2126"/>
  <outline>
    <contour>
      <point x="1439" y="818" type="qcurve"/>
      <point x="1439" y="699"/>
      <point x="1347" y="511"/>
      <point x="1201" y="379"/>
      <point x="1020" y="305"/>
      <point x="931" y="299" type="qcurve"/>
      <point x="931" y="177" type="line"/>
      <point x="1238" y="177" type="line"/>
      <point x="1256" y="177"/>
      <point x="1302" y="191"/>
      <point x="1342" y="223"/>
      <point x="1369" y="275"/>
      <point x="1369" y="312" type="qcurve"/>
      <point x="1411" y="312" type="line"/>
      <point x="1411" y="0" type="line"/>
      <point x="857" y="0" type="line"/>
      <point x="857" y="346" type="line"/>
      <point x="941" y="372"/>
      <point x="1076" y="460"/>
      <point x="1172" y="579"/>
      <point x="1224" y="728"/>
      <point x="1224" y="816" type="qcurve"/>
      <point x="1224" y="913"/>
      <point x="1157" y="1101"/>
      <point x="1033" y="1247"/>
      <point x="859" y="1337"/>
      <point x="753" y="1337" type="qcurve"/>
      <point x="646" y="1337"/>
      <point x="473" y="1247"/>
      <point x="349" y="1101"/>
      <point x="282" y="913"/>
      <point x="282" y="816" type="qcurve"/>
      <point x="282" y="728"/>
      <point x="334" y="579"/>
      <point x="429" y="460"/>
      <point x="565" y="372"/>
      <point x="649" y="346" type="qcurve"/>
      <point x="649" y="0" type="line"/>
      <point x="94" y="0" type="line"/>
      <point x="94" y="312" type="line"/>
      <point x="136" y="312" type="line"/>
      <point x="136" y="275"/>
      <point x="163" y="223"/>
      <point x="204" y="191"/>
      <point x="250" y="177"/>
      <point x="269" y="177" type="qcurve"/>
      <point x="576" y="177" type="line"/>
      <point x="576" y="299" type="line"/>
      <point x="486" y="305"/>
      <point x="305" y="379"/>
      <point x="159" y="511"/>
      <point x="67" y="699"/>
      <point x="67" y="818" type="qcurve"/>
      <point x="67" y="947"/>
      <point x="160" y="1157"/>
      <point x="337" y="1306"/>
      <point x="592" y="1388"/>
      <point x="753" y="1388" type="qcurve"/>
      <point x="914" y="1388"/>
      <point x="1169" y="1306"/>
      <point x="1346" y="1157"/>
      <point x="1439" y="947"/>
    </contour>
  </outline>
</glyph>
<glyph name="product" format="2">
  <advance width="1469"/>
  <unicode hex="220F"/>
  <outline>
    <contour>
      <point x="833" y="0" type="line"/>
      <point x="833" y="30" type="line"/>
      <point x="866" y="30"/>
      <point x="937" y="41"/>
      <point x="996" y="70"/>
      <point x="1035" y="119"/>
      <point x="1035" y="158" type="qcurve"/>
      <point x="1035" y="1173" type="line"/>
      <point x="1035" y="1214"/>
      <point x="1001" y="1263"/>
      <point x="947" y="1288"/>
      <point x="878" y="1295"/>
      <point x="844" y="1295" type="qcurve"/>
      <point x="625" y="1295" type="line"/>
      <point x="590" y="1295"/>
      <point x="522" y="1288"/>
      <point x="468" y="1263"/>
      <point x="434" y="1214"/>
      <point x="434" y="1173" type="qcurve"/>
      <point x="434" y="158" type="line"/>
      <point x="434" y="118"/>
      <point x="472" y="68"/>
      <point x="531" y="40"/>
      <point x="602" y="30"/>
      <point x="634" y="30" type="qcurve"/>
      <point x="634" y="0" type="line"/>
      <point x="30" y="0" type="line"/>
      <point x="30" y="30" type="line"/>
      <point x="62" y="30"/>
      <point x="133" y="39"/>
      <point x="192" y="67"/>
      <point x="231" y="117"/>
      <point x="231" y="158" type="qcurve"/>
      <point x="231" y="1173" type="line"/>
      <point x="231" y="1214"/>
      <point x="202" y="1272"/>
      <point x="149" y="1309"/>
      <point x="75" y="1326"/>
      <point x="30" y="1326" type="qcurve"/>
      <point x="30" y="1356" type="line"/>
      <point x="1439" y="1356" type="line"/>
      <point x="1439" y="1326" type="line"/>
      <point x="1394" y="1326"/>
      <point x="1319" y="1309"/>
      <point x="1265" y="1272"/>
      <point x="1236" y="1214"/>
      <point x="1236" y="1173" type="qcurve"/>
      <point x="1236" y="158" type="line"/>
      <point x="1236" y="119"/>
      <point x="1275" y="70"/>
      <point x="1335" y="41"/>
      <point x="1406" y="30"/>
      <point x="1439" y="30" type="qcurve"/>
      <point x="1439" y="0" type="line"/>
    </contour>
  </outline>
</glyph>
<glyph name="infinity" format="2">
  <advance width="1971"/>
  <unicode hex="221E"/>
  <outline>
    <contour>
      <point x="920" y="591" type="qcurve"/>
      <point x="864" y="639"/>
      <point x="778" y="706"/>
      <point x="706" y="747"/>
      <point x="642" y="765"/>
      <point x="609" y="765" type="qcurve"/>
      <point x="564" y="765"/>
      <point x="497" y="728"/>
      <point x="454" y="673"/>
      <point x="432" y="608"/>
      <point x="432" y="581" type="qcurve"/>
      <point x="433" y="543"/>
      <point x="464" y="480"/>
      <point x="516" y="435"/>
      <point x="582" y="411"/>
      <point x="618" y="411" type="qcurve"/>
      <point x="637" y="411"/>
      <point x="660" y="416" type="qcurve"/>
      <point x="702" y="426"/>
      <point x="761" y="452"/>
      <point x="816" y="491"/>
      <point x="877" y="549"/>
    </contour>
    <contour>
      <point x="1539" y="581" type="qcurve"/>
      <point x="1539" y="608"/>
      <point x="1517" y="673"/>
      <point x="1473" y="728"/>
      <point x="1406" y="765"/>
      <point x="1361" y="765" type="qcurve"/>
      <point x="1328" y="765"/>
      <point x="1265" y="747"/>
      <point x="1193" y="706"/>
      <point x="1107" y="639"/>
      <point x="1051" y="591" type="qcurve"/>
      <point x="1094" y="549"/>
      <point x="1155" y="491"/>
      <point x="1210" y="451"/>
      <point x="1269" y="426"/>
      <point x="1311" y="416" type="qcurve"/>
      <point x="1322" y="413"/>
      <point x="1343" y="411"/>
      <point x="1354" y="411" type="qcurve"/>
      <point x="1389" y="411"/>
      <point x="1455" y="435"/>
      <point x="1506" y="480"/>
      <point x="1537" y="543"/>
    </contour>
    <contour>
      <point x="1638" y="621" type="qcurve"/>
      <point x="1639" y="614"/>
      <point x="1639" y="602"/>
      <point x="1639" y="595" type="qcurve"/>
      <point x="1639" y="545"/>
      <point x="1600" y="446"/>
      <point x="1531" y="366"/>
      <point x="1433" y="316"/>
      <point x="1375" y="316" type="qcurve"/>
      <point x="1321" y="316"/>
      <point x="1228" y="342"/>
      <point x="1149" y="382"/>
      <point x="1084" y="431"/>
      <point x="1033" y="478"/>
      <point x="996" y="516"/>
      <point x="985" y="526" type="qcurve"/>
      <point x="973" y="516"/>
      <point x="937" y="478"/>
      <point x="887" y="431"/>
      <point x="822" y="382"/>
      <point x="744" y="342"/>
      <point x="650" y="316"/>
      <point x="596" y="316" type="qcurve"/>
      <point x="537" y="316"/>
      <point x="440" y="366"/>
      <point x="370" y="446"/>
      <point x="331" y="545"/>
      <point x="331" y="595" type="qcurve"/>
      <point x="331" y="650"/>
      <point x="376" y="749"/>
      <point x="452" y="824"/>
      <point x="553" y="867"/>
      <point x="610" y="867" type="qcurve"/>
      <point x="659" y="867"/>
      <point x="746" y="840"/>
      <point x="833" y="787"/>
      <point x="927" y="708"/>
      <point x="985" y="656" type="qcurve"/>
      <point x="1030" y="697"/>
      <point x="1095" y="754"/>
      <point x="1151" y="795"/>
      <point x="1205" y="826"/>
      <point x="1240" y="841" type="qcurve"/>
      <point x="1301" y="867"/>
      <point x="1361" y="867" type="qcurve"/>
      <point x="1415" y="867"/>
      <point x="1510" y="828"/>
      <point x="1585" y="762"/>
      <point x="1632" y="672"/>
    </contour>
  </outline>
</glyph>
<glyph name="approxequal" format="2">
  <advance width="1971"/>
  <unicode hex="2248"/>
  <outline>
    <contour>
      <point x="1576" y="436" type="line"/>
      <point x="1556" y="417"/>
      <point x="1497" y="375"/>
      <point x="1425" y="337"/>
      <point x="1341" y="310"/>
      <point x="1297" y="307" type="qcurve"/>
      <point x="1238" y="303"/>
      <point x="1157" y="309"/>
      <point x="1087" y="327"/>
      <point x="1016" y="354"/>
      <point x="968" y="371" type="qcurve"/>
      <point x="887" y="399"/>
      <point x="760" y="428"/>
      <point x="657" y="432"/>
      <point x="574" y="412"/>
      <point x="500" y="373"/>
      <point x="432" y="316"/>
      <point x="395" y="280" type="qcurve"/>
      <point x="395" y="416" type="line"/>
      <point x="413" y="434"/>
      <point x="459" y="476"/>
      <point x="528" y="514"/>
      <point x="625" y="543"/>
      <point x="696" y="548" type="qcurve"/>
      <point x="750" y="552"/>
      <point x="857" y="534"/>
      <point x="957" y="503"/>
      <point x="1049" y="468"/>
      <point x="1090" y="455" type="qcurve"/>
      <point x="1179" y="428"/>
      <point x="1315" y="423"/>
      <point x="1428" y="458"/>
      <point x="1525" y="527"/>
      <point x="1576" y="572" type="qcurve"/>
    </contour>
    <contour>
      <point x="1576" y="771" type="line"/>
      <point x="1556" y="753"/>
      <point x="1497" y="710"/>
      <point x="1425" y="673"/>
      <point x="1341" y="646"/>
      <point x="1297" y="643" type="qcurve"/>
      <point x="1238" y="639"/>
      <point x="1157" y="645"/>
      <point x="1087" y="661"/>
      <point x="1016" y="688"/>
      <point x="968" y="705" type="qcurve"/>
      <point x="847" y="748"/>
      <point x="679" y="771"/>
      <point x="552" y="742"/>
      <point x="450" y="669"/>
      <point x="395" y="615" type="qcurve"/>
      <point x="395" y="751" type="line"/>
      <point x="413" y="769"/>
      <point x="459" y="811"/>
      <point x="528" y="849"/>
      <point x="625" y="878"/>
      <point x="696" y="883" type="qcurve"/>
      <point x="750" y="887"/>
      <point x="857" y="869"/>
      <point x="957" y="838"/>
      <point x="1049" y="803"/>
      <point x="1090" y="790" type="qcurve"/>
      <point x="1179" y="763"/>
      <point x="1315" y="758"/>
      <point x="1428" y="793"/>
      <point x="1525" y="862"/>
      <point x="1576" y="907" type="qcurve"/>
    </contour>
  </outline>
</glyph>
<glyph name="uni25CC" format="2">
  <advance width="1066"/>
  <unicode hex="25CC"/>
  <anchor x="533" y="1870" name="A"/>
  <anchor x="533" y="695" name="C"/>
  <anchor x="533" y="-100" name="L"/>
  <anchor x="533" y="1435" name="U"/>
  <outline>
    <contour>
      <point x="486" y="868" type="qcurve"/>
      <point x="486" y="888"/>
      <point x="513" y="916"/>
      <point x="533" y="916" type="qcurve"/>
      <point x="553" y="916"/>
      <point x="581" y="888"/>
      <point x="581" y="868" type="qcurve"/>
      <point x="581" y="848"/>
      <point x="553" y="821"/>
      <point x="533" y="821" type="qcurve"/>
      <point x="513" y="821"/>
      <point x="486" y="848"/>
    </contour>
    <contour>
      <point x="486" y="47" type="qcurve"/>
      <point x="486" y="67"/>
      <point x="513" y="95"/>
      <point x="533" y="95" type="qcurve"/>
      <point x="553" y="95"/>
      <point x="581" y="67"/>
      <point x="581" y="47" type="qcurve"/>
      <point x="581" y="27"/>
      <point x="553" y="0"/>
      <point x="533" y="0" type="qcurve"/>
      <point x="513" y="0"/>
      <point x="486" y="27"/>
    </contour>
    <contour>
      <point x="646" y="855" type="qcurve"/>
      <point x="652" y="869"/>
      <point x="676" y="885"/>
      <point x="690" y="885" type="qcurve"/>
      <point x="710" y="885"/>
      <point x="738" y="855"/>
      <point x="738" y="836" type="qcurve"/>
      <point x="738" y="816"/>
      <point x="708" y="789"/>
      <point x="690" y="789" type="qcurve"/>
      <point x="670" y="789"/>
      <point x="643" y="820"/>
      <point x="643" y="838" type="qcurve"/>
      <point x="643" y="846"/>
    </contour>
    <contour>
      <point x="332" y="96" type="qcurve"/>
      <point x="338" y="110"/>
      <point x="365" y="126"/>
      <point x="377" y="126" type="qcurve"/>
      <point x="397" y="126"/>
      <point x="424" y="96"/>
      <point x="424" y="78" type="qcurve"/>
      <point x="424" y="58"/>
      <point x="394" y="31"/>
      <point x="376" y="31" type="qcurve"/>
      <point x="356" y="31"/>
      <point x="328" y="61"/>
      <point x="328" y="78" type="qcurve"/>
      <point x="328" y="83"/>
      <point x="330" y="91"/>
    </contour>
    <contour>
      <point x="789" y="782" type="qcurve"/>
      <point x="805" y="796"/>
      <point x="823" y="796" type="qcurve"/>
      <point x="843" y="796"/>
      <point x="870" y="768"/>
      <point x="870" y="748" type="qcurve"/>
      <point x="870" y="728"/>
      <point x="843" y="700"/>
      <point x="823" y="700" type="qcurve"/>
      <point x="803" y="700"/>
      <point x="776" y="730"/>
      <point x="776" y="748" type="qcurve"/>
      <point x="776" y="767"/>
    </contour>
    <contour>
      <point x="209" y="200" type="qcurve"/>
      <point x="224" y="215"/>
      <point x="241" y="215" type="qcurve"/>
      <point x="262" y="215"/>
      <point x="290" y="188"/>
      <point x="290" y="168" type="qcurve"/>
      <point x="290" y="149"/>
      <point x="263" y="120"/>
      <point x="243" y="120" type="qcurve"/>
      <point x="224" y="120"/>
      <point x="195" y="149"/>
      <point x="195" y="168" type="qcurve"/>
      <point x="195" y="186"/>
    </contour>
    <contour>
      <point x="894" y="659" type="qcurve"/>
      <point x="899" y="661"/>
      <point x="907" y="663"/>
      <point x="912" y="663" type="qcurve"/>
      <point x="930" y="663"/>
      <point x="960" y="635"/>
      <point x="960" y="615" type="qcurve"/>
      <point x="960" y="597"/>
      <point x="932" y="567"/>
      <point x="911" y="567" type="qcurve"/>
      <point x="893" y="567"/>
      <point x="865" y="594"/>
      <point x="865" y="614" type="qcurve"/>
      <point x="865" y="628"/>
      <point x="880" y="653"/>
    </contour>
    <contour>
      <point x="135" y="344" type="qcurve"/>
      <point x="143" y="348"/>
      <point x="154" y="348" type="qcurve"/>
      <point x="174" y="348"/>
      <point x="202" y="322"/>
      <point x="202" y="302" type="qcurve"/>
      <point x="202" y="283"/>
      <point x="174" y="253"/>
      <point x="154" y="253" type="qcurve"/>
      <point x="135" y="253"/>
      <point x="106" y="282"/>
      <point x="106" y="302" type="qcurve"/>
      <point x="106" y="316"/>
      <point x="121" y="339"/>
    </contour>
    <contour>
      <point x="943" y="506" type="qcurve"/>
      <point x="963" y="506"/>
      <point x="991" y="478"/>
      <point x="991" y="458" type="qcurve"/>
      <point x="991" y="439"/>
      <point x="964" y="411"/>
      <point x="944" y="411" type="qcurve"/>
      <point x="940" y="411" type="line"/>
      <point x="922" y="411"/>
      <point x="895" y="439"/>
      <point x="895" y="457" type="qcurve"/>
      <point x="895" y="477"/>
      <point x="925" y="504"/>
    </contour>
    <contour>
      <point x="122" y="505" type="qcurve"/>
      <point x="141" y="505"/>
      <point x="171" y="478"/>
      <point x="171" y="459" type="qcurve"/>
      <point x="171" y="439"/>
      <point x="141" y="410"/>
      <point x="123" y="410" type="qcurve"/>
      <point x="121" y="410" type="line"/>
      <point x="101" y="410"/>
      <point x="75" y="439"/>
      <point x="75" y="458" type="qcurve"/>
      <point x="75" y="478"/>
      <point x="102" y="505"/>
    </contour>
    <contour>
      <point x="930" y="345" type="qcurve"/>
      <point x="944" y="339"/>
      <point x="960" y="315"/>
      <point x="960" y="301" type="qcurve"/>
      <point x="960" y="281"/>
      <point x="931" y="254"/>
      <point x="912" y="254" type="qcurve"/>
      <point x="889" y="254"/>
      <point x="864" y="283"/>
      <point x="864" y="301" type="qcurve"/>
      <point x="864" y="324"/>
      <point x="895" y="348"/>
      <point x="913" y="348" type="qcurve"/>
      <point x="922" y="348"/>
    </contour>
    <contour>
      <point x="171" y="659" type="qcurve"/>
      <point x="185" y="653"/>
      <point x="202" y="627"/>
      <point x="202" y="613" type="qcurve"/>
      <point x="202" y="593"/>
      <point x="171" y="567"/>
      <point x="153" y="567" type="qcurve"/>
      <point x="132" y="567"/>
      <point x="106" y="597"/>
      <point x="106" y="615" type="qcurve"/>
      <point x="106" y="635"/>
      <point x="135" y="663"/>
      <point x="153" y="663" type="qcurve"/>
      <point x="158" y="663"/>
      <point x="166" y="661"/>
    </contour>
    <contour>
      <point x="857" y="202" type="qcurve"/>
      <point x="871" y="188"/>
      <point x="871" y="168" type="qcurve"/>
      <point x="871" y="149"/>
      <point x="844" y="121"/>
      <point x="823" y="121" type="qcurve"/>
      <point x="803" y="121"/>
      <point x="775" y="149"/>
      <point x="775" y="168" type="qcurve"/>
      <point x="775" y="188"/>
      <point x="801" y="215"/>
      <point x="821" y="215" type="qcurve"/>
      <point x="841" y="215"/>
    </contour>
    <contour>
      <point x="275" y="782" type="qcurve"/>
      <point x="290" y="769"/>
      <point x="290" y="749" type="qcurve"/>
      <point x="290" y="727"/>
      <point x="264" y="701"/>
      <point x="243" y="701" type="qcurve"/>
      <point x="223" y="701"/>
      <point x="195" y="728"/>
      <point x="195" y="747" type="qcurve"/>
      <point x="195" y="767"/>
      <point x="223" y="796"/>
      <point x="242" y="796" type="qcurve"/>
      <point x="261" y="796"/>
    </contour>
    <contour>
      <point x="734" y="97" type="qcurve"/>
      <point x="736" y="92"/>
      <point x="738" y="84"/>
      <point x="738" y="79" type="qcurve"/>
      <point x="738" y="61"/>
      <point x="710" y="31"/>
      <point x="690" y="31" type="qcurve"/>
      <point x="672" y="31"/>
      <point x="642" y="59"/>
      <point x="642" y="80" type="qcurve"/>
      <point x="642" y="97"/>
      <point x="668" y="127"/>
      <point x="687" y="127" type="qcurve"/>
      <point x="701" y="127"/>
      <point x="727" y="111"/>
    </contour>
    <contour>
      <point x="419" y="856" type="qcurve"/>
      <point x="423" y="848"/>
      <point x="423" y="837" type="qcurve"/>
      <point x="423" y="818"/>
      <point x="398" y="789"/>
      <point x="378" y="789" type="qcurve"/>
      <point x="358" y="789"/>
      <point x="328" y="816"/>
      <point x="328" y="837" type="qcurve"/>
      <point x="328" y="855"/>
      <point x="357" y="885"/>
      <point x="377" y="885" type="qcurve"/>
      <point x="391" y="885"/>
      <point x="413" y="870"/>
    </contour>
  </outline>
</glyph>
<glyph name="uni266E" format="2">
  <advance width="857"/>
  <unicode hex="266E"/>
  <outline>
    <contour>
      <point x="618" y="203" type="line"/>
      <point x="550" y="203" type="line"/>
      <point x="550" y="575" type="line"/>
      <point x="238" y="490" type="line"/>
      <point x="238" y="1386" type="line"/>
      <point x="301" y="1386" type="line"/>
      <point x="301" y="1014" type="line"/>
      <point x="618" y="1101" type="line"/>
    </contour>
    <contour>
      <point x="550" y="729" type="line"/>
      <point x="550" y="929" type="line"/>
      <point x="301" y="860" type="line"/>
      <point x="301" y="660" type="line"/>
    </contour>
  </outline>
</glyph>
<glyph name="uni266F" format="2">
  <advance width="857"/>
  <unicode hex="266F"/>
  <outline>
    <contour>
      <point x="655" y="556" type="line"/>
      <point x="559" y="530" type="line"/>
      <point x="559" y="208" type="line"/>
      <point x="494" y="208" type="line"/>
      <point x="494" y="512" type="line"/>
      <point x="361" y="476" type="line"/>
      <point x="361" y="154" type="line"/>
      <point x="294" y="154" type="line"/>
      <point x="294" y="459" type="line"/>
      <point x="201" y="434" type="line"/>
      <point x="201" y="586" type="line"/>
      <point x="294" y="612" type="line"/>
      <point x="294" y="857" type="line"/>
      <point x="201" y="832" type="line"/>
      <point x="201" y="985" type="line"/>
      <point x="294" y="1010" type="line"/>
      <point x="294" y="1333" type="line"/>
      <point x="361" y="1333" type="line"/>
      <point x="361" y="1028" type="line"/>
      <point x="494" y="1064" type="line"/>
      <point x="494" y="1386" type="line"/>
      <point x="559" y="1386" type="line"/>
      <point x="559" y="1083" type="line"/>
      <point x="655" y="1109" type="line"/>
      <point x="655" y="955" type="line"/>
      <point x="559" y="929" type="line"/>
      <point x="559" y="684" type="line"/>
      <point x="655" y="710" type="line"/>
    </contour>
    <contour>
      <point x="494" y="666" type="line"/>
      <point x="494" y="912" type="line"/>
      <point x="361" y="876" type="line"/>
      <point x="361" y="630" type="line"/>
    </contour>
  </outline>
</glyph>
<glyph name="uniA78B" format="2">
  <advance width="438"/>
  <unicode hex="A78B"/>
  <outline>
    <contour>
      <point x="343" y="1538" type="qcurve"/>
      <point x="343" y="1579"/>
      <point x="319" y="1636"/>
      <point x="283" y="1672"/>
      <point x="240" y="1688"/>
      <point x="221" y="1688" type="qcurve"/>
      <point x="197" y="1688"/>
      <point x="151" y="1669"/>
      <point x="116" y="1633"/>
      <point x="95" y="1581"/>
      <point x="95" y="1547" type="qcurve"/>
      <point x="95" y="1536"/>
      <point x="97" y="1506"/>
      <point x="103" y="1471" type="qcurve"/>
      <point x="199" y="795" type="line"/>
      <point x="239" y="795" type="line"/>
      <point x="339" y="1471" type="line"/>
      <point x="342" y="1491"/>
      <point x="343" y="1526"/>
    </contour>
  </outline>
</glyph>
<glyph name="uniA78C" format="2">
  <advance width="398"/>
  <unicode hex="A78C"/>
  <outline>
    <contour>
      <point x="313" y="1238" type="qcurve"/>
      <point x="313" y="1279"/>
      <point x="292" y="1336"/>
      <point x="259" y="1372"/>
      <point x="220" y="1388"/>
      <point x="201" y="1388" type="qcurve"/>
      <point x="152" y="1388"/>
      <point x="85" y="1315"/>
      <point x="85" y="1247" type="qcurve"/>
      <point x="85" y="1236"/>
      <point x="87" y="1206"/>
      <point x="93" y="1171" type="qcurve"/>
      <point x="179" y="595" type="line"/>
      <point x="219" y="595" type="line"/>
      <point x="309" y="1171" type="line"/>
      <point x="312" y="1191"/>
      <point x="313" y="1226"/>
    </contour>
  </outline>
</glyph>
<glyph name="fi" format="2">
  <advance width="1141"/>
  <unicode hex="FB01"/>
  <outline>
    <contour>
      <point x="639" y="0" type="line"/>
      <point x="639" y="38" type="line"/>
      <point x="689" y="38"/>
      <point x="747" y="49"/>
      <point x="761" y="67" type="qcurve"/>
      <point x="768" y="76"/>
      <point x="777" y="98"/>
      <point x="783" y="130"/>
      <point x="786" y="175"/>
      <point x="786" y="207" type="qcurve"/>
      <point x="786" y="560" type="line"/>
      <point x="786" y="621"/>
      <point x="783" y="707"/>
      <point x="776" y="764"/>
      <point x="765" y="796"/>
      <point x="758" y="805" type="qcurve"/>
      <point x="752" y="811"/>
      <point x="742" y="825"/>
      <point x="714" y="837"/>
      <point x="659" y="844"/>
      <point x="609" y="844" type="qcurve"/>
      <point x="372" y="844" type="line"/>
      <point x="372" y="243" type="line"/>
      <point x="372" y="179"/>
      <point x="374" y="93"/>
      <point x="391" y="77" type="qcurve"/>
      <point x="407" y="54"/>
      <point x="457" y="38"/>
      <point x="489" y="38" type="qcurve"/>
      <point x="519" y="38" type="line"/>
      <point x="519" y="0" type="line"/>
      <point x="65" y="0" type="line"/>
      <point x="65" y="38" type="line"/>
      <point x="96" y="38" type="line"/>
      <point x="120" y="38"/>
      <point x="151" y="49"/>
      <point x="173" y="69" type="qcurve"/>
      <point x="186" y="80"/>
      <point x="199" y="104"/>
      <point x="205" y="142"/>
      <point x="205" y="170" type="qcurve"/>
      <point x="205" y="844" type="line"/>
      <point x="26" y="844" type="line"/>
      <point x="26" y="916" type="line"/>
      <point x="205" y="916" type="line"/>
      <point x="205" y="978" type="line"/>
      <point x="205" y="1081"/>
      <point x="256" y="1228"/>
      <point x="335" y="1327"/>
      <point x="431" y="1385"/>
      <point x="521" y="1415"/>
      <point x="593" y="1423"/>
      <point x="609" y="1423" type="qcurve"/>
      <point x="653" y="1423"/>
      <point x="749" y="1395"/>
      <point x="829" y="1348"/>
      <point x="881" y="1285"/>
      <point x="881" y="1251" type="qcurve"/>
      <point x="881" y="1238"/>
      <point x="869" y="1209"/>
      <point x="847" y="1184"/>
      <point x="817" y="1168"/>
      <point x="800" y="1168" type="qcurve"/>
      <point x="774" y="1167"/>
      <point x="734" y="1194"/>
      <point x="697" y="1234"/>
      <point x="661" y="1281"/>
      <point x="618" y="1321"/>
      <point x="565" y="1348"/>
      <point x="530" y="1348" type="qcurve"/>
      <point x="482" y="1348"/>
      <point x="421" y="1306"/>
      <point x="385" y="1217"/>
      <point x="372" y="1079"/>
      <point x="372" y="982" type="qcurve"/>
      <point x="372" y="916" type="line"/>
      <point x="846" y="916" type="line"/>
      <point x="910" y="942" type="line"/>
      <point x="954" y="942" type="line"/>
      <point x="954" y="207" type="line"/>
      <point x="954" y="146"/>
      <point x="964" y="85"/>
      <point x="978" y="71" type="qcurve"/>
      <point x="987" y="60"/>
      <point x="1005" y="47"/>
      <point x="1029" y="40"/>
      <point x="1065" y="38"/>
      <point x="1092" y="38" type="qcurve"/>
      <point x="1092" y="0" type="line"/>
    </contour>
  </outline>
</glyph>
<glyph name="u1D100" format="2">
  <advance width="612"/>
  <unicode hex="1D100"/>
  <outline>
    <contour>
      <point x="255" y="-190" type="line"/>
      <point x="255" y="2324" type="line"/>
      <point x="357" y="2324" type="line"/>
      <point x="357" y="-190" type="line"/>
    </contour>
  </outline>
</glyph>
<glyph name="u1D102" format="2">
  <advance width="1224"/>
  <unicode hex="1D102"/>
  <outline>
    <contour>
      <point x="639" y="-190" type="line"/>
      <point x="639" y="2324" type="line"/>
      <point x="841" y="2324" type="line"/>
      <point x="841" y="-190" type="line"/>
    </contour>
    <contour>
      <point x="383" y="-190" type="line"/>
      <point x="383" y="2324" type="line"/>
      <point x="485" y="2324" type="line"/>
      <point x="485" y="-190" type="line"/>
    </contour>
  </outline>
</glyph>
<glyph name="u1D106" format="2">
  <advance width="1224"/>
  <unicode hex="1D106"/>
  <outline>
    <contour>
      <point x="564" y="-190" type="line"/>
      <point x="564" y="2324" type="line"/>
      <point x="666" y="2324" type="line"/>
      <point x="666" y="-190" type="line"/>
    </contour>
    <contour>
      <point x="208" y="-190" type="line"/>
      <point x="208" y="2324" type="line"/>
      <point x="410" y="2324" type="line"/>
      <point x="410" y="-190" type="line"/>
    </contour>
    <contour>
      <point x="1016" y="860" type="qcurve"/>
      <point x="1016" y="834"/>
      <point x="996" y="791"/>
      <point x="965" y="761"/>
      <point x="925" y="745"/>
      <point x="904" y="745" type="qcurve"/>
      <point x="883" y="745"/>
      <point x="842" y="762"/>
      <point x="810" y="792"/>
      <point x="791" y="834"/>
      <point x="791" y="860" type="qcurve"/>
      <point x="791" y="887"/>
      <point x="813" y="929"/>
      <point x="846" y="956"/>
      <point x="886" y="970"/>
      <point x="904" y="970" type="qcurve"/>
      <point x="922" y="970"/>
      <point x="962" y="955"/>
      <point x="995" y="927"/>
      <point x="1016" y="886"/>
    </contour>
    <contour>
      <point x="1016" y="1308" type="qcurve"/>
      <point x="1016" y="1283"/>
      <point x="997" y="1243"/>
      <point x="965" y="1214"/>
      <point x="926" y="1199"/>
      <point x="906" y="1199" type="qcurve"/>
      <point x="883" y="1199"/>
      <point x="842" y="1216"/>
      <point x="811" y="1246"/>
      <point x="793" y="1285"/>
      <point x="793" y="1308" type="qcurve"/>
      <point x="793" y="1332"/>
      <point x="811" y="1373"/>
      <point x="842" y="1402"/>
      <point x="883" y="1419"/>
      <point x="906" y="1419" type="qcurve"/>
      <point x="928" y="1419"/>
      <point x="968" y="1402"/>
      <point x="998" y="1373"/>
      <point x="1016" y="1332"/>
    </contour>
  </outline>
</glyph>
<glyph name="u1D112" format="2">
  <advance width="612"/>
  <unicode hex="1D112"/>
  <anchor x="313" y="1870" name="A"/>
  <anchor x="313" y="-100" name="L"/>
  <anchor x="313" y="1435" name="U"/>
  <outline>
    <contour>
      <point x="459" y="1189" type="qcurve"/>
      <point x="459" y="1137"/>
      <point x="431" y="1052"/>
      <point x="386" y="986"/>
      <point x="330" y="935"/>
      <point x="272" y="899"/>
      <point x="218" y="875"/>
      <point x="199" y="869" type="qcurve"/>
      <point x="199" y="912" type="line"/>
      <point x="226" y="928"/>
      <point x="284" y="966"/>
      <point x="334" y="1015"/>
      <point x="366" y="1078"/>
      <point x="366" y="1119" type="qcurve"/>
      <point x="366" y="1138"/>
      <point x="357" y="1163"/>
      <point x="345" y="1176"/>
      <point x="332" y="1181"/>
      <point x="329" y="1181" type="qcurve"/>
      <point x="315" y="1181"/>
      <point x="274" y="1165"/>
      <point x="254" y="1165" type="qcurve"/>
      <point x="237" y="1165"/>
      <point x="201" y="1179"/>
      <point x="172" y="1206"/>
      <point x="153" y="1246"/>
      <point x="153" y="1271" type="qcurve"/>
      <point x="153" y="1301"/>
      <point x="179" y="1345"/>
      <point x="218" y="1374"/>
      <point x="264" y="1388"/>
      <point x="285" y="1388" type="qcurve"/>
      <point x="315" y="1388"/>
      <point x="377" y="1360"/>
      <point x="427" y="1308"/>
      <point x="459" y="1235"/>
    </contour>
  </outline>
</glyph>
<glyph name="u1D175" format="2">
  <unicode hex="1D175"/>
  <outline>
    <contour>
      <point x="988" y="-664" type="qcurve"/>
      <point x="988" y="-542" type="line"/>
      <point x="862" y="-542"/>
      <point x="694" y="-469"/>
      <point x="666" y="-378" type="qcurve"/>
      <point x="633" y="-408" type="line"/>
      <point x="672" y="-565"/>
      <point x="874" y="-664"/>
    </contour>
  </outline>
</glyph>
<glyph name="u1D177" format="2">
  <unicode hex="1D177"/>
  <outline>
    <contour>
      <point x="729" y="-417" type="qcurve"/>
      <point x="729" y="-466" type="line"/>
      <point x="706" y="-460"/>
      <point x="596" y="-424"/>
      <point x="570" y="-391" type="qcurve"/>
      <point x="630" y="-391" type="line"/>
      <point x="670" y="-405"/>
    </contour>
  </outline>
</glyph>
<glyph name="u1D1B1" format="2">
  <advance width="1224"/>
  <unicode hex="1D1B1"/>
  <anchor x="579" y="1870" name="A"/>
  <anchor x="579" y="695" name="C"/>
  <anchor x="579" y="-100" name="L"/>
  <anchor x="579" y="1435" name="U"/>
  <outline>
    <contour>
      <point x="1034" y="568" type="line"/>
      <point x="946" y="607" type="line"/>
      <point x="1117" y="1010" type="line"/>
      <point x="49" y="-59" type="line"/>
      <point x="-38" y="28" type="line"/>
      <point x="1030" y="1096" type="line"/>
      <point x="628" y="925" type="line"/>
      <point x="589" y="1013" type="line"/>
      <point x="1171" y="1243" type="line"/>
      <point x="1265" y="1149" type="line"/>
    </contour>
  </outline>
</glyph>
<glyph name="u1D177.TipBlw" format="2">
  <outline>
    <contour>
      <point x="729" y="-417" type="qcurve"/>
      <point x="729" y="-466" type="line"/>
      <point x="703" y="-463"/>
      <point x="596" y="-424"/>
      <point x="570" y="-391" type="qcurve"/>
      <point x="630" y="-391" type="line"/>
      <point x="663" y="-411"/>
    </contour>
  </outline>
</glyph>
<glyph name="u1D1771D178.Slur01Abv" format="2">
  <outline>
    <contour>
      <point x="-333" y="1899" type="qcurve"/>
      <point x="-261" y="1899"/>
      <point x="-142" y="1863"/>
      <point x="-56" y="1794"/>
      <point x="-5" y="1692"/>
      <point x="0" y="1626" type="qcurve"/>
      <point x="-61" y="1626" type="line"/>
      <point x="-75" y="1676"/>
      <point x="-128" y="1741"/>
      <point x="-199" y="1779"/>
      <point x="-285" y="1795"/>
      <point x="-333" y="1795" type="qcurve"/>
      <point x="-381" y="1795"/>
      <point x="-467" y="1779"/>
      <point x="-538" y="1741"/>
      <point x="-591" y="1676"/>
      <point x="-605" y="1626" type="qcurve"/>
      <point x="-666" y="1626" type="line"/>
      <point x="-661" y="1692"/>
      <point x="-610" y="1794"/>
      <point x="-524" y="1863"/>
      <point x="-405" y="1899"/>
    </contour>
  </outline>
</glyph>
<glyph name="u1D1771D178.Slur01Below" format="2">
  <outline>
    <contour>
      <point x="-333" y="-664" type="qcurve"/>
      <point x="-261" y="-664"/>
      <point x="-142" y="-628"/>
      <point x="-56" y="-559"/>
      <point x="-5" y="-457"/>
      <point x="0" y="-391" type="qcurve"/>
      <point x="-61" y="-391" type="line"/>
      <point x="-75" y="-441"/>
      <point x="-128" y="-506"/>
      <point x="-199" y="-544"/>
      <point x="-285" y="-560"/>
      <point x="-333" y="-560" type="qcurve"/>
      <point x="-381" y="-560"/>
      <point x="-467" y="-544"/>
      <point x="-538" y="-506"/>
      <point x="-591" y="-441"/>
      <point x="-605" y="-391" type="qcurve"/>
      <point x="-666" y="-391" type="line"/>
      <point x="-661" y="-457"/>
      <point x="-610" y="-559"/>
      <point x="-524" y="-628"/>
      <point x="-405" y="-664"/>
    </contour>
  </outline>
</glyph>
<glyph name="u1D1771D178.Slur02Abv" format="2">
  <outline>
    <contour>
      <point x="-572" y="1899" type="qcurve"/>
      <point x="-482" y="1899"/>
      <point x="-265" y="1863"/>
      <point x="-105" y="1794"/>
      <point x="-9" y="1692"/>
      <point x="0" y="1626" type="qcurve"/>
      <point x="-60" y="1626" type="line"/>
      <point x="-86" y="1676"/>
      <point x="-200" y="1741"/>
      <point x="-351" y="1779"/>
      <point x="-526" y="1795"/>
      <point x="-572" y="1795" type="qcurve"/>
      <point x="-618" y="1795"/>
      <point x="-789" y="1779"/>
      <point x="-938" y="1741"/>
      <point x="-1053" y="1676"/>
      <point x="-1084" y="1626" type="qcurve"/>
      <point x="-1144" y="1626" type="line"/>
      <point x="-1130" y="1692"/>
      <point x="-1033" y="1794"/>
      <point x="-875" y="1863"/>
      <point x="-662" y="1899"/>
    </contour>
  </outline>
</glyph>
<glyph name="u1D1771D178.Slur02Below" format="2">
  <outline>
    <contour>
      <point x="0" y="-391" type="qcurve"/>
      <point x="-60" y="-391" type="line"/>
      <point x="-88" y="-437"/>
      <point x="-197" y="-501"/>
      <point x="-336" y="-542"/>
      <point x="-494" y="-560"/>
      <point x="-572" y="-560" type="qcurve"/>
      <point x="-606" y="-560"/>
      <point x="-699" y="-554"/>
      <point x="-800" y="-540"/>
      <point x="-904" y="-516"/>
      <point x="-995" y="-478"/>
      <point x="-1066" y="-426"/>
      <point x="-1084" y="-391" type="qcurve"/>
      <point x="-1144" y="-391" type="line"/>
      <point x="-1136" y="-453"/>
      <point x="-1044" y="-554"/>
      <point x="-893" y="-625"/>
      <point x="-691" y="-664"/>
      <point x="-572" y="-664" type="qcurve"/>
      <point x="-479" y="-664"/>
      <point x="-288" y="-632"/>
      <point x="-128" y="-565"/>
      <point x="-15" y="-462"/>
    </contour>
  </outline>
</glyph>
<glyph name="u1D1771D178.Slur03Abv" format="2">
  <outline>
    <contour>
      <point x="-918" y="1899" type="qcurve"/>
      <point x="-723" y="1899"/>
      <point x="-397" y="1863"/>
      <point x="-158" y="1794"/>
      <point x="-14" y="1692"/>
      <point x="0" y="1626" type="qcurve"/>
      <point x="-60" y="1626" type="line"/>
      <point x="-86" y="1659"/>
      <point x="-185" y="1710"/>
      <point x="-318" y="1747"/>
      <point x="-478" y="1773"/>
      <point x="-652" y="1788"/>
      <point x="-831" y="1795"/>
      <point x="-918" y="1795" type="qcurve"/>
      <point x="-1048" y="1795"/>
      <point x="-1313" y="1779"/>
      <point x="-1547" y="1741"/>
      <point x="-1729" y="1676"/>
      <point x="-1776" y="1626" type="qcurve"/>
      <point x="-1836" y="1626" type="line"/>
      <point x="-1815" y="1692"/>
      <point x="-1669" y="1794"/>
      <point x="-1433" y="1863"/>
      <point x="-1113" y="1899"/>
    </contour>
  </outline>
</glyph>
<glyph name="u1D1771D178.Slur03Below" format="2">
  <outline>
    <contour>
      <point x="0" y="-391" type="qcurve"/>
      <point x="-60" y="-391" type="line"/>
      <point x="-107" y="-441"/>
      <point x="-289" y="-506"/>
      <point x="-523" y="-544"/>
      <point x="-788" y="-560"/>
      <point x="-918" y="-560" type="qcurve"/>
      <point x="-1005" y="-560"/>
      <point x="-1184" y="-553"/>
      <point x="-1358" y="-538"/>
      <point x="-1518" y="-512"/>
      <point x="-1651" y="-475"/>
      <point x="-1750" y="-424"/>
      <point x="-1776" y="-391" type="qcurve"/>
      <point x="-1836" y="-391" type="line"/>
      <point x="-1822" y="-457"/>
      <point x="-1678" y="-559"/>
      <point x="-1439" y="-628"/>
      <point x="-1113" y="-664"/>
      <point x="-918" y="-664" type="qcurve"/>
      <point x="-723" y="-664"/>
      <point x="-403" y="-628"/>
      <point x="-167" y="-559"/>
      <point x="-21" y="-457"/>
    </contour>
  </outline>
</glyph>
<glyph name="u1D1771D178.Slur04Abv" format="2">
  <outline>
    <contour>
      <point x="-1224" y="1899" type="qcurve"/>
      <point x="-970" y="1899"/>
      <point x="-538" y="1863"/>
      <point x="-215" y="1794"/>
      <point x="-18" y="1692"/>
      <point x="0" y="1626" type="qcurve"/>
      <point x="-60" y="1626" type="line"/>
      <point x="-93" y="1659"/>
      <point x="-229" y="1710"/>
      <point x="-413" y="1747"/>
      <point x="-634" y="1773"/>
      <point x="-870" y="1788"/>
      <point x="-1112" y="1795"/>
      <point x="-1224" y="1795" type="qcurve"/>
      <point x="-1336" y="1795"/>
      <point x="-1573" y="1788"/>
      <point x="-1805" y="1773"/>
      <point x="-2023" y="1747"/>
      <point x="-2207" y="1710"/>
      <point x="-2348" y="1659"/>
      <point x="-2388" y="1626" type="qcurve"/>
      <point x="-2448" y="1626" type="line"/>
      <point x="-2421" y="1692"/>
      <point x="-2222" y="1794"/>
      <point x="-1903" y="1863"/>
      <point x="-1477" y="1899"/>
    </contour>
  </outline>
</glyph>
<glyph name="u1D1771D178.Slur04Below" format="2">
  <outline>
    <contour>
      <point x="0" y="-391" type="qcurve"/>
      <point x="-60" y="-391" type="line"/>
      <point x="-100" y="-424"/>
      <point x="-241" y="-475"/>
      <point x="-425" y="-512"/>
      <point x="-643" y="-538"/>
      <point x="-875" y="-553"/>
      <point x="-1112" y="-560"/>
      <point x="-1224" y="-560" type="qcurve"/>
      <point x="-1336" y="-560"/>
      <point x="-1578" y="-553"/>
      <point x="-1814" y="-538"/>
      <point x="-2035" y="-512"/>
      <point x="-2219" y="-475"/>
      <point x="-2355" y="-424"/>
      <point x="-2388" y="-391" type="qcurve"/>
      <point x="-2448" y="-391" type="line"/>
      <point x="-2430" y="-457"/>
      <point x="-2233" y="-559"/>
      <point x="-1910" y="-628"/>
      <point x="-1478" y="-664"/>
      <point x="-1224" y="-664" type="qcurve"/>
      <point x="-971" y="-664"/>
      <point x="-545" y="-628"/>
      <point x="-226" y="-559"/>
      <point x="-27" y="-457"/>
    </contour>
  </outline>
</glyph>
<glyph name="u1D1771D178.Slur05Abv" format="2">
  <outline>
    <contour>
      <point x="-1530" y="1899" type="qcurve"/>
      <point x="-1327" y="1899"/>
      <point x="-951" y="1883"/>
      <point x="-620" y="1852"/>
      <point x="-344" y="1806"/>
      <point x="-139" y="1745"/>
      <point x="-14" y="1670"/>
      <point x="0" y="1626" type="qcurve"/>
      <point x="-60" y="1626" type="line"/>
      <point x="-100" y="1659"/>
      <point x="-274" y="1710"/>
      <point x="-511" y="1747"/>
      <point x="-795" y="1773"/>
      <point x="-1095" y="1788"/>
      <point x="-1395" y="1795"/>
      <point x="-1530" y="1795" type="qcurve"/>
      <point x="-1664" y="1795"/>
      <point x="-1960" y="1788"/>
      <point x="-2255" y="1773"/>
      <point x="-2535" y="1747"/>
      <point x="-2772" y="1710"/>
      <point x="-2952" y="1659"/>
      <point x="-3000" y="1626" type="qcurve"/>
      <point x="-3060" y="1626" type="line"/>
      <point x="-3038" y="1670"/>
      <point x="-2907" y="1745"/>
      <point x="-2702" y="1806"/>
      <point x="-2431" y="1852"/>
      <point x="-2105" y="1883"/>
      <point x="-1733" y="1899"/>
    </contour>
  </outline>
</glyph>
<glyph name="u1D1771D178.Slur05Below" format="2">
  <outline>
    <contour>
      <point x="0" y="-391" type="qcurve"/>
      <point x="-60" y="-391" type="line"/>
      <point x="-108" y="-424"/>
      <point x="-288" y="-475"/>
      <point x="-525" y="-512"/>
      <point x="-805" y="-538"/>
      <point x="-1100" y="-553"/>
      <point x="-1396" y="-560"/>
      <point x="-1530" y="-560" type="qcurve"/>
      <point x="-1665" y="-560"/>
      <point x="-1965" y="-553"/>
      <point x="-2265" y="-538"/>
      <point x="-2549" y="-512"/>
      <point x="-2786" y="-475"/>
      <point x="-2960" y="-424"/>
      <point x="-3000" y="-391" type="qcurve"/>
      <point x="-3060" y="-391" type="line"/>
      <point x="-3046" y="-435"/>
      <point x="-2921" y="-510"/>
      <point x="-2716" y="-571"/>
      <point x="-2440" y="-617"/>
      <point x="-2109" y="-648"/>
      <point x="-1733" y="-664"/>
      <point x="-1530" y="-664" type="qcurve"/>
      <point x="-1327" y="-664"/>
      <point x="-955" y="-648"/>
      <point x="-629" y="-617"/>
      <point x="-358" y="-571"/>
      <point x="-153" y="-510"/>
      <point x="-22" y="-435"/>
    </contour>
  </outline>
</glyph>
<glyph name="u1D1771D178.Slur06Abv" format="2">
  <outline>
    <contour>
      <point x="-1836" y="1899" type="qcurve"/>
      <point x="-1593" y="1899"/>
      <point x="-1141" y="1883"/>
      <point x="-745" y="1852"/>
      <point x="-413" y="1806"/>
      <point x="-168" y="1745"/>
      <point x="-17" y="1670"/>
      <point x="0" y="1626" type="qcurve"/>
      <point x="-60" y="1626" type="line"/>
      <point x="-96" y="1651"/>
      <point x="-233" y="1692"/>
      <point x="-421" y="1725"/>
      <point x="-650" y="1751"/>
      <point x="-905" y="1770"/>
      <point x="-1176" y="1783"/>
      <point x="-1449" y="1791"/>
      <point x="-1715" y="1795"/>
      <point x="-1836" y="1795" type="qcurve"/>
      <point x="-1957" y="1795"/>
      <point x="-2220" y="1791"/>
      <point x="-2488" y="1783"/>
      <point x="-2755" y="1770"/>
      <point x="-3005" y="1751"/>
      <point x="-3233" y="1726"/>
      <point x="-3423" y="1692"/>
      <point x="-3569" y="1651"/>
      <point x="-3612" y="1626" type="qcurve"/>
      <point x="-3672" y="1626" type="line"/>
      <point x="-3646" y="1670"/>
      <point x="-3489" y="1745"/>
      <point x="-3243" y="1806"/>
      <point x="-2917" y="1852"/>
      <point x="-2526" y="1883"/>
      <point x="-2079" y="1899"/>
    </contour>
  </outline>
</glyph>
<glyph name="u1D1771D178.Slur06Below" format="2">
  <outline>
    <contour>
      <point x="0" y="-391" type="qcurve"/>
      <point x="-60" y="-391" type="line"/>
      <point x="-103" y="-416"/>
      <point x="-249" y="-457"/>
      <point x="-439" y="-491"/>
      <point x="-667" y="-516"/>
      <point x="-917" y="-535"/>
      <point x="-1184" y="-548"/>
      <point x="-1452" y="-556"/>
      <point x="-1715" y="-560"/>
      <point x="-1836" y="-560" type="qcurve"/>
      <point x="-1957" y="-560"/>
      <point x="-2223" y="-556"/>
      <point x="-2496" y="-548"/>
      <point x="-2767" y="-535"/>
      <point x="-3022" y="-516"/>
      <point x="-3251" y="-490"/>
      <point x="-3439" y="-457"/>
      <point x="-3576" y="-416"/>
      <point x="-3612" y="-391" type="qcurve"/>
      <point x="-3672" y="-391" type="line"/>
      <point x="-3655" y="-435"/>
      <point x="-3504" y="-510"/>
      <point x="-3259" y="-571"/>
      <point x="-2927" y="-617"/>
      <point x="-2531" y="-648"/>
      <point x="-2079" y="-664"/>
      <point x="-1836" y="-664" type="qcurve"/>
      <point x="-1593" y="-664"/>
      <point x="-1146" y="-648"/>
      <point x="-755" y="-617"/>
      <point x="-429" y="-571"/>
      <point x="-183" y="-510"/>
      <point x="-26" y="-435"/>
    </contour>
  </outline>
</glyph>
